%TF.GenerationSoftware,KiCad,Pcbnew,8.0.8*%
%TF.CreationDate,2025-09-18T11:40:00+02:00*%
%TF.ProjectId,padv1,70616476-312e-46b6-9963-61645f706362,rev?*%
%TF.SameCoordinates,Original*%
%TF.FileFunction,Drillmap*%
%TF.FilePolarity,Positive*%
%FSLAX45Y45*%
G04 Gerber Fmt 4.5, Leading zero omitted, Abs format (unit mm)*
G04 Created by KiCad (PCBNEW 8.0.8) date 2025-09-18 11:40:00*
%MOMM*%
%LPD*%
G01*
G04 APERTURE LIST*
%ADD10C,0.050000*%
%ADD11C,0.200000*%
%ADD12C,0.100000*%
%ADD13C,0.139700*%
G04 APERTURE END LIST*
D10*
X10304995Y-8200063D02*
G75*
G02*
X10505063Y-8000075I199995J-7D01*
G01*
X10504843Y-14350000D02*
X24500000Y-14350000D01*
X24500000Y-14350000D02*
X24765005Y-14350000D01*
X24965005Y-14150005D02*
G75*
G02*
X24765005Y-14350005I-200005J5D01*
G01*
X24765227Y-8004931D02*
G75*
G02*
X24965159Y-8204773I-67J-199999D01*
G01*
X24965005Y-14150005D02*
X24965157Y-8204773D01*
X24765227Y-8004931D02*
X10505063Y-8000068D01*
X10304843Y-14150157D02*
X10304995Y-8200063D01*
X10504843Y-14350000D02*
G75*
G02*
X10304840Y-14150157I-3J200000D01*
G01*
D11*
D12*
X10990000Y-9595000D02*
X11020000Y-9625000D01*
X11020000Y-9595000D02*
X10990000Y-9625000D01*
X12590000Y-9695000D02*
X12620000Y-9725000D01*
X12620000Y-9695000D02*
X12590000Y-9725000D01*
X13365000Y-9225000D02*
X13395000Y-9255000D01*
X13395000Y-9225000D02*
X13365000Y-9255000D01*
X13755000Y-9100000D02*
X13785000Y-9130000D01*
X13785000Y-9100000D02*
X13755000Y-9130000D01*
X17140000Y-14085000D02*
X17170000Y-14115000D01*
X17170000Y-14085000D02*
X17140000Y-14115000D01*
X17140000Y-14160000D02*
X17170000Y-14190000D01*
X17170000Y-14160000D02*
X17140000Y-14190000D01*
X17140000Y-14235000D02*
X17170000Y-14265000D01*
X17170000Y-14235000D02*
X17140000Y-14265000D01*
X17830000Y-12890000D02*
X17860000Y-12920000D01*
X17860000Y-12890000D02*
X17830000Y-12920000D01*
X17830000Y-12990000D02*
X17860000Y-13020000D01*
X17860000Y-12990000D02*
X17830000Y-13020000D01*
X17830000Y-13090000D02*
X17860000Y-13120000D01*
X17860000Y-13090000D02*
X17830000Y-13120000D01*
X18490000Y-12890000D02*
X18520000Y-12920000D01*
X18520000Y-12890000D02*
X18490000Y-12920000D01*
X18490000Y-12990000D02*
X18520000Y-13020000D01*
X18520000Y-12990000D02*
X18490000Y-13020000D01*
X18490000Y-13090000D02*
X18520000Y-13120000D01*
X18520000Y-13090000D02*
X18490000Y-13120000D01*
X18885000Y-12985000D02*
X18915000Y-13015000D01*
X18915000Y-12985000D02*
X18885000Y-13015000D01*
X18001000Y-8675000D02*
G75*
G02*
X17971000Y-8675000I-15000J0D01*
G01*
X17971000Y-8675000D02*
G75*
G02*
X18001000Y-8675000I15000J0D01*
G01*
X18001000Y-8785000D02*
G75*
G02*
X17971000Y-8785000I-15000J0D01*
G01*
X17971000Y-8785000D02*
G75*
G02*
X18001000Y-8785000I15000J0D01*
G01*
X18056000Y-8620000D02*
G75*
G02*
X18026000Y-8620000I-15000J0D01*
G01*
X18026000Y-8620000D02*
G75*
G02*
X18056000Y-8620000I15000J0D01*
G01*
X18056000Y-8730000D02*
G75*
G02*
X18026000Y-8730000I-15000J0D01*
G01*
X18026000Y-8730000D02*
G75*
G02*
X18056000Y-8730000I15000J0D01*
G01*
X18056000Y-8840000D02*
G75*
G02*
X18026000Y-8840000I-15000J0D01*
G01*
X18026000Y-8840000D02*
G75*
G02*
X18056000Y-8840000I15000J0D01*
G01*
X18111000Y-8675000D02*
G75*
G02*
X18081000Y-8675000I-15000J0D01*
G01*
X18081000Y-8675000D02*
G75*
G02*
X18111000Y-8675000I15000J0D01*
G01*
X18111000Y-8785000D02*
G75*
G02*
X18081000Y-8785000I-15000J0D01*
G01*
X18081000Y-8785000D02*
G75*
G02*
X18111000Y-8785000I15000J0D01*
G01*
X18166000Y-8620000D02*
G75*
G02*
X18136000Y-8620000I-15000J0D01*
G01*
X18136000Y-8620000D02*
G75*
G02*
X18166000Y-8620000I15000J0D01*
G01*
X18166000Y-8730000D02*
G75*
G02*
X18136000Y-8730000I-15000J0D01*
G01*
X18136000Y-8730000D02*
G75*
G02*
X18166000Y-8730000I15000J0D01*
G01*
X18166000Y-8840000D02*
G75*
G02*
X18136000Y-8840000I-15000J0D01*
G01*
X18136000Y-8840000D02*
G75*
G02*
X18166000Y-8840000I15000J0D01*
G01*
X18221000Y-8675000D02*
G75*
G02*
X18191000Y-8675000I-15000J0D01*
G01*
X18191000Y-8675000D02*
G75*
G02*
X18221000Y-8675000I15000J0D01*
G01*
X18221000Y-8785000D02*
G75*
G02*
X18191000Y-8785000I-15000J0D01*
G01*
X18191000Y-8785000D02*
G75*
G02*
X18221000Y-8785000I15000J0D01*
G01*
X10480000Y-8765000D02*
X10480000Y-8805000D01*
X10460000Y-8785000D02*
X10500000Y-8785000D01*
X10870000Y-8970000D02*
X10870000Y-9010000D01*
X10850000Y-8990000D02*
X10890000Y-8990000D01*
X11385000Y-12800000D02*
X11385000Y-12840000D01*
X11365000Y-12820000D02*
X11405000Y-12820000D01*
X11394000Y-12176000D02*
X11394000Y-12216000D01*
X11374000Y-12196000D02*
X11414000Y-12196000D01*
X11670000Y-8525000D02*
X11670000Y-8565000D01*
X11650000Y-8545000D02*
X11690000Y-8545000D01*
X11680000Y-9470000D02*
X11680000Y-9510000D01*
X11660000Y-9490000D02*
X11700000Y-9490000D01*
X12120000Y-9295000D02*
X12120000Y-9335000D01*
X12100000Y-9315000D02*
X12140000Y-9315000D01*
X12135000Y-8300000D02*
X12135000Y-8340000D01*
X12115000Y-8320000D02*
X12155000Y-8320000D01*
X12470000Y-8965000D02*
X12470000Y-9005000D01*
X12450000Y-8985000D02*
X12490000Y-8985000D01*
X12595000Y-13835000D02*
X12595000Y-13875000D01*
X12575000Y-13855000D02*
X12615000Y-13855000D01*
X12980000Y-8750000D02*
X12980000Y-8790000D01*
X12960000Y-8770000D02*
X13000000Y-8770000D01*
X13105000Y-13835000D02*
X13105000Y-13875000D01*
X13085000Y-13855000D02*
X13125000Y-13855000D01*
X13975000Y-10470000D02*
X13975000Y-10510000D01*
X13955000Y-10490000D02*
X13995000Y-10490000D01*
X14355000Y-11860000D02*
X14355000Y-11900000D01*
X14335000Y-11880000D02*
X14375000Y-11880000D01*
X14380000Y-12115000D02*
X14380000Y-12155000D01*
X14360000Y-12135000D02*
X14400000Y-12135000D01*
X14460000Y-13920000D02*
X14460000Y-13960000D01*
X14440000Y-13940000D02*
X14480000Y-13940000D01*
X14665000Y-11465000D02*
X14665000Y-11505000D01*
X14645000Y-11485000D02*
X14685000Y-11485000D01*
X14880000Y-10610000D02*
X14880000Y-10650000D01*
X14860000Y-10630000D02*
X14900000Y-10630000D01*
X14980000Y-10610000D02*
X14980000Y-10650000D01*
X14960000Y-10630000D02*
X15000000Y-10630000D01*
X14980000Y-11705000D02*
X14980000Y-11745000D01*
X14960000Y-11725000D02*
X15000000Y-11725000D01*
X14980000Y-11855000D02*
X14980000Y-11895000D01*
X14960000Y-11875000D02*
X15000000Y-11875000D01*
X14985000Y-12105000D02*
X14985000Y-12145000D01*
X14965000Y-12125000D02*
X15005000Y-12125000D01*
X15090000Y-10610000D02*
X15090000Y-10650000D01*
X15070000Y-10630000D02*
X15110000Y-10630000D01*
X15200000Y-10610000D02*
X15200000Y-10650000D01*
X15180000Y-10630000D02*
X15220000Y-10630000D01*
X15305000Y-11650000D02*
X15305000Y-11690000D01*
X15285000Y-11670000D02*
X15325000Y-11670000D01*
X15310000Y-11800000D02*
X15310000Y-11840000D01*
X15290000Y-11820000D02*
X15330000Y-11820000D01*
X15310000Y-11935000D02*
X15310000Y-11975000D01*
X15290000Y-11955000D02*
X15330000Y-11955000D01*
X15310000Y-12055000D02*
X15310000Y-12095000D01*
X15290000Y-12075000D02*
X15330000Y-12075000D01*
X15310000Y-12175000D02*
X15310000Y-12215000D01*
X15290000Y-12195000D02*
X15330000Y-12195000D01*
X15310000Y-12305000D02*
X15310000Y-12345000D01*
X15290000Y-12325000D02*
X15330000Y-12325000D01*
X15825000Y-10335000D02*
X15825000Y-10375000D01*
X15805000Y-10355000D02*
X15845000Y-10355000D01*
X15850000Y-11530000D02*
X15850000Y-11570000D01*
X15830000Y-11550000D02*
X15870000Y-11550000D01*
X15870000Y-12285000D02*
X15870000Y-12325000D01*
X15850000Y-12305000D02*
X15890000Y-12305000D01*
X15880000Y-11935000D02*
X15880000Y-11975000D01*
X15860000Y-11955000D02*
X15900000Y-11955000D01*
X16050000Y-8105000D02*
X16050000Y-8145000D01*
X16030000Y-8125000D02*
X16070000Y-8125000D01*
X16070000Y-8745000D02*
X16070000Y-8785000D01*
X16050000Y-8765000D02*
X16090000Y-8765000D01*
X16070000Y-9060000D02*
X16070000Y-9100000D01*
X16050000Y-9080000D02*
X16090000Y-9080000D01*
X16070000Y-9380000D02*
X16070000Y-9420000D01*
X16050000Y-9400000D02*
X16090000Y-9400000D01*
X16070000Y-9695000D02*
X16070000Y-9735000D01*
X16050000Y-9715000D02*
X16090000Y-9715000D01*
X16085000Y-9975000D02*
X16085000Y-10015000D01*
X16065000Y-9995000D02*
X16105000Y-9995000D01*
X16390000Y-8500000D02*
X16390000Y-8540000D01*
X16370000Y-8520000D02*
X16410000Y-8520000D01*
X16465000Y-13355000D02*
X16465000Y-13395000D01*
X16445000Y-13375000D02*
X16485000Y-13375000D01*
X16615000Y-10325000D02*
X16615000Y-10365000D01*
X16595000Y-10345000D02*
X16635000Y-10345000D01*
X16705000Y-13355000D02*
X16705000Y-13395000D01*
X16685000Y-13375000D02*
X16725000Y-13375000D01*
X16760000Y-8495000D02*
X16760000Y-8535000D01*
X16740000Y-8515000D02*
X16780000Y-8515000D01*
X16815000Y-11240000D02*
X16815000Y-11280000D01*
X16795000Y-11260000D02*
X16835000Y-11260000D01*
X16885000Y-10150000D02*
X16885000Y-10190000D01*
X16865000Y-10170000D02*
X16905000Y-10170000D01*
X16940000Y-8360000D02*
X16940000Y-8400000D01*
X16920000Y-8380000D02*
X16960000Y-8380000D01*
X16955000Y-12630000D02*
X16955000Y-12670000D01*
X16935000Y-12650000D02*
X16975000Y-12650000D01*
X16960000Y-13355000D02*
X16960000Y-13395000D01*
X16940000Y-13375000D02*
X16980000Y-13375000D01*
X16980000Y-10305000D02*
X16980000Y-10345000D01*
X16960000Y-10325000D02*
X17000000Y-10325000D01*
X17105000Y-11760000D02*
X17105000Y-11800000D01*
X17085000Y-11780000D02*
X17125000Y-11780000D01*
X17135000Y-9520000D02*
X17135000Y-9560000D01*
X17115000Y-9540000D02*
X17155000Y-9540000D01*
X17140000Y-10660000D02*
X17140000Y-10700000D01*
X17120000Y-10680000D02*
X17160000Y-10680000D01*
X17260000Y-13260000D02*
X17260000Y-13300000D01*
X17240000Y-13280000D02*
X17280000Y-13280000D01*
X17275000Y-11235000D02*
X17275000Y-11275000D01*
X17255000Y-11255000D02*
X17295000Y-11255000D01*
X17320000Y-12100000D02*
X17320000Y-12140000D01*
X17300000Y-12120000D02*
X17340000Y-12120000D01*
X17395000Y-12205000D02*
X17395000Y-12245000D01*
X17375000Y-12225000D02*
X17415000Y-12225000D01*
X17425000Y-10755000D02*
X17425000Y-10795000D01*
X17405000Y-10775000D02*
X17445000Y-10775000D01*
X17455000Y-11380000D02*
X17455000Y-11420000D01*
X17435000Y-11400000D02*
X17475000Y-11400000D01*
X17480000Y-9635000D02*
X17480000Y-9675000D01*
X17460000Y-9655000D02*
X17500000Y-9655000D01*
X17500000Y-11755000D02*
X17500000Y-11795000D01*
X17480000Y-11775000D02*
X17520000Y-11775000D01*
X17515000Y-12380000D02*
X17515000Y-12420000D01*
X17495000Y-12400000D02*
X17535000Y-12400000D01*
X17515000Y-12465000D02*
X17515000Y-12505000D01*
X17495000Y-12485000D02*
X17535000Y-12485000D01*
X17955000Y-12105000D02*
X17955000Y-12145000D01*
X17935000Y-12125000D02*
X17975000Y-12125000D01*
X18025000Y-9740000D02*
X18025000Y-9780000D01*
X18005000Y-9760000D02*
X18045000Y-9760000D01*
X18100000Y-12435000D02*
X18100000Y-12475000D01*
X18080000Y-12455000D02*
X18120000Y-12455000D01*
X18155000Y-10810000D02*
X18155000Y-10850000D01*
X18135000Y-10830000D02*
X18175000Y-10830000D01*
X18260000Y-11655000D02*
X18260000Y-11695000D01*
X18240000Y-11675000D02*
X18280000Y-11675000D01*
X18260000Y-12075000D02*
X18260000Y-12115000D01*
X18240000Y-12095000D02*
X18280000Y-12095000D01*
X18685000Y-10635000D02*
X18685000Y-10675000D01*
X18665000Y-10655000D02*
X18705000Y-10655000D01*
X18900000Y-12445000D02*
X18900000Y-12485000D01*
X18880000Y-12465000D02*
X18920000Y-12465000D01*
X18960000Y-9970000D02*
X18960000Y-10010000D01*
X18940000Y-9990000D02*
X18980000Y-9990000D01*
X19080000Y-9050000D02*
X19080000Y-9090000D01*
X19060000Y-9070000D02*
X19100000Y-9070000D01*
X19080000Y-11100000D02*
X19080000Y-11140000D01*
X19060000Y-11120000D02*
X19100000Y-11120000D01*
X19145000Y-12445000D02*
X19145000Y-12485000D01*
X19125000Y-12465000D02*
X19165000Y-12465000D01*
X19165000Y-11405000D02*
X19165000Y-11445000D01*
X19145000Y-11425000D02*
X19185000Y-11425000D01*
X19172500Y-9187500D02*
X19172500Y-9227500D01*
X19152500Y-9207500D02*
X19192500Y-9207500D01*
X19185000Y-8280000D02*
X19185000Y-8320000D01*
X19165000Y-8300000D02*
X19205000Y-8300000D01*
X19200000Y-13220000D02*
X19200000Y-13260000D01*
X19180000Y-13240000D02*
X19220000Y-13240000D01*
X19230000Y-11655000D02*
X19230000Y-11695000D01*
X19210000Y-11675000D02*
X19250000Y-11675000D01*
X19305000Y-8135000D02*
X19305000Y-8175000D01*
X19285000Y-8155000D02*
X19325000Y-8155000D01*
X19347500Y-12957500D02*
X19347500Y-12997500D01*
X19327500Y-12977500D02*
X19367500Y-12977500D01*
X19350000Y-12695000D02*
X19350000Y-12735000D01*
X19330000Y-12715000D02*
X19370000Y-12715000D01*
X19370000Y-10640000D02*
X19370000Y-10680000D01*
X19350000Y-10660000D02*
X19390000Y-10660000D01*
X19390000Y-12050000D02*
X19390000Y-12090000D01*
X19370000Y-12070000D02*
X19410000Y-12070000D01*
X19575000Y-12215000D02*
X19575000Y-12255000D01*
X19555000Y-12235000D02*
X19595000Y-12235000D01*
X19575000Y-12870000D02*
X19575000Y-12910000D01*
X19555000Y-12890000D02*
X19595000Y-12890000D01*
X19600000Y-11345000D02*
X19600000Y-11385000D01*
X19580000Y-11365000D02*
X19620000Y-11365000D01*
X19605000Y-10995000D02*
X19605000Y-11035000D01*
X19585000Y-11015000D02*
X19625000Y-11015000D01*
X19780000Y-12955000D02*
X19780000Y-12995000D01*
X19760000Y-12975000D02*
X19800000Y-12975000D01*
X19810000Y-12690000D02*
X19810000Y-12730000D01*
X19790000Y-12710000D02*
X19830000Y-12710000D01*
X19905000Y-8625000D02*
X19905000Y-8665000D01*
X19885000Y-8645000D02*
X19925000Y-8645000D01*
X19905000Y-8980000D02*
X19905000Y-9020000D01*
X19885000Y-9000000D02*
X19925000Y-9000000D01*
X19910000Y-9300000D02*
X19910000Y-9340000D01*
X19890000Y-9320000D02*
X19930000Y-9320000D01*
X19945000Y-13225000D02*
X19945000Y-13265000D01*
X19925000Y-13245000D02*
X19965000Y-13245000D01*
X19980000Y-12355000D02*
X19980000Y-12395000D01*
X19960000Y-12375000D02*
X20000000Y-12375000D01*
X19995000Y-12955000D02*
X19995000Y-12995000D01*
X19975000Y-12975000D02*
X20015000Y-12975000D01*
X20280000Y-12345000D02*
X20280000Y-12385000D01*
X20260000Y-12365000D02*
X20300000Y-12365000D01*
X20485000Y-11830000D02*
X20485000Y-11870000D01*
X20465000Y-11850000D02*
X20505000Y-11850000D01*
X20500000Y-8690000D02*
X20500000Y-8730000D01*
X20480000Y-8710000D02*
X20520000Y-8710000D01*
X20585000Y-11555000D02*
X20585000Y-11595000D01*
X20565000Y-11575000D02*
X20605000Y-11575000D01*
X20610000Y-11215000D02*
X20610000Y-11255000D01*
X20590000Y-11235000D02*
X20630000Y-11235000D01*
X20635000Y-12980000D02*
X20635000Y-13020000D01*
X20615000Y-13000000D02*
X20655000Y-13000000D01*
X20760000Y-8710000D02*
X20760000Y-8750000D01*
X20740000Y-8730000D02*
X20780000Y-8730000D01*
X20950000Y-12330000D02*
X20950000Y-12370000D01*
X20930000Y-12350000D02*
X20970000Y-12350000D01*
X20950000Y-12700000D02*
X20950000Y-12740000D01*
X20930000Y-12720000D02*
X20970000Y-12720000D01*
X20960000Y-12085000D02*
X20960000Y-12125000D01*
X20940000Y-12105000D02*
X20980000Y-12105000D01*
X21305000Y-9545000D02*
X21305000Y-9585000D01*
X21285000Y-9565000D02*
X21325000Y-9565000D01*
X22196000Y-13799000D02*
X22196000Y-13839000D01*
X22176000Y-13819000D02*
X22216000Y-13819000D01*
X22365000Y-8715000D02*
X22365000Y-8755000D01*
X22345000Y-8735000D02*
X22385000Y-8735000D01*
X22510000Y-8400000D02*
X22510000Y-8440000D01*
X22490000Y-8420000D02*
X22530000Y-8420000D01*
X22704000Y-13829000D02*
X22704000Y-13869000D01*
X22684000Y-13849000D02*
X22724000Y-13849000D01*
X22765000Y-8960000D02*
X22765000Y-9000000D01*
X22745000Y-8980000D02*
X22785000Y-8980000D01*
X23145000Y-8230000D02*
X23145000Y-8270000D01*
X23125000Y-8250000D02*
X23165000Y-8250000D01*
X23172500Y-9197500D02*
X23172500Y-9237500D01*
X23152500Y-9217500D02*
X23192500Y-9217500D01*
X23530000Y-14000000D02*
X23530000Y-14040000D01*
X23510000Y-14020000D02*
X23550000Y-14020000D01*
X23575000Y-8510000D02*
X23575000Y-8550000D01*
X23555000Y-8530000D02*
X23595000Y-8530000D01*
X23575000Y-9455000D02*
X23575000Y-9495000D01*
X23555000Y-9475000D02*
X23595000Y-9475000D01*
X24370000Y-8950000D02*
X24370000Y-8990000D01*
X24350000Y-8970000D02*
X24390000Y-8970000D01*
X24760000Y-8700000D02*
X24760000Y-8740000D01*
X24740000Y-8720000D02*
X24780000Y-8720000D01*
X19310910Y-13297910D02*
X19310910Y-13266090D01*
X19279090Y-13266090D01*
X19279090Y-13297910D01*
X19310910Y-13297910D01*
X19350910Y-13368910D02*
X19350910Y-13337090D01*
X19319090Y-13337090D01*
X19319090Y-13368910D01*
X19350910Y-13368910D01*
X19390910Y-13297910D02*
X19390910Y-13266090D01*
X19359090Y-13266090D01*
X19359090Y-13297910D01*
X19390910Y-13297910D01*
X19430910Y-13368910D02*
X19430910Y-13337090D01*
X19399090Y-13337090D01*
X19399090Y-13368910D01*
X19430910Y-13368910D01*
X19470910Y-13297910D02*
X19470910Y-13266090D01*
X19439090Y-13266090D01*
X19439090Y-13297910D01*
X19470910Y-13297910D01*
X19510910Y-13368910D02*
X19510910Y-13337090D01*
X19479090Y-13337090D01*
X19479090Y-13368910D01*
X19510910Y-13368910D01*
X19550910Y-13297910D02*
X19550910Y-13266090D01*
X19519090Y-13266090D01*
X19519090Y-13297910D01*
X19550910Y-13297910D01*
X19630910Y-13297910D02*
X19630910Y-13266090D01*
X19599090Y-13266090D01*
X19599090Y-13297910D01*
X19630910Y-13297910D01*
X19670910Y-13368910D02*
X19670910Y-13337090D01*
X19639090Y-13337090D01*
X19639090Y-13368910D01*
X19670910Y-13368910D01*
X19710910Y-13297910D02*
X19710910Y-13266090D01*
X19679090Y-13266090D01*
X19679090Y-13297910D01*
X19710910Y-13297910D01*
X19750910Y-13368910D02*
X19750910Y-13337090D01*
X19719090Y-13337090D01*
X19719090Y-13368910D01*
X19750910Y-13368910D01*
X19790910Y-13297910D02*
X19790910Y-13266090D01*
X19759090Y-13266090D01*
X19759090Y-13297910D01*
X19790910Y-13297910D01*
X19830910Y-13368910D02*
X19830910Y-13337090D01*
X19799090Y-13337090D01*
X19799090Y-13368910D01*
X19830910Y-13368910D01*
X19870910Y-13297910D02*
X19870910Y-13266090D01*
X19839090Y-13266090D01*
X19839090Y-13297910D01*
X19870910Y-13297910D01*
X19148000Y-13429500D02*
X19180500Y-13397000D01*
X19148000Y-13364500D01*
X19115500Y-13397000D01*
X19148000Y-13429500D01*
X19115500Y-13367000D02*
X19115500Y-13427000D01*
X19180500Y-13427000D02*
G75*
G02*
X19115500Y-13427000I-32500J0D01*
G01*
X19180500Y-13427000D02*
X19180500Y-13367000D01*
X19180500Y-13367000D02*
G75*
G03*
X19115500Y-13367000I-32500J0D01*
G01*
X19148000Y-13902500D02*
X19180500Y-13870000D01*
X19148000Y-13837500D01*
X19115500Y-13870000D01*
X19148000Y-13902500D01*
X19115500Y-13840000D02*
X19115500Y-13900000D01*
X19180500Y-13900000D02*
G75*
G02*
X19115500Y-13900000I-32500J0D01*
G01*
X19180500Y-13900000D02*
X19180500Y-13840000D01*
X19180500Y-13840000D02*
G75*
G03*
X19115500Y-13840000I-32500J0D01*
G01*
X20002000Y-13429500D02*
X20034500Y-13397000D01*
X20002000Y-13364500D01*
X19969500Y-13397000D01*
X20002000Y-13429500D01*
X19969500Y-13367000D02*
X19969500Y-13427000D01*
X20034500Y-13427000D02*
G75*
G02*
X19969500Y-13427000I-32500J0D01*
G01*
X20034500Y-13427000D02*
X20034500Y-13367000D01*
X20034500Y-13367000D02*
G75*
G03*
X19969500Y-13367000I-32500J0D01*
G01*
X20002000Y-13902500D02*
X20034500Y-13870000D01*
X20002000Y-13837500D01*
X19969500Y-13870000D01*
X20002000Y-13902500D01*
X19969500Y-13840000D02*
X19969500Y-13900000D01*
X20034500Y-13900000D02*
G75*
G02*
X19969500Y-13900000I-32500J0D01*
G01*
X20034500Y-13900000D02*
X20034500Y-13840000D01*
X20034500Y-13840000D02*
G75*
G03*
X19969500Y-13840000I-32500J0D01*
G01*
X11789550Y-12151550D02*
X11878450Y-12240450D01*
X11878450Y-12151550D02*
X11789550Y-12240450D01*
X11878450Y-12196000D02*
G75*
G02*
X11789550Y-12196000I-44450J0D01*
G01*
X11789550Y-12196000D02*
G75*
G02*
X11878450Y-12196000I44450J0D01*
G01*
X11789550Y-12405550D02*
X11878450Y-12494450D01*
X11878450Y-12405550D02*
X11789550Y-12494450D01*
X11878450Y-12450000D02*
G75*
G02*
X11789550Y-12450000I-44450J0D01*
G01*
X11789550Y-12450000D02*
G75*
G02*
X11878450Y-12450000I44450J0D01*
G01*
X11789550Y-12659550D02*
X11878450Y-12748450D01*
X11878450Y-12659550D02*
X11789550Y-12748450D01*
X11878450Y-12704000D02*
G75*
G02*
X11789550Y-12704000I-44450J0D01*
G01*
X11789550Y-12704000D02*
G75*
G02*
X11878450Y-12704000I44450J0D01*
G01*
X12551550Y-13421550D02*
X12640450Y-13510450D01*
X12640450Y-13421550D02*
X12551550Y-13510450D01*
X12640450Y-13466000D02*
G75*
G02*
X12551550Y-13466000I-44450J0D01*
G01*
X12551550Y-13466000D02*
G75*
G02*
X12640450Y-13466000I44450J0D01*
G01*
X12805550Y-13421550D02*
X12894450Y-13510450D01*
X12894450Y-13421550D02*
X12805550Y-13510450D01*
X12894450Y-13466000D02*
G75*
G02*
X12805550Y-13466000I-44450J0D01*
G01*
X12805550Y-13466000D02*
G75*
G02*
X12894450Y-13466000I44450J0D01*
G01*
X13059550Y-13421550D02*
X13148450Y-13510450D01*
X13148450Y-13421550D02*
X13059550Y-13510450D01*
X13148450Y-13466000D02*
G75*
G02*
X13059550Y-13466000I-44450J0D01*
G01*
X13059550Y-13466000D02*
G75*
G02*
X13148450Y-13466000I44450J0D01*
G01*
X21389550Y-12051550D02*
X21478450Y-12140450D01*
X21478450Y-12051550D02*
X21389550Y-12140450D01*
X21478450Y-12096000D02*
G75*
G02*
X21389550Y-12096000I-44450J0D01*
G01*
X21389550Y-12096000D02*
G75*
G02*
X21478450Y-12096000I44450J0D01*
G01*
X21389550Y-12305550D02*
X21478450Y-12394450D01*
X21478450Y-12305550D02*
X21389550Y-12394450D01*
X21478450Y-12350000D02*
G75*
G02*
X21389550Y-12350000I-44450J0D01*
G01*
X21389550Y-12350000D02*
G75*
G02*
X21478450Y-12350000I44450J0D01*
G01*
X21389550Y-12559550D02*
X21478450Y-12648450D01*
X21478450Y-12559550D02*
X21389550Y-12648450D01*
X21478450Y-12604000D02*
G75*
G02*
X21389550Y-12604000I-44450J0D01*
G01*
X21389550Y-12604000D02*
G75*
G02*
X21478450Y-12604000I44450J0D01*
G01*
X22151550Y-13321550D02*
X22240450Y-13410450D01*
X22240450Y-13321550D02*
X22151550Y-13410450D01*
X22240450Y-13366000D02*
G75*
G02*
X22151550Y-13366000I-44450J0D01*
G01*
X22151550Y-13366000D02*
G75*
G02*
X22240450Y-13366000I44450J0D01*
G01*
X22405550Y-13321550D02*
X22494450Y-13410450D01*
X22494450Y-13321550D02*
X22405550Y-13410450D01*
X22494450Y-13366000D02*
G75*
G02*
X22405550Y-13366000I-44450J0D01*
G01*
X22405550Y-13366000D02*
G75*
G02*
X22494450Y-13366000I44450J0D01*
G01*
X22659550Y-13321550D02*
X22748450Y-13410450D01*
X22748450Y-13321550D02*
X22659550Y-13410450D01*
X22748450Y-13366000D02*
G75*
G02*
X22659550Y-13366000I-44450J0D01*
G01*
X22659550Y-13366000D02*
G75*
G02*
X22748450Y-13366000I44450J0D01*
G01*
X12487500Y-11135000D02*
X12577500Y-11225000D01*
X12577500Y-11135000D02*
X12487500Y-11225000D01*
X12532500Y-11135000D02*
X12532500Y-11225000D01*
X12487500Y-11180000D02*
X12577500Y-11180000D01*
X12487500Y-11643000D02*
X12577500Y-11733000D01*
X12577500Y-11643000D02*
X12487500Y-11733000D01*
X12532500Y-11643000D02*
X12532500Y-11733000D01*
X12487500Y-11688000D02*
X12577500Y-11688000D01*
X13122500Y-11135000D02*
X13212500Y-11225000D01*
X13212500Y-11135000D02*
X13122500Y-11225000D01*
X13167500Y-11135000D02*
X13167500Y-11225000D01*
X13122500Y-11180000D02*
X13212500Y-11180000D01*
X13122500Y-11643000D02*
X13212500Y-11733000D01*
X13212500Y-11643000D02*
X13122500Y-11733000D01*
X13167500Y-11643000D02*
X13167500Y-11733000D01*
X13122500Y-11688000D02*
X13212500Y-11688000D01*
X22087500Y-11035000D02*
X22177500Y-11125000D01*
X22177500Y-11035000D02*
X22087500Y-11125000D01*
X22132500Y-11035000D02*
X22132500Y-11125000D01*
X22087500Y-11080000D02*
X22177500Y-11080000D01*
X22087500Y-11543000D02*
X22177500Y-11633000D01*
X22177500Y-11543000D02*
X22087500Y-11633000D01*
X22132500Y-11543000D02*
X22132500Y-11633000D01*
X22087500Y-11588000D02*
X22177500Y-11588000D01*
X22722500Y-11035000D02*
X22812500Y-11125000D01*
X22812500Y-11035000D02*
X22722500Y-11125000D01*
X22767500Y-11035000D02*
X22767500Y-11125000D01*
X22722500Y-11080000D02*
X22812500Y-11080000D01*
X22722500Y-11543000D02*
X22812500Y-11633000D01*
X22812500Y-11543000D02*
X22722500Y-11633000D01*
X22767500Y-11543000D02*
X22767500Y-11633000D01*
X22722500Y-11588000D02*
X22812500Y-11588000D01*
D13*
X12018150Y-11713400D02*
X12157850Y-11853100D01*
X12157850Y-11713400D02*
X12018150Y-11853100D01*
X12137392Y-11832642D02*
X12137392Y-11733858D01*
X12038608Y-11733858D01*
X12038608Y-11832642D01*
X12137392Y-11832642D01*
X12018150Y-13046900D02*
X12157850Y-13186600D01*
X12157850Y-13046900D02*
X12018150Y-13186600D01*
X12137392Y-13166142D02*
X12137392Y-13067358D01*
X12038608Y-13067358D01*
X12038608Y-13166142D01*
X12137392Y-13166142D01*
X13542150Y-11713400D02*
X13681850Y-11853100D01*
X13681850Y-11713400D02*
X13542150Y-11853100D01*
X13661392Y-11832642D02*
X13661392Y-11733858D01*
X13562608Y-11733858D01*
X13562608Y-11832642D01*
X13661392Y-11832642D01*
X13542150Y-13046900D02*
X13681850Y-13186600D01*
X13681850Y-13046900D02*
X13542150Y-13186600D01*
X13661392Y-13166142D02*
X13661392Y-13067358D01*
X13562608Y-13067358D01*
X13562608Y-13166142D01*
X13661392Y-13166142D01*
X21618150Y-11613400D02*
X21757850Y-11753100D01*
X21757850Y-11613400D02*
X21618150Y-11753100D01*
X21737392Y-11732642D02*
X21737392Y-11633858D01*
X21638608Y-11633858D01*
X21638608Y-11732642D01*
X21737392Y-11732642D01*
X21618150Y-12946900D02*
X21757850Y-13086600D01*
X21757850Y-12946900D02*
X21618150Y-13086600D01*
X21737392Y-13066142D02*
X21737392Y-12967358D01*
X21638608Y-12967358D01*
X21638608Y-13066142D01*
X21737392Y-13066142D01*
X23142150Y-11613400D02*
X23281850Y-11753100D01*
X23281850Y-11613400D02*
X23142150Y-11753100D01*
X23261392Y-11732642D02*
X23261392Y-11633858D01*
X23162608Y-11633858D01*
X23162608Y-11732642D01*
X23261392Y-11732642D01*
X23142150Y-12946900D02*
X23281850Y-13086600D01*
X23281850Y-12946900D02*
X23142150Y-13086600D01*
X23261392Y-13066142D02*
X23261392Y-12967358D01*
X23162608Y-12967358D01*
X23162608Y-13066142D01*
X23261392Y-13066142D01*
D11*
X10563119Y-14663984D02*
X10563119Y-14463984D01*
X10563119Y-14463984D02*
X10610738Y-14463984D01*
X10610738Y-14463984D02*
X10639310Y-14473508D01*
X10639310Y-14473508D02*
X10658358Y-14492555D01*
X10658358Y-14492555D02*
X10667881Y-14511603D01*
X10667881Y-14511603D02*
X10677405Y-14549698D01*
X10677405Y-14549698D02*
X10677405Y-14578269D01*
X10677405Y-14578269D02*
X10667881Y-14616365D01*
X10667881Y-14616365D02*
X10658358Y-14635412D01*
X10658358Y-14635412D02*
X10639310Y-14654460D01*
X10639310Y-14654460D02*
X10610738Y-14663984D01*
X10610738Y-14663984D02*
X10563119Y-14663984D01*
X10763119Y-14663984D02*
X10763119Y-14530650D01*
X10763119Y-14568746D02*
X10772643Y-14549698D01*
X10772643Y-14549698D02*
X10782167Y-14540174D01*
X10782167Y-14540174D02*
X10801215Y-14530650D01*
X10801215Y-14530650D02*
X10820262Y-14530650D01*
X10886929Y-14663984D02*
X10886929Y-14530650D01*
X10886929Y-14463984D02*
X10877405Y-14473508D01*
X10877405Y-14473508D02*
X10886929Y-14483031D01*
X10886929Y-14483031D02*
X10896453Y-14473508D01*
X10896453Y-14473508D02*
X10886929Y-14463984D01*
X10886929Y-14463984D02*
X10886929Y-14483031D01*
X11010738Y-14663984D02*
X10991691Y-14654460D01*
X10991691Y-14654460D02*
X10982167Y-14635412D01*
X10982167Y-14635412D02*
X10982167Y-14463984D01*
X11115500Y-14663984D02*
X11096453Y-14654460D01*
X11096453Y-14654460D02*
X11086929Y-14635412D01*
X11086929Y-14635412D02*
X11086929Y-14463984D01*
X11344072Y-14663984D02*
X11344072Y-14463984D01*
X11344072Y-14463984D02*
X11410738Y-14606841D01*
X11410738Y-14606841D02*
X11477405Y-14463984D01*
X11477405Y-14463984D02*
X11477405Y-14663984D01*
X11658357Y-14663984D02*
X11658357Y-14559222D01*
X11658357Y-14559222D02*
X11648834Y-14540174D01*
X11648834Y-14540174D02*
X11629786Y-14530650D01*
X11629786Y-14530650D02*
X11591691Y-14530650D01*
X11591691Y-14530650D02*
X11572643Y-14540174D01*
X11658357Y-14654460D02*
X11639310Y-14663984D01*
X11639310Y-14663984D02*
X11591691Y-14663984D01*
X11591691Y-14663984D02*
X11572643Y-14654460D01*
X11572643Y-14654460D02*
X11563119Y-14635412D01*
X11563119Y-14635412D02*
X11563119Y-14616365D01*
X11563119Y-14616365D02*
X11572643Y-14597317D01*
X11572643Y-14597317D02*
X11591691Y-14587793D01*
X11591691Y-14587793D02*
X11639310Y-14587793D01*
X11639310Y-14587793D02*
X11658357Y-14578269D01*
X11753596Y-14530650D02*
X11753596Y-14730650D01*
X11753596Y-14540174D02*
X11772643Y-14530650D01*
X11772643Y-14530650D02*
X11810738Y-14530650D01*
X11810738Y-14530650D02*
X11829786Y-14540174D01*
X11829786Y-14540174D02*
X11839310Y-14549698D01*
X11839310Y-14549698D02*
X11848834Y-14568746D01*
X11848834Y-14568746D02*
X11848834Y-14625888D01*
X11848834Y-14625888D02*
X11839310Y-14644936D01*
X11839310Y-14644936D02*
X11829786Y-14654460D01*
X11829786Y-14654460D02*
X11810738Y-14663984D01*
X11810738Y-14663984D02*
X11772643Y-14663984D01*
X11772643Y-14663984D02*
X11753596Y-14654460D01*
X11934548Y-14644936D02*
X11944072Y-14654460D01*
X11944072Y-14654460D02*
X11934548Y-14663984D01*
X11934548Y-14663984D02*
X11925024Y-14654460D01*
X11925024Y-14654460D02*
X11934548Y-14644936D01*
X11934548Y-14644936D02*
X11934548Y-14663984D01*
X11934548Y-14540174D02*
X11944072Y-14549698D01*
X11944072Y-14549698D02*
X11934548Y-14559222D01*
X11934548Y-14559222D02*
X11925024Y-14549698D01*
X11925024Y-14549698D02*
X11934548Y-14540174D01*
X11934548Y-14540174D02*
X11934548Y-14559222D01*
D12*
X10272343Y-14977500D02*
X10302343Y-15007500D01*
X10302343Y-14977500D02*
X10272343Y-15007500D01*
D11*
X10601215Y-14883984D02*
X10620262Y-14883984D01*
X10620262Y-14883984D02*
X10639310Y-14893508D01*
X10639310Y-14893508D02*
X10648834Y-14903031D01*
X10648834Y-14903031D02*
X10658358Y-14922079D01*
X10658358Y-14922079D02*
X10667881Y-14960174D01*
X10667881Y-14960174D02*
X10667881Y-15007793D01*
X10667881Y-15007793D02*
X10658358Y-15045888D01*
X10658358Y-15045888D02*
X10648834Y-15064936D01*
X10648834Y-15064936D02*
X10639310Y-15074460D01*
X10639310Y-15074460D02*
X10620262Y-15083984D01*
X10620262Y-15083984D02*
X10601215Y-15083984D01*
X10601215Y-15083984D02*
X10582167Y-15074460D01*
X10582167Y-15074460D02*
X10572643Y-15064936D01*
X10572643Y-15064936D02*
X10563119Y-15045888D01*
X10563119Y-15045888D02*
X10553596Y-15007793D01*
X10553596Y-15007793D02*
X10553596Y-14960174D01*
X10553596Y-14960174D02*
X10563119Y-14922079D01*
X10563119Y-14922079D02*
X10572643Y-14903031D01*
X10572643Y-14903031D02*
X10582167Y-14893508D01*
X10582167Y-14893508D02*
X10601215Y-14883984D01*
X10753596Y-15064936D02*
X10763119Y-15074460D01*
X10763119Y-15074460D02*
X10753596Y-15083984D01*
X10753596Y-15083984D02*
X10744072Y-15074460D01*
X10744072Y-15074460D02*
X10753596Y-15064936D01*
X10753596Y-15064936D02*
X10753596Y-15083984D01*
X10829786Y-14883984D02*
X10953596Y-14883984D01*
X10953596Y-14883984D02*
X10886929Y-14960174D01*
X10886929Y-14960174D02*
X10915500Y-14960174D01*
X10915500Y-14960174D02*
X10934548Y-14969698D01*
X10934548Y-14969698D02*
X10944072Y-14979222D01*
X10944072Y-14979222D02*
X10953596Y-14998269D01*
X10953596Y-14998269D02*
X10953596Y-15045888D01*
X10953596Y-15045888D02*
X10944072Y-15064936D01*
X10944072Y-15064936D02*
X10934548Y-15074460D01*
X10934548Y-15074460D02*
X10915500Y-15083984D01*
X10915500Y-15083984D02*
X10858358Y-15083984D01*
X10858358Y-15083984D02*
X10839310Y-15074460D01*
X10839310Y-15074460D02*
X10829786Y-15064936D01*
X11077405Y-14883984D02*
X11096453Y-14883984D01*
X11096453Y-14883984D02*
X11115500Y-14893508D01*
X11115500Y-14893508D02*
X11125024Y-14903031D01*
X11125024Y-14903031D02*
X11134548Y-14922079D01*
X11134548Y-14922079D02*
X11144072Y-14960174D01*
X11144072Y-14960174D02*
X11144072Y-15007793D01*
X11144072Y-15007793D02*
X11134548Y-15045888D01*
X11134548Y-15045888D02*
X11125024Y-15064936D01*
X11125024Y-15064936D02*
X11115500Y-15074460D01*
X11115500Y-15074460D02*
X11096453Y-15083984D01*
X11096453Y-15083984D02*
X11077405Y-15083984D01*
X11077405Y-15083984D02*
X11058358Y-15074460D01*
X11058358Y-15074460D02*
X11048834Y-15064936D01*
X11048834Y-15064936D02*
X11039310Y-15045888D01*
X11039310Y-15045888D02*
X11029786Y-15007793D01*
X11029786Y-15007793D02*
X11029786Y-14960174D01*
X11029786Y-14960174D02*
X11039310Y-14922079D01*
X11039310Y-14922079D02*
X11048834Y-14903031D01*
X11048834Y-14903031D02*
X11058358Y-14893508D01*
X11058358Y-14893508D02*
X11077405Y-14883984D01*
X11267881Y-14883984D02*
X11286929Y-14883984D01*
X11286929Y-14883984D02*
X11305977Y-14893508D01*
X11305977Y-14893508D02*
X11315500Y-14903031D01*
X11315500Y-14903031D02*
X11325024Y-14922079D01*
X11325024Y-14922079D02*
X11334548Y-14960174D01*
X11334548Y-14960174D02*
X11334548Y-15007793D01*
X11334548Y-15007793D02*
X11325024Y-15045888D01*
X11325024Y-15045888D02*
X11315500Y-15064936D01*
X11315500Y-15064936D02*
X11305977Y-15074460D01*
X11305977Y-15074460D02*
X11286929Y-15083984D01*
X11286929Y-15083984D02*
X11267881Y-15083984D01*
X11267881Y-15083984D02*
X11248834Y-15074460D01*
X11248834Y-15074460D02*
X11239310Y-15064936D01*
X11239310Y-15064936D02*
X11229786Y-15045888D01*
X11229786Y-15045888D02*
X11220262Y-15007793D01*
X11220262Y-15007793D02*
X11220262Y-14960174D01*
X11220262Y-14960174D02*
X11229786Y-14922079D01*
X11229786Y-14922079D02*
X11239310Y-14903031D01*
X11239310Y-14903031D02*
X11248834Y-14893508D01*
X11248834Y-14893508D02*
X11267881Y-14883984D01*
X11420262Y-15083984D02*
X11420262Y-14950650D01*
X11420262Y-14969698D02*
X11429786Y-14960174D01*
X11429786Y-14960174D02*
X11448834Y-14950650D01*
X11448834Y-14950650D02*
X11477405Y-14950650D01*
X11477405Y-14950650D02*
X11496453Y-14960174D01*
X11496453Y-14960174D02*
X11505977Y-14979222D01*
X11505977Y-14979222D02*
X11505977Y-15083984D01*
X11505977Y-14979222D02*
X11515500Y-14960174D01*
X11515500Y-14960174D02*
X11534548Y-14950650D01*
X11534548Y-14950650D02*
X11563119Y-14950650D01*
X11563119Y-14950650D02*
X11582167Y-14960174D01*
X11582167Y-14960174D02*
X11591691Y-14979222D01*
X11591691Y-14979222D02*
X11591691Y-15083984D01*
X11686929Y-15083984D02*
X11686929Y-14950650D01*
X11686929Y-14969698D02*
X11696453Y-14960174D01*
X11696453Y-14960174D02*
X11715500Y-14950650D01*
X11715500Y-14950650D02*
X11744072Y-14950650D01*
X11744072Y-14950650D02*
X11763119Y-14960174D01*
X11763119Y-14960174D02*
X11772643Y-14979222D01*
X11772643Y-14979222D02*
X11772643Y-15083984D01*
X11772643Y-14979222D02*
X11782167Y-14960174D01*
X11782167Y-14960174D02*
X11801215Y-14950650D01*
X11801215Y-14950650D02*
X11829786Y-14950650D01*
X11829786Y-14950650D02*
X11848834Y-14960174D01*
X11848834Y-14960174D02*
X11858358Y-14979222D01*
X11858358Y-14979222D02*
X11858358Y-15083984D01*
X12248834Y-14874460D02*
X12077405Y-15131603D01*
X12505977Y-14883984D02*
X12525024Y-14883984D01*
X12525024Y-14883984D02*
X12544072Y-14893508D01*
X12544072Y-14893508D02*
X12553596Y-14903031D01*
X12553596Y-14903031D02*
X12563120Y-14922079D01*
X12563120Y-14922079D02*
X12572643Y-14960174D01*
X12572643Y-14960174D02*
X12572643Y-15007793D01*
X12572643Y-15007793D02*
X12563120Y-15045888D01*
X12563120Y-15045888D02*
X12553596Y-15064936D01*
X12553596Y-15064936D02*
X12544072Y-15074460D01*
X12544072Y-15074460D02*
X12525024Y-15083984D01*
X12525024Y-15083984D02*
X12505977Y-15083984D01*
X12505977Y-15083984D02*
X12486929Y-15074460D01*
X12486929Y-15074460D02*
X12477405Y-15064936D01*
X12477405Y-15064936D02*
X12467881Y-15045888D01*
X12467881Y-15045888D02*
X12458358Y-15007793D01*
X12458358Y-15007793D02*
X12458358Y-14960174D01*
X12458358Y-14960174D02*
X12467881Y-14922079D01*
X12467881Y-14922079D02*
X12477405Y-14903031D01*
X12477405Y-14903031D02*
X12486929Y-14893508D01*
X12486929Y-14893508D02*
X12505977Y-14883984D01*
X12658358Y-15064936D02*
X12667881Y-15074460D01*
X12667881Y-15074460D02*
X12658358Y-15083984D01*
X12658358Y-15083984D02*
X12648834Y-15074460D01*
X12648834Y-15074460D02*
X12658358Y-15064936D01*
X12658358Y-15064936D02*
X12658358Y-15083984D01*
X12791691Y-14883984D02*
X12810739Y-14883984D01*
X12810739Y-14883984D02*
X12829786Y-14893508D01*
X12829786Y-14893508D02*
X12839310Y-14903031D01*
X12839310Y-14903031D02*
X12848834Y-14922079D01*
X12848834Y-14922079D02*
X12858358Y-14960174D01*
X12858358Y-14960174D02*
X12858358Y-15007793D01*
X12858358Y-15007793D02*
X12848834Y-15045888D01*
X12848834Y-15045888D02*
X12839310Y-15064936D01*
X12839310Y-15064936D02*
X12829786Y-15074460D01*
X12829786Y-15074460D02*
X12810739Y-15083984D01*
X12810739Y-15083984D02*
X12791691Y-15083984D01*
X12791691Y-15083984D02*
X12772643Y-15074460D01*
X12772643Y-15074460D02*
X12763120Y-15064936D01*
X12763120Y-15064936D02*
X12753596Y-15045888D01*
X12753596Y-15045888D02*
X12744072Y-15007793D01*
X12744072Y-15007793D02*
X12744072Y-14960174D01*
X12744072Y-14960174D02*
X12753596Y-14922079D01*
X12753596Y-14922079D02*
X12763120Y-14903031D01*
X12763120Y-14903031D02*
X12772643Y-14893508D01*
X12772643Y-14893508D02*
X12791691Y-14883984D01*
X13048834Y-15083984D02*
X12934548Y-15083984D01*
X12991691Y-15083984D02*
X12991691Y-14883984D01*
X12991691Y-14883984D02*
X12972643Y-14912555D01*
X12972643Y-14912555D02*
X12953596Y-14931603D01*
X12953596Y-14931603D02*
X12934548Y-14941127D01*
X13239310Y-15083984D02*
X13125024Y-15083984D01*
X13182167Y-15083984D02*
X13182167Y-14883984D01*
X13182167Y-14883984D02*
X13163120Y-14912555D01*
X13163120Y-14912555D02*
X13144072Y-14931603D01*
X13144072Y-14931603D02*
X13125024Y-14941127D01*
X13353596Y-14969698D02*
X13334548Y-14960174D01*
X13334548Y-14960174D02*
X13325024Y-14950650D01*
X13325024Y-14950650D02*
X13315501Y-14931603D01*
X13315501Y-14931603D02*
X13315501Y-14922079D01*
X13315501Y-14922079D02*
X13325024Y-14903031D01*
X13325024Y-14903031D02*
X13334548Y-14893508D01*
X13334548Y-14893508D02*
X13353596Y-14883984D01*
X13353596Y-14883984D02*
X13391691Y-14883984D01*
X13391691Y-14883984D02*
X13410739Y-14893508D01*
X13410739Y-14893508D02*
X13420262Y-14903031D01*
X13420262Y-14903031D02*
X13429786Y-14922079D01*
X13429786Y-14922079D02*
X13429786Y-14931603D01*
X13429786Y-14931603D02*
X13420262Y-14950650D01*
X13420262Y-14950650D02*
X13410739Y-14960174D01*
X13410739Y-14960174D02*
X13391691Y-14969698D01*
X13391691Y-14969698D02*
X13353596Y-14969698D01*
X13353596Y-14969698D02*
X13334548Y-14979222D01*
X13334548Y-14979222D02*
X13325024Y-14988746D01*
X13325024Y-14988746D02*
X13315501Y-15007793D01*
X13315501Y-15007793D02*
X13315501Y-15045888D01*
X13315501Y-15045888D02*
X13325024Y-15064936D01*
X13325024Y-15064936D02*
X13334548Y-15074460D01*
X13334548Y-15074460D02*
X13353596Y-15083984D01*
X13353596Y-15083984D02*
X13391691Y-15083984D01*
X13391691Y-15083984D02*
X13410739Y-15074460D01*
X13410739Y-15074460D02*
X13420262Y-15064936D01*
X13420262Y-15064936D02*
X13429786Y-15045888D01*
X13429786Y-15045888D02*
X13429786Y-15007793D01*
X13429786Y-15007793D02*
X13420262Y-14988746D01*
X13420262Y-14988746D02*
X13410739Y-14979222D01*
X13410739Y-14979222D02*
X13391691Y-14969698D01*
X13505977Y-14883984D02*
X13505977Y-14922079D01*
X13582167Y-14883984D02*
X13582167Y-14922079D01*
X13877405Y-15160174D02*
X13867882Y-15150650D01*
X13867882Y-15150650D02*
X13848834Y-15122079D01*
X13848834Y-15122079D02*
X13839310Y-15103031D01*
X13839310Y-15103031D02*
X13829786Y-15074460D01*
X13829786Y-15074460D02*
X13820263Y-15026841D01*
X13820263Y-15026841D02*
X13820263Y-14988746D01*
X13820263Y-14988746D02*
X13829786Y-14941127D01*
X13829786Y-14941127D02*
X13839310Y-14912555D01*
X13839310Y-14912555D02*
X13848834Y-14893508D01*
X13848834Y-14893508D02*
X13867882Y-14864936D01*
X13867882Y-14864936D02*
X13877405Y-14855412D01*
X14058358Y-15083984D02*
X13944072Y-15083984D01*
X14001215Y-15083984D02*
X14001215Y-14883984D01*
X14001215Y-14883984D02*
X13982167Y-14912555D01*
X13982167Y-14912555D02*
X13963120Y-14931603D01*
X13963120Y-14931603D02*
X13944072Y-14941127D01*
X14229786Y-14950650D02*
X14229786Y-15083984D01*
X14182167Y-14874460D02*
X14134548Y-15017317D01*
X14134548Y-15017317D02*
X14258358Y-15017317D01*
X14486929Y-15083984D02*
X14486929Y-14883984D01*
X14572644Y-15083984D02*
X14572644Y-14979222D01*
X14572644Y-14979222D02*
X14563120Y-14960174D01*
X14563120Y-14960174D02*
X14544072Y-14950650D01*
X14544072Y-14950650D02*
X14515501Y-14950650D01*
X14515501Y-14950650D02*
X14496453Y-14960174D01*
X14496453Y-14960174D02*
X14486929Y-14969698D01*
X14696453Y-15083984D02*
X14677405Y-15074460D01*
X14677405Y-15074460D02*
X14667882Y-15064936D01*
X14667882Y-15064936D02*
X14658358Y-15045888D01*
X14658358Y-15045888D02*
X14658358Y-14988746D01*
X14658358Y-14988746D02*
X14667882Y-14969698D01*
X14667882Y-14969698D02*
X14677405Y-14960174D01*
X14677405Y-14960174D02*
X14696453Y-14950650D01*
X14696453Y-14950650D02*
X14725025Y-14950650D01*
X14725025Y-14950650D02*
X14744072Y-14960174D01*
X14744072Y-14960174D02*
X14753596Y-14969698D01*
X14753596Y-14969698D02*
X14763120Y-14988746D01*
X14763120Y-14988746D02*
X14763120Y-15045888D01*
X14763120Y-15045888D02*
X14753596Y-15064936D01*
X14753596Y-15064936D02*
X14744072Y-15074460D01*
X14744072Y-15074460D02*
X14725025Y-15083984D01*
X14725025Y-15083984D02*
X14696453Y-15083984D01*
X14877405Y-15083984D02*
X14858358Y-15074460D01*
X14858358Y-15074460D02*
X14848834Y-15055412D01*
X14848834Y-15055412D02*
X14848834Y-14883984D01*
X15029786Y-15074460D02*
X15010739Y-15083984D01*
X15010739Y-15083984D02*
X14972644Y-15083984D01*
X14972644Y-15083984D02*
X14953596Y-15074460D01*
X14953596Y-15074460D02*
X14944072Y-15055412D01*
X14944072Y-15055412D02*
X14944072Y-14979222D01*
X14944072Y-14979222D02*
X14953596Y-14960174D01*
X14953596Y-14960174D02*
X14972644Y-14950650D01*
X14972644Y-14950650D02*
X15010739Y-14950650D01*
X15010739Y-14950650D02*
X15029786Y-14960174D01*
X15029786Y-14960174D02*
X15039310Y-14979222D01*
X15039310Y-14979222D02*
X15039310Y-14998269D01*
X15039310Y-14998269D02*
X14944072Y-15017317D01*
X15115501Y-15074460D02*
X15134548Y-15083984D01*
X15134548Y-15083984D02*
X15172644Y-15083984D01*
X15172644Y-15083984D02*
X15191691Y-15074460D01*
X15191691Y-15074460D02*
X15201215Y-15055412D01*
X15201215Y-15055412D02*
X15201215Y-15045888D01*
X15201215Y-15045888D02*
X15191691Y-15026841D01*
X15191691Y-15026841D02*
X15172644Y-15017317D01*
X15172644Y-15017317D02*
X15144072Y-15017317D01*
X15144072Y-15017317D02*
X15125025Y-15007793D01*
X15125025Y-15007793D02*
X15115501Y-14988746D01*
X15115501Y-14988746D02*
X15115501Y-14979222D01*
X15115501Y-14979222D02*
X15125025Y-14960174D01*
X15125025Y-14960174D02*
X15144072Y-14950650D01*
X15144072Y-14950650D02*
X15172644Y-14950650D01*
X15172644Y-14950650D02*
X15191691Y-14960174D01*
X15267882Y-15160174D02*
X15277406Y-15150650D01*
X15277406Y-15150650D02*
X15296453Y-15122079D01*
X15296453Y-15122079D02*
X15305977Y-15103031D01*
X15305977Y-15103031D02*
X15315501Y-15074460D01*
X15315501Y-15074460D02*
X15325025Y-15026841D01*
X15325025Y-15026841D02*
X15325025Y-14988746D01*
X15325025Y-14988746D02*
X15315501Y-14941127D01*
X15315501Y-14941127D02*
X15305977Y-14912555D01*
X15305977Y-14912555D02*
X15296453Y-14893508D01*
X15296453Y-14893508D02*
X15277406Y-14864936D01*
X15277406Y-14864936D02*
X15267882Y-14855412D01*
D12*
X10302343Y-15256500D02*
G75*
G02*
X10272343Y-15256500I-15000J0D01*
G01*
X10272343Y-15256500D02*
G75*
G02*
X10302343Y-15256500I15000J0D01*
G01*
D11*
X10601215Y-15147984D02*
X10620262Y-15147984D01*
X10620262Y-15147984D02*
X10639310Y-15157508D01*
X10639310Y-15157508D02*
X10648834Y-15167031D01*
X10648834Y-15167031D02*
X10658358Y-15186079D01*
X10658358Y-15186079D02*
X10667881Y-15224174D01*
X10667881Y-15224174D02*
X10667881Y-15271793D01*
X10667881Y-15271793D02*
X10658358Y-15309888D01*
X10658358Y-15309888D02*
X10648834Y-15328936D01*
X10648834Y-15328936D02*
X10639310Y-15338460D01*
X10639310Y-15338460D02*
X10620262Y-15347984D01*
X10620262Y-15347984D02*
X10601215Y-15347984D01*
X10601215Y-15347984D02*
X10582167Y-15338460D01*
X10582167Y-15338460D02*
X10572643Y-15328936D01*
X10572643Y-15328936D02*
X10563119Y-15309888D01*
X10563119Y-15309888D02*
X10553596Y-15271793D01*
X10553596Y-15271793D02*
X10553596Y-15224174D01*
X10553596Y-15224174D02*
X10563119Y-15186079D01*
X10563119Y-15186079D02*
X10572643Y-15167031D01*
X10572643Y-15167031D02*
X10582167Y-15157508D01*
X10582167Y-15157508D02*
X10601215Y-15147984D01*
X10753596Y-15328936D02*
X10763119Y-15338460D01*
X10763119Y-15338460D02*
X10753596Y-15347984D01*
X10753596Y-15347984D02*
X10744072Y-15338460D01*
X10744072Y-15338460D02*
X10753596Y-15328936D01*
X10753596Y-15328936D02*
X10753596Y-15347984D01*
X10829786Y-15147984D02*
X10953596Y-15147984D01*
X10953596Y-15147984D02*
X10886929Y-15224174D01*
X10886929Y-15224174D02*
X10915500Y-15224174D01*
X10915500Y-15224174D02*
X10934548Y-15233698D01*
X10934548Y-15233698D02*
X10944072Y-15243222D01*
X10944072Y-15243222D02*
X10953596Y-15262269D01*
X10953596Y-15262269D02*
X10953596Y-15309888D01*
X10953596Y-15309888D02*
X10944072Y-15328936D01*
X10944072Y-15328936D02*
X10934548Y-15338460D01*
X10934548Y-15338460D02*
X10915500Y-15347984D01*
X10915500Y-15347984D02*
X10858358Y-15347984D01*
X10858358Y-15347984D02*
X10839310Y-15338460D01*
X10839310Y-15338460D02*
X10829786Y-15328936D01*
X11077405Y-15147984D02*
X11096453Y-15147984D01*
X11096453Y-15147984D02*
X11115500Y-15157508D01*
X11115500Y-15157508D02*
X11125024Y-15167031D01*
X11125024Y-15167031D02*
X11134548Y-15186079D01*
X11134548Y-15186079D02*
X11144072Y-15224174D01*
X11144072Y-15224174D02*
X11144072Y-15271793D01*
X11144072Y-15271793D02*
X11134548Y-15309888D01*
X11134548Y-15309888D02*
X11125024Y-15328936D01*
X11125024Y-15328936D02*
X11115500Y-15338460D01*
X11115500Y-15338460D02*
X11096453Y-15347984D01*
X11096453Y-15347984D02*
X11077405Y-15347984D01*
X11077405Y-15347984D02*
X11058358Y-15338460D01*
X11058358Y-15338460D02*
X11048834Y-15328936D01*
X11048834Y-15328936D02*
X11039310Y-15309888D01*
X11039310Y-15309888D02*
X11029786Y-15271793D01*
X11029786Y-15271793D02*
X11029786Y-15224174D01*
X11029786Y-15224174D02*
X11039310Y-15186079D01*
X11039310Y-15186079D02*
X11048834Y-15167031D01*
X11048834Y-15167031D02*
X11058358Y-15157508D01*
X11058358Y-15157508D02*
X11077405Y-15147984D01*
X11267881Y-15147984D02*
X11286929Y-15147984D01*
X11286929Y-15147984D02*
X11305977Y-15157508D01*
X11305977Y-15157508D02*
X11315500Y-15167031D01*
X11315500Y-15167031D02*
X11325024Y-15186079D01*
X11325024Y-15186079D02*
X11334548Y-15224174D01*
X11334548Y-15224174D02*
X11334548Y-15271793D01*
X11334548Y-15271793D02*
X11325024Y-15309888D01*
X11325024Y-15309888D02*
X11315500Y-15328936D01*
X11315500Y-15328936D02*
X11305977Y-15338460D01*
X11305977Y-15338460D02*
X11286929Y-15347984D01*
X11286929Y-15347984D02*
X11267881Y-15347984D01*
X11267881Y-15347984D02*
X11248834Y-15338460D01*
X11248834Y-15338460D02*
X11239310Y-15328936D01*
X11239310Y-15328936D02*
X11229786Y-15309888D01*
X11229786Y-15309888D02*
X11220262Y-15271793D01*
X11220262Y-15271793D02*
X11220262Y-15224174D01*
X11220262Y-15224174D02*
X11229786Y-15186079D01*
X11229786Y-15186079D02*
X11239310Y-15167031D01*
X11239310Y-15167031D02*
X11248834Y-15157508D01*
X11248834Y-15157508D02*
X11267881Y-15147984D01*
X11420262Y-15347984D02*
X11420262Y-15214650D01*
X11420262Y-15233698D02*
X11429786Y-15224174D01*
X11429786Y-15224174D02*
X11448834Y-15214650D01*
X11448834Y-15214650D02*
X11477405Y-15214650D01*
X11477405Y-15214650D02*
X11496453Y-15224174D01*
X11496453Y-15224174D02*
X11505977Y-15243222D01*
X11505977Y-15243222D02*
X11505977Y-15347984D01*
X11505977Y-15243222D02*
X11515500Y-15224174D01*
X11515500Y-15224174D02*
X11534548Y-15214650D01*
X11534548Y-15214650D02*
X11563119Y-15214650D01*
X11563119Y-15214650D02*
X11582167Y-15224174D01*
X11582167Y-15224174D02*
X11591691Y-15243222D01*
X11591691Y-15243222D02*
X11591691Y-15347984D01*
X11686929Y-15347984D02*
X11686929Y-15214650D01*
X11686929Y-15233698D02*
X11696453Y-15224174D01*
X11696453Y-15224174D02*
X11715500Y-15214650D01*
X11715500Y-15214650D02*
X11744072Y-15214650D01*
X11744072Y-15214650D02*
X11763119Y-15224174D01*
X11763119Y-15224174D02*
X11772643Y-15243222D01*
X11772643Y-15243222D02*
X11772643Y-15347984D01*
X11772643Y-15243222D02*
X11782167Y-15224174D01*
X11782167Y-15224174D02*
X11801215Y-15214650D01*
X11801215Y-15214650D02*
X11829786Y-15214650D01*
X11829786Y-15214650D02*
X11848834Y-15224174D01*
X11848834Y-15224174D02*
X11858358Y-15243222D01*
X11858358Y-15243222D02*
X11858358Y-15347984D01*
X12248834Y-15138460D02*
X12077405Y-15395603D01*
X12505977Y-15147984D02*
X12525024Y-15147984D01*
X12525024Y-15147984D02*
X12544072Y-15157508D01*
X12544072Y-15157508D02*
X12553596Y-15167031D01*
X12553596Y-15167031D02*
X12563120Y-15186079D01*
X12563120Y-15186079D02*
X12572643Y-15224174D01*
X12572643Y-15224174D02*
X12572643Y-15271793D01*
X12572643Y-15271793D02*
X12563120Y-15309888D01*
X12563120Y-15309888D02*
X12553596Y-15328936D01*
X12553596Y-15328936D02*
X12544072Y-15338460D01*
X12544072Y-15338460D02*
X12525024Y-15347984D01*
X12525024Y-15347984D02*
X12505977Y-15347984D01*
X12505977Y-15347984D02*
X12486929Y-15338460D01*
X12486929Y-15338460D02*
X12477405Y-15328936D01*
X12477405Y-15328936D02*
X12467881Y-15309888D01*
X12467881Y-15309888D02*
X12458358Y-15271793D01*
X12458358Y-15271793D02*
X12458358Y-15224174D01*
X12458358Y-15224174D02*
X12467881Y-15186079D01*
X12467881Y-15186079D02*
X12477405Y-15167031D01*
X12477405Y-15167031D02*
X12486929Y-15157508D01*
X12486929Y-15157508D02*
X12505977Y-15147984D01*
X12658358Y-15328936D02*
X12667881Y-15338460D01*
X12667881Y-15338460D02*
X12658358Y-15347984D01*
X12658358Y-15347984D02*
X12648834Y-15338460D01*
X12648834Y-15338460D02*
X12658358Y-15328936D01*
X12658358Y-15328936D02*
X12658358Y-15347984D01*
X12791691Y-15147984D02*
X12810739Y-15147984D01*
X12810739Y-15147984D02*
X12829786Y-15157508D01*
X12829786Y-15157508D02*
X12839310Y-15167031D01*
X12839310Y-15167031D02*
X12848834Y-15186079D01*
X12848834Y-15186079D02*
X12858358Y-15224174D01*
X12858358Y-15224174D02*
X12858358Y-15271793D01*
X12858358Y-15271793D02*
X12848834Y-15309888D01*
X12848834Y-15309888D02*
X12839310Y-15328936D01*
X12839310Y-15328936D02*
X12829786Y-15338460D01*
X12829786Y-15338460D02*
X12810739Y-15347984D01*
X12810739Y-15347984D02*
X12791691Y-15347984D01*
X12791691Y-15347984D02*
X12772643Y-15338460D01*
X12772643Y-15338460D02*
X12763120Y-15328936D01*
X12763120Y-15328936D02*
X12753596Y-15309888D01*
X12753596Y-15309888D02*
X12744072Y-15271793D01*
X12744072Y-15271793D02*
X12744072Y-15224174D01*
X12744072Y-15224174D02*
X12753596Y-15186079D01*
X12753596Y-15186079D02*
X12763120Y-15167031D01*
X12763120Y-15167031D02*
X12772643Y-15157508D01*
X12772643Y-15157508D02*
X12791691Y-15147984D01*
X13048834Y-15347984D02*
X12934548Y-15347984D01*
X12991691Y-15347984D02*
X12991691Y-15147984D01*
X12991691Y-15147984D02*
X12972643Y-15176555D01*
X12972643Y-15176555D02*
X12953596Y-15195603D01*
X12953596Y-15195603D02*
X12934548Y-15205127D01*
X13239310Y-15347984D02*
X13125024Y-15347984D01*
X13182167Y-15347984D02*
X13182167Y-15147984D01*
X13182167Y-15147984D02*
X13163120Y-15176555D01*
X13163120Y-15176555D02*
X13144072Y-15195603D01*
X13144072Y-15195603D02*
X13125024Y-15205127D01*
X13353596Y-15233698D02*
X13334548Y-15224174D01*
X13334548Y-15224174D02*
X13325024Y-15214650D01*
X13325024Y-15214650D02*
X13315501Y-15195603D01*
X13315501Y-15195603D02*
X13315501Y-15186079D01*
X13315501Y-15186079D02*
X13325024Y-15167031D01*
X13325024Y-15167031D02*
X13334548Y-15157508D01*
X13334548Y-15157508D02*
X13353596Y-15147984D01*
X13353596Y-15147984D02*
X13391691Y-15147984D01*
X13391691Y-15147984D02*
X13410739Y-15157508D01*
X13410739Y-15157508D02*
X13420262Y-15167031D01*
X13420262Y-15167031D02*
X13429786Y-15186079D01*
X13429786Y-15186079D02*
X13429786Y-15195603D01*
X13429786Y-15195603D02*
X13420262Y-15214650D01*
X13420262Y-15214650D02*
X13410739Y-15224174D01*
X13410739Y-15224174D02*
X13391691Y-15233698D01*
X13391691Y-15233698D02*
X13353596Y-15233698D01*
X13353596Y-15233698D02*
X13334548Y-15243222D01*
X13334548Y-15243222D02*
X13325024Y-15252746D01*
X13325024Y-15252746D02*
X13315501Y-15271793D01*
X13315501Y-15271793D02*
X13315501Y-15309888D01*
X13315501Y-15309888D02*
X13325024Y-15328936D01*
X13325024Y-15328936D02*
X13334548Y-15338460D01*
X13334548Y-15338460D02*
X13353596Y-15347984D01*
X13353596Y-15347984D02*
X13391691Y-15347984D01*
X13391691Y-15347984D02*
X13410739Y-15338460D01*
X13410739Y-15338460D02*
X13420262Y-15328936D01*
X13420262Y-15328936D02*
X13429786Y-15309888D01*
X13429786Y-15309888D02*
X13429786Y-15271793D01*
X13429786Y-15271793D02*
X13420262Y-15252746D01*
X13420262Y-15252746D02*
X13410739Y-15243222D01*
X13410739Y-15243222D02*
X13391691Y-15233698D01*
X13505977Y-15147984D02*
X13505977Y-15186079D01*
X13582167Y-15147984D02*
X13582167Y-15186079D01*
X13877405Y-15424174D02*
X13867882Y-15414650D01*
X13867882Y-15414650D02*
X13848834Y-15386079D01*
X13848834Y-15386079D02*
X13839310Y-15367031D01*
X13839310Y-15367031D02*
X13829786Y-15338460D01*
X13829786Y-15338460D02*
X13820263Y-15290841D01*
X13820263Y-15290841D02*
X13820263Y-15252746D01*
X13820263Y-15252746D02*
X13829786Y-15205127D01*
X13829786Y-15205127D02*
X13839310Y-15176555D01*
X13839310Y-15176555D02*
X13848834Y-15157508D01*
X13848834Y-15157508D02*
X13867882Y-15128936D01*
X13867882Y-15128936D02*
X13877405Y-15119412D01*
X14058358Y-15347984D02*
X13944072Y-15347984D01*
X14001215Y-15347984D02*
X14001215Y-15147984D01*
X14001215Y-15147984D02*
X13982167Y-15176555D01*
X13982167Y-15176555D02*
X13963120Y-15195603D01*
X13963120Y-15195603D02*
X13944072Y-15205127D01*
X14134548Y-15167031D02*
X14144072Y-15157508D01*
X14144072Y-15157508D02*
X14163120Y-15147984D01*
X14163120Y-15147984D02*
X14210739Y-15147984D01*
X14210739Y-15147984D02*
X14229786Y-15157508D01*
X14229786Y-15157508D02*
X14239310Y-15167031D01*
X14239310Y-15167031D02*
X14248834Y-15186079D01*
X14248834Y-15186079D02*
X14248834Y-15205127D01*
X14248834Y-15205127D02*
X14239310Y-15233698D01*
X14239310Y-15233698D02*
X14125024Y-15347984D01*
X14125024Y-15347984D02*
X14248834Y-15347984D01*
X14486929Y-15347984D02*
X14486929Y-15147984D01*
X14572644Y-15347984D02*
X14572644Y-15243222D01*
X14572644Y-15243222D02*
X14563120Y-15224174D01*
X14563120Y-15224174D02*
X14544072Y-15214650D01*
X14544072Y-15214650D02*
X14515501Y-15214650D01*
X14515501Y-15214650D02*
X14496453Y-15224174D01*
X14496453Y-15224174D02*
X14486929Y-15233698D01*
X14696453Y-15347984D02*
X14677405Y-15338460D01*
X14677405Y-15338460D02*
X14667882Y-15328936D01*
X14667882Y-15328936D02*
X14658358Y-15309888D01*
X14658358Y-15309888D02*
X14658358Y-15252746D01*
X14658358Y-15252746D02*
X14667882Y-15233698D01*
X14667882Y-15233698D02*
X14677405Y-15224174D01*
X14677405Y-15224174D02*
X14696453Y-15214650D01*
X14696453Y-15214650D02*
X14725025Y-15214650D01*
X14725025Y-15214650D02*
X14744072Y-15224174D01*
X14744072Y-15224174D02*
X14753596Y-15233698D01*
X14753596Y-15233698D02*
X14763120Y-15252746D01*
X14763120Y-15252746D02*
X14763120Y-15309888D01*
X14763120Y-15309888D02*
X14753596Y-15328936D01*
X14753596Y-15328936D02*
X14744072Y-15338460D01*
X14744072Y-15338460D02*
X14725025Y-15347984D01*
X14725025Y-15347984D02*
X14696453Y-15347984D01*
X14877405Y-15347984D02*
X14858358Y-15338460D01*
X14858358Y-15338460D02*
X14848834Y-15319412D01*
X14848834Y-15319412D02*
X14848834Y-15147984D01*
X15029786Y-15338460D02*
X15010739Y-15347984D01*
X15010739Y-15347984D02*
X14972644Y-15347984D01*
X14972644Y-15347984D02*
X14953596Y-15338460D01*
X14953596Y-15338460D02*
X14944072Y-15319412D01*
X14944072Y-15319412D02*
X14944072Y-15243222D01*
X14944072Y-15243222D02*
X14953596Y-15224174D01*
X14953596Y-15224174D02*
X14972644Y-15214650D01*
X14972644Y-15214650D02*
X15010739Y-15214650D01*
X15010739Y-15214650D02*
X15029786Y-15224174D01*
X15029786Y-15224174D02*
X15039310Y-15243222D01*
X15039310Y-15243222D02*
X15039310Y-15262269D01*
X15039310Y-15262269D02*
X14944072Y-15281317D01*
X15115501Y-15338460D02*
X15134548Y-15347984D01*
X15134548Y-15347984D02*
X15172644Y-15347984D01*
X15172644Y-15347984D02*
X15191691Y-15338460D01*
X15191691Y-15338460D02*
X15201215Y-15319412D01*
X15201215Y-15319412D02*
X15201215Y-15309888D01*
X15201215Y-15309888D02*
X15191691Y-15290841D01*
X15191691Y-15290841D02*
X15172644Y-15281317D01*
X15172644Y-15281317D02*
X15144072Y-15281317D01*
X15144072Y-15281317D02*
X15125025Y-15271793D01*
X15125025Y-15271793D02*
X15115501Y-15252746D01*
X15115501Y-15252746D02*
X15115501Y-15243222D01*
X15115501Y-15243222D02*
X15125025Y-15224174D01*
X15125025Y-15224174D02*
X15144072Y-15214650D01*
X15144072Y-15214650D02*
X15172644Y-15214650D01*
X15172644Y-15214650D02*
X15191691Y-15224174D01*
X15267882Y-15424174D02*
X15277406Y-15414650D01*
X15277406Y-15414650D02*
X15296453Y-15386079D01*
X15296453Y-15386079D02*
X15305977Y-15367031D01*
X15305977Y-15367031D02*
X15315501Y-15338460D01*
X15315501Y-15338460D02*
X15325025Y-15290841D01*
X15325025Y-15290841D02*
X15325025Y-15252746D01*
X15325025Y-15252746D02*
X15315501Y-15205127D01*
X15315501Y-15205127D02*
X15305977Y-15176555D01*
X15305977Y-15176555D02*
X15296453Y-15157508D01*
X15296453Y-15157508D02*
X15277406Y-15128936D01*
X15277406Y-15128936D02*
X15267882Y-15119412D01*
D12*
X10282343Y-15500500D02*
X10282343Y-15540500D01*
X10262343Y-15520500D02*
X10302343Y-15520500D01*
D11*
X10601215Y-15411984D02*
X10620262Y-15411984D01*
X10620262Y-15411984D02*
X10639310Y-15421508D01*
X10639310Y-15421508D02*
X10648834Y-15431031D01*
X10648834Y-15431031D02*
X10658358Y-15450079D01*
X10658358Y-15450079D02*
X10667881Y-15488174D01*
X10667881Y-15488174D02*
X10667881Y-15535793D01*
X10667881Y-15535793D02*
X10658358Y-15573888D01*
X10658358Y-15573888D02*
X10648834Y-15592936D01*
X10648834Y-15592936D02*
X10639310Y-15602460D01*
X10639310Y-15602460D02*
X10620262Y-15611984D01*
X10620262Y-15611984D02*
X10601215Y-15611984D01*
X10601215Y-15611984D02*
X10582167Y-15602460D01*
X10582167Y-15602460D02*
X10572643Y-15592936D01*
X10572643Y-15592936D02*
X10563119Y-15573888D01*
X10563119Y-15573888D02*
X10553596Y-15535793D01*
X10553596Y-15535793D02*
X10553596Y-15488174D01*
X10553596Y-15488174D02*
X10563119Y-15450079D01*
X10563119Y-15450079D02*
X10572643Y-15431031D01*
X10572643Y-15431031D02*
X10582167Y-15421508D01*
X10582167Y-15421508D02*
X10601215Y-15411984D01*
X10753596Y-15592936D02*
X10763119Y-15602460D01*
X10763119Y-15602460D02*
X10753596Y-15611984D01*
X10753596Y-15611984D02*
X10744072Y-15602460D01*
X10744072Y-15602460D02*
X10753596Y-15592936D01*
X10753596Y-15592936D02*
X10753596Y-15611984D01*
X10934548Y-15478650D02*
X10934548Y-15611984D01*
X10886929Y-15402460D02*
X10839310Y-15545317D01*
X10839310Y-15545317D02*
X10963119Y-15545317D01*
X11077405Y-15411984D02*
X11096453Y-15411984D01*
X11096453Y-15411984D02*
X11115500Y-15421508D01*
X11115500Y-15421508D02*
X11125024Y-15431031D01*
X11125024Y-15431031D02*
X11134548Y-15450079D01*
X11134548Y-15450079D02*
X11144072Y-15488174D01*
X11144072Y-15488174D02*
X11144072Y-15535793D01*
X11144072Y-15535793D02*
X11134548Y-15573888D01*
X11134548Y-15573888D02*
X11125024Y-15592936D01*
X11125024Y-15592936D02*
X11115500Y-15602460D01*
X11115500Y-15602460D02*
X11096453Y-15611984D01*
X11096453Y-15611984D02*
X11077405Y-15611984D01*
X11077405Y-15611984D02*
X11058358Y-15602460D01*
X11058358Y-15602460D02*
X11048834Y-15592936D01*
X11048834Y-15592936D02*
X11039310Y-15573888D01*
X11039310Y-15573888D02*
X11029786Y-15535793D01*
X11029786Y-15535793D02*
X11029786Y-15488174D01*
X11029786Y-15488174D02*
X11039310Y-15450079D01*
X11039310Y-15450079D02*
X11048834Y-15431031D01*
X11048834Y-15431031D02*
X11058358Y-15421508D01*
X11058358Y-15421508D02*
X11077405Y-15411984D01*
X11267881Y-15411984D02*
X11286929Y-15411984D01*
X11286929Y-15411984D02*
X11305977Y-15421508D01*
X11305977Y-15421508D02*
X11315500Y-15431031D01*
X11315500Y-15431031D02*
X11325024Y-15450079D01*
X11325024Y-15450079D02*
X11334548Y-15488174D01*
X11334548Y-15488174D02*
X11334548Y-15535793D01*
X11334548Y-15535793D02*
X11325024Y-15573888D01*
X11325024Y-15573888D02*
X11315500Y-15592936D01*
X11315500Y-15592936D02*
X11305977Y-15602460D01*
X11305977Y-15602460D02*
X11286929Y-15611984D01*
X11286929Y-15611984D02*
X11267881Y-15611984D01*
X11267881Y-15611984D02*
X11248834Y-15602460D01*
X11248834Y-15602460D02*
X11239310Y-15592936D01*
X11239310Y-15592936D02*
X11229786Y-15573888D01*
X11229786Y-15573888D02*
X11220262Y-15535793D01*
X11220262Y-15535793D02*
X11220262Y-15488174D01*
X11220262Y-15488174D02*
X11229786Y-15450079D01*
X11229786Y-15450079D02*
X11239310Y-15431031D01*
X11239310Y-15431031D02*
X11248834Y-15421508D01*
X11248834Y-15421508D02*
X11267881Y-15411984D01*
X11420262Y-15611984D02*
X11420262Y-15478650D01*
X11420262Y-15497698D02*
X11429786Y-15488174D01*
X11429786Y-15488174D02*
X11448834Y-15478650D01*
X11448834Y-15478650D02*
X11477405Y-15478650D01*
X11477405Y-15478650D02*
X11496453Y-15488174D01*
X11496453Y-15488174D02*
X11505977Y-15507222D01*
X11505977Y-15507222D02*
X11505977Y-15611984D01*
X11505977Y-15507222D02*
X11515500Y-15488174D01*
X11515500Y-15488174D02*
X11534548Y-15478650D01*
X11534548Y-15478650D02*
X11563119Y-15478650D01*
X11563119Y-15478650D02*
X11582167Y-15488174D01*
X11582167Y-15488174D02*
X11591691Y-15507222D01*
X11591691Y-15507222D02*
X11591691Y-15611984D01*
X11686929Y-15611984D02*
X11686929Y-15478650D01*
X11686929Y-15497698D02*
X11696453Y-15488174D01*
X11696453Y-15488174D02*
X11715500Y-15478650D01*
X11715500Y-15478650D02*
X11744072Y-15478650D01*
X11744072Y-15478650D02*
X11763119Y-15488174D01*
X11763119Y-15488174D02*
X11772643Y-15507222D01*
X11772643Y-15507222D02*
X11772643Y-15611984D01*
X11772643Y-15507222D02*
X11782167Y-15488174D01*
X11782167Y-15488174D02*
X11801215Y-15478650D01*
X11801215Y-15478650D02*
X11829786Y-15478650D01*
X11829786Y-15478650D02*
X11848834Y-15488174D01*
X11848834Y-15488174D02*
X11858358Y-15507222D01*
X11858358Y-15507222D02*
X11858358Y-15611984D01*
X12248834Y-15402460D02*
X12077405Y-15659603D01*
X12505977Y-15411984D02*
X12525024Y-15411984D01*
X12525024Y-15411984D02*
X12544072Y-15421508D01*
X12544072Y-15421508D02*
X12553596Y-15431031D01*
X12553596Y-15431031D02*
X12563120Y-15450079D01*
X12563120Y-15450079D02*
X12572643Y-15488174D01*
X12572643Y-15488174D02*
X12572643Y-15535793D01*
X12572643Y-15535793D02*
X12563120Y-15573888D01*
X12563120Y-15573888D02*
X12553596Y-15592936D01*
X12553596Y-15592936D02*
X12544072Y-15602460D01*
X12544072Y-15602460D02*
X12525024Y-15611984D01*
X12525024Y-15611984D02*
X12505977Y-15611984D01*
X12505977Y-15611984D02*
X12486929Y-15602460D01*
X12486929Y-15602460D02*
X12477405Y-15592936D01*
X12477405Y-15592936D02*
X12467881Y-15573888D01*
X12467881Y-15573888D02*
X12458358Y-15535793D01*
X12458358Y-15535793D02*
X12458358Y-15488174D01*
X12458358Y-15488174D02*
X12467881Y-15450079D01*
X12467881Y-15450079D02*
X12477405Y-15431031D01*
X12477405Y-15431031D02*
X12486929Y-15421508D01*
X12486929Y-15421508D02*
X12505977Y-15411984D01*
X12658358Y-15592936D02*
X12667881Y-15602460D01*
X12667881Y-15602460D02*
X12658358Y-15611984D01*
X12658358Y-15611984D02*
X12648834Y-15602460D01*
X12648834Y-15602460D02*
X12658358Y-15592936D01*
X12658358Y-15592936D02*
X12658358Y-15611984D01*
X12791691Y-15411984D02*
X12810739Y-15411984D01*
X12810739Y-15411984D02*
X12829786Y-15421508D01*
X12829786Y-15421508D02*
X12839310Y-15431031D01*
X12839310Y-15431031D02*
X12848834Y-15450079D01*
X12848834Y-15450079D02*
X12858358Y-15488174D01*
X12858358Y-15488174D02*
X12858358Y-15535793D01*
X12858358Y-15535793D02*
X12848834Y-15573888D01*
X12848834Y-15573888D02*
X12839310Y-15592936D01*
X12839310Y-15592936D02*
X12829786Y-15602460D01*
X12829786Y-15602460D02*
X12810739Y-15611984D01*
X12810739Y-15611984D02*
X12791691Y-15611984D01*
X12791691Y-15611984D02*
X12772643Y-15602460D01*
X12772643Y-15602460D02*
X12763120Y-15592936D01*
X12763120Y-15592936D02*
X12753596Y-15573888D01*
X12753596Y-15573888D02*
X12744072Y-15535793D01*
X12744072Y-15535793D02*
X12744072Y-15488174D01*
X12744072Y-15488174D02*
X12753596Y-15450079D01*
X12753596Y-15450079D02*
X12763120Y-15431031D01*
X12763120Y-15431031D02*
X12772643Y-15421508D01*
X12772643Y-15421508D02*
X12791691Y-15411984D01*
X13048834Y-15611984D02*
X12934548Y-15611984D01*
X12991691Y-15611984D02*
X12991691Y-15411984D01*
X12991691Y-15411984D02*
X12972643Y-15440555D01*
X12972643Y-15440555D02*
X12953596Y-15459603D01*
X12953596Y-15459603D02*
X12934548Y-15469127D01*
X13229786Y-15411984D02*
X13134548Y-15411984D01*
X13134548Y-15411984D02*
X13125024Y-15507222D01*
X13125024Y-15507222D02*
X13134548Y-15497698D01*
X13134548Y-15497698D02*
X13153596Y-15488174D01*
X13153596Y-15488174D02*
X13201215Y-15488174D01*
X13201215Y-15488174D02*
X13220262Y-15497698D01*
X13220262Y-15497698D02*
X13229786Y-15507222D01*
X13229786Y-15507222D02*
X13239310Y-15526269D01*
X13239310Y-15526269D02*
X13239310Y-15573888D01*
X13239310Y-15573888D02*
X13229786Y-15592936D01*
X13229786Y-15592936D02*
X13220262Y-15602460D01*
X13220262Y-15602460D02*
X13201215Y-15611984D01*
X13201215Y-15611984D02*
X13153596Y-15611984D01*
X13153596Y-15611984D02*
X13134548Y-15602460D01*
X13134548Y-15602460D02*
X13125024Y-15592936D01*
X13305977Y-15411984D02*
X13439310Y-15411984D01*
X13439310Y-15411984D02*
X13353596Y-15611984D01*
X13505977Y-15411984D02*
X13505977Y-15450079D01*
X13582167Y-15411984D02*
X13582167Y-15450079D01*
X13877405Y-15688174D02*
X13867882Y-15678650D01*
X13867882Y-15678650D02*
X13848834Y-15650079D01*
X13848834Y-15650079D02*
X13839310Y-15631031D01*
X13839310Y-15631031D02*
X13829786Y-15602460D01*
X13829786Y-15602460D02*
X13820263Y-15554841D01*
X13820263Y-15554841D02*
X13820263Y-15516746D01*
X13820263Y-15516746D02*
X13829786Y-15469127D01*
X13829786Y-15469127D02*
X13839310Y-15440555D01*
X13839310Y-15440555D02*
X13848834Y-15421508D01*
X13848834Y-15421508D02*
X13867882Y-15392936D01*
X13867882Y-15392936D02*
X13877405Y-15383412D01*
X14058358Y-15611984D02*
X13944072Y-15611984D01*
X14001215Y-15611984D02*
X14001215Y-15411984D01*
X14001215Y-15411984D02*
X13982167Y-15440555D01*
X13982167Y-15440555D02*
X13963120Y-15459603D01*
X13963120Y-15459603D02*
X13944072Y-15469127D01*
X14134548Y-15431031D02*
X14144072Y-15421508D01*
X14144072Y-15421508D02*
X14163120Y-15411984D01*
X14163120Y-15411984D02*
X14210739Y-15411984D01*
X14210739Y-15411984D02*
X14229786Y-15421508D01*
X14229786Y-15421508D02*
X14239310Y-15431031D01*
X14239310Y-15431031D02*
X14248834Y-15450079D01*
X14248834Y-15450079D02*
X14248834Y-15469127D01*
X14248834Y-15469127D02*
X14239310Y-15497698D01*
X14239310Y-15497698D02*
X14125024Y-15611984D01*
X14125024Y-15611984D02*
X14248834Y-15611984D01*
X14439310Y-15611984D02*
X14325024Y-15611984D01*
X14382167Y-15611984D02*
X14382167Y-15411984D01*
X14382167Y-15411984D02*
X14363120Y-15440555D01*
X14363120Y-15440555D02*
X14344072Y-15459603D01*
X14344072Y-15459603D02*
X14325024Y-15469127D01*
X14677405Y-15611984D02*
X14677405Y-15411984D01*
X14763120Y-15611984D02*
X14763120Y-15507222D01*
X14763120Y-15507222D02*
X14753596Y-15488174D01*
X14753596Y-15488174D02*
X14734548Y-15478650D01*
X14734548Y-15478650D02*
X14705977Y-15478650D01*
X14705977Y-15478650D02*
X14686929Y-15488174D01*
X14686929Y-15488174D02*
X14677405Y-15497698D01*
X14886929Y-15611984D02*
X14867882Y-15602460D01*
X14867882Y-15602460D02*
X14858358Y-15592936D01*
X14858358Y-15592936D02*
X14848834Y-15573888D01*
X14848834Y-15573888D02*
X14848834Y-15516746D01*
X14848834Y-15516746D02*
X14858358Y-15497698D01*
X14858358Y-15497698D02*
X14867882Y-15488174D01*
X14867882Y-15488174D02*
X14886929Y-15478650D01*
X14886929Y-15478650D02*
X14915501Y-15478650D01*
X14915501Y-15478650D02*
X14934548Y-15488174D01*
X14934548Y-15488174D02*
X14944072Y-15497698D01*
X14944072Y-15497698D02*
X14953596Y-15516746D01*
X14953596Y-15516746D02*
X14953596Y-15573888D01*
X14953596Y-15573888D02*
X14944072Y-15592936D01*
X14944072Y-15592936D02*
X14934548Y-15602460D01*
X14934548Y-15602460D02*
X14915501Y-15611984D01*
X14915501Y-15611984D02*
X14886929Y-15611984D01*
X15067882Y-15611984D02*
X15048834Y-15602460D01*
X15048834Y-15602460D02*
X15039310Y-15583412D01*
X15039310Y-15583412D02*
X15039310Y-15411984D01*
X15220263Y-15602460D02*
X15201215Y-15611984D01*
X15201215Y-15611984D02*
X15163120Y-15611984D01*
X15163120Y-15611984D02*
X15144072Y-15602460D01*
X15144072Y-15602460D02*
X15134548Y-15583412D01*
X15134548Y-15583412D02*
X15134548Y-15507222D01*
X15134548Y-15507222D02*
X15144072Y-15488174D01*
X15144072Y-15488174D02*
X15163120Y-15478650D01*
X15163120Y-15478650D02*
X15201215Y-15478650D01*
X15201215Y-15478650D02*
X15220263Y-15488174D01*
X15220263Y-15488174D02*
X15229786Y-15507222D01*
X15229786Y-15507222D02*
X15229786Y-15526269D01*
X15229786Y-15526269D02*
X15134548Y-15545317D01*
X15305977Y-15602460D02*
X15325025Y-15611984D01*
X15325025Y-15611984D02*
X15363120Y-15611984D01*
X15363120Y-15611984D02*
X15382167Y-15602460D01*
X15382167Y-15602460D02*
X15391691Y-15583412D01*
X15391691Y-15583412D02*
X15391691Y-15573888D01*
X15391691Y-15573888D02*
X15382167Y-15554841D01*
X15382167Y-15554841D02*
X15363120Y-15545317D01*
X15363120Y-15545317D02*
X15334548Y-15545317D01*
X15334548Y-15545317D02*
X15315501Y-15535793D01*
X15315501Y-15535793D02*
X15305977Y-15516746D01*
X15305977Y-15516746D02*
X15305977Y-15507222D01*
X15305977Y-15507222D02*
X15315501Y-15488174D01*
X15315501Y-15488174D02*
X15334548Y-15478650D01*
X15334548Y-15478650D02*
X15363120Y-15478650D01*
X15363120Y-15478650D02*
X15382167Y-15488174D01*
X15458358Y-15688174D02*
X15467882Y-15678650D01*
X15467882Y-15678650D02*
X15486929Y-15650079D01*
X15486929Y-15650079D02*
X15496453Y-15631031D01*
X15496453Y-15631031D02*
X15505977Y-15602460D01*
X15505977Y-15602460D02*
X15515501Y-15554841D01*
X15515501Y-15554841D02*
X15515501Y-15516746D01*
X15515501Y-15516746D02*
X15505977Y-15469127D01*
X15505977Y-15469127D02*
X15496453Y-15440555D01*
X15496453Y-15440555D02*
X15486929Y-15421508D01*
X15486929Y-15421508D02*
X15467882Y-15392936D01*
X15467882Y-15392936D02*
X15458358Y-15383412D01*
D12*
X10295753Y-15800410D02*
X10295753Y-15768590D01*
X10263933Y-15768590D01*
X10263933Y-15800410D01*
X10295753Y-15800410D01*
D11*
X10601215Y-15675984D02*
X10620262Y-15675984D01*
X10620262Y-15675984D02*
X10639310Y-15685508D01*
X10639310Y-15685508D02*
X10648834Y-15695031D01*
X10648834Y-15695031D02*
X10658358Y-15714079D01*
X10658358Y-15714079D02*
X10667881Y-15752174D01*
X10667881Y-15752174D02*
X10667881Y-15799793D01*
X10667881Y-15799793D02*
X10658358Y-15837888D01*
X10658358Y-15837888D02*
X10648834Y-15856936D01*
X10648834Y-15856936D02*
X10639310Y-15866460D01*
X10639310Y-15866460D02*
X10620262Y-15875984D01*
X10620262Y-15875984D02*
X10601215Y-15875984D01*
X10601215Y-15875984D02*
X10582167Y-15866460D01*
X10582167Y-15866460D02*
X10572643Y-15856936D01*
X10572643Y-15856936D02*
X10563119Y-15837888D01*
X10563119Y-15837888D02*
X10553596Y-15799793D01*
X10553596Y-15799793D02*
X10553596Y-15752174D01*
X10553596Y-15752174D02*
X10563119Y-15714079D01*
X10563119Y-15714079D02*
X10572643Y-15695031D01*
X10572643Y-15695031D02*
X10582167Y-15685508D01*
X10582167Y-15685508D02*
X10601215Y-15675984D01*
X10753596Y-15856936D02*
X10763119Y-15866460D01*
X10763119Y-15866460D02*
X10753596Y-15875984D01*
X10753596Y-15875984D02*
X10744072Y-15866460D01*
X10744072Y-15866460D02*
X10753596Y-15856936D01*
X10753596Y-15856936D02*
X10753596Y-15875984D01*
X10934548Y-15742650D02*
X10934548Y-15875984D01*
X10886929Y-15666460D02*
X10839310Y-15809317D01*
X10839310Y-15809317D02*
X10963119Y-15809317D01*
X11134548Y-15675984D02*
X11039310Y-15675984D01*
X11039310Y-15675984D02*
X11029786Y-15771222D01*
X11029786Y-15771222D02*
X11039310Y-15761698D01*
X11039310Y-15761698D02*
X11058358Y-15752174D01*
X11058358Y-15752174D02*
X11105977Y-15752174D01*
X11105977Y-15752174D02*
X11125024Y-15761698D01*
X11125024Y-15761698D02*
X11134548Y-15771222D01*
X11134548Y-15771222D02*
X11144072Y-15790269D01*
X11144072Y-15790269D02*
X11144072Y-15837888D01*
X11144072Y-15837888D02*
X11134548Y-15856936D01*
X11134548Y-15856936D02*
X11125024Y-15866460D01*
X11125024Y-15866460D02*
X11105977Y-15875984D01*
X11105977Y-15875984D02*
X11058358Y-15875984D01*
X11058358Y-15875984D02*
X11039310Y-15866460D01*
X11039310Y-15866460D02*
X11029786Y-15856936D01*
X11267881Y-15675984D02*
X11286929Y-15675984D01*
X11286929Y-15675984D02*
X11305977Y-15685508D01*
X11305977Y-15685508D02*
X11315500Y-15695031D01*
X11315500Y-15695031D02*
X11325024Y-15714079D01*
X11325024Y-15714079D02*
X11334548Y-15752174D01*
X11334548Y-15752174D02*
X11334548Y-15799793D01*
X11334548Y-15799793D02*
X11325024Y-15837888D01*
X11325024Y-15837888D02*
X11315500Y-15856936D01*
X11315500Y-15856936D02*
X11305977Y-15866460D01*
X11305977Y-15866460D02*
X11286929Y-15875984D01*
X11286929Y-15875984D02*
X11267881Y-15875984D01*
X11267881Y-15875984D02*
X11248834Y-15866460D01*
X11248834Y-15866460D02*
X11239310Y-15856936D01*
X11239310Y-15856936D02*
X11229786Y-15837888D01*
X11229786Y-15837888D02*
X11220262Y-15799793D01*
X11220262Y-15799793D02*
X11220262Y-15752174D01*
X11220262Y-15752174D02*
X11229786Y-15714079D01*
X11229786Y-15714079D02*
X11239310Y-15695031D01*
X11239310Y-15695031D02*
X11248834Y-15685508D01*
X11248834Y-15685508D02*
X11267881Y-15675984D01*
X11420262Y-15875984D02*
X11420262Y-15742650D01*
X11420262Y-15761698D02*
X11429786Y-15752174D01*
X11429786Y-15752174D02*
X11448834Y-15742650D01*
X11448834Y-15742650D02*
X11477405Y-15742650D01*
X11477405Y-15742650D02*
X11496453Y-15752174D01*
X11496453Y-15752174D02*
X11505977Y-15771222D01*
X11505977Y-15771222D02*
X11505977Y-15875984D01*
X11505977Y-15771222D02*
X11515500Y-15752174D01*
X11515500Y-15752174D02*
X11534548Y-15742650D01*
X11534548Y-15742650D02*
X11563119Y-15742650D01*
X11563119Y-15742650D02*
X11582167Y-15752174D01*
X11582167Y-15752174D02*
X11591691Y-15771222D01*
X11591691Y-15771222D02*
X11591691Y-15875984D01*
X11686929Y-15875984D02*
X11686929Y-15742650D01*
X11686929Y-15761698D02*
X11696453Y-15752174D01*
X11696453Y-15752174D02*
X11715500Y-15742650D01*
X11715500Y-15742650D02*
X11744072Y-15742650D01*
X11744072Y-15742650D02*
X11763119Y-15752174D01*
X11763119Y-15752174D02*
X11772643Y-15771222D01*
X11772643Y-15771222D02*
X11772643Y-15875984D01*
X11772643Y-15771222D02*
X11782167Y-15752174D01*
X11782167Y-15752174D02*
X11801215Y-15742650D01*
X11801215Y-15742650D02*
X11829786Y-15742650D01*
X11829786Y-15742650D02*
X11848834Y-15752174D01*
X11848834Y-15752174D02*
X11858358Y-15771222D01*
X11858358Y-15771222D02*
X11858358Y-15875984D01*
X12248834Y-15666460D02*
X12077405Y-15923603D01*
X12505977Y-15675984D02*
X12525024Y-15675984D01*
X12525024Y-15675984D02*
X12544072Y-15685508D01*
X12544072Y-15685508D02*
X12553596Y-15695031D01*
X12553596Y-15695031D02*
X12563120Y-15714079D01*
X12563120Y-15714079D02*
X12572643Y-15752174D01*
X12572643Y-15752174D02*
X12572643Y-15799793D01*
X12572643Y-15799793D02*
X12563120Y-15837888D01*
X12563120Y-15837888D02*
X12553596Y-15856936D01*
X12553596Y-15856936D02*
X12544072Y-15866460D01*
X12544072Y-15866460D02*
X12525024Y-15875984D01*
X12525024Y-15875984D02*
X12505977Y-15875984D01*
X12505977Y-15875984D02*
X12486929Y-15866460D01*
X12486929Y-15866460D02*
X12477405Y-15856936D01*
X12477405Y-15856936D02*
X12467881Y-15837888D01*
X12467881Y-15837888D02*
X12458358Y-15799793D01*
X12458358Y-15799793D02*
X12458358Y-15752174D01*
X12458358Y-15752174D02*
X12467881Y-15714079D01*
X12467881Y-15714079D02*
X12477405Y-15695031D01*
X12477405Y-15695031D02*
X12486929Y-15685508D01*
X12486929Y-15685508D02*
X12505977Y-15675984D01*
X12658358Y-15856936D02*
X12667881Y-15866460D01*
X12667881Y-15866460D02*
X12658358Y-15875984D01*
X12658358Y-15875984D02*
X12648834Y-15866460D01*
X12648834Y-15866460D02*
X12658358Y-15856936D01*
X12658358Y-15856936D02*
X12658358Y-15875984D01*
X12791691Y-15675984D02*
X12810739Y-15675984D01*
X12810739Y-15675984D02*
X12829786Y-15685508D01*
X12829786Y-15685508D02*
X12839310Y-15695031D01*
X12839310Y-15695031D02*
X12848834Y-15714079D01*
X12848834Y-15714079D02*
X12858358Y-15752174D01*
X12858358Y-15752174D02*
X12858358Y-15799793D01*
X12858358Y-15799793D02*
X12848834Y-15837888D01*
X12848834Y-15837888D02*
X12839310Y-15856936D01*
X12839310Y-15856936D02*
X12829786Y-15866460D01*
X12829786Y-15866460D02*
X12810739Y-15875984D01*
X12810739Y-15875984D02*
X12791691Y-15875984D01*
X12791691Y-15875984D02*
X12772643Y-15866460D01*
X12772643Y-15866460D02*
X12763120Y-15856936D01*
X12763120Y-15856936D02*
X12753596Y-15837888D01*
X12753596Y-15837888D02*
X12744072Y-15799793D01*
X12744072Y-15799793D02*
X12744072Y-15752174D01*
X12744072Y-15752174D02*
X12753596Y-15714079D01*
X12753596Y-15714079D02*
X12763120Y-15695031D01*
X12763120Y-15695031D02*
X12772643Y-15685508D01*
X12772643Y-15685508D02*
X12791691Y-15675984D01*
X13048834Y-15875984D02*
X12934548Y-15875984D01*
X12991691Y-15875984D02*
X12991691Y-15675984D01*
X12991691Y-15675984D02*
X12972643Y-15704555D01*
X12972643Y-15704555D02*
X12953596Y-15723603D01*
X12953596Y-15723603D02*
X12934548Y-15733127D01*
X13115501Y-15675984D02*
X13248834Y-15675984D01*
X13248834Y-15675984D02*
X13163120Y-15875984D01*
X13305977Y-15675984D02*
X13439310Y-15675984D01*
X13439310Y-15675984D02*
X13353596Y-15875984D01*
X13505977Y-15675984D02*
X13505977Y-15714079D01*
X13582167Y-15675984D02*
X13582167Y-15714079D01*
X13877405Y-15952174D02*
X13867882Y-15942650D01*
X13867882Y-15942650D02*
X13848834Y-15914079D01*
X13848834Y-15914079D02*
X13839310Y-15895031D01*
X13839310Y-15895031D02*
X13829786Y-15866460D01*
X13829786Y-15866460D02*
X13820263Y-15818841D01*
X13820263Y-15818841D02*
X13820263Y-15780746D01*
X13820263Y-15780746D02*
X13829786Y-15733127D01*
X13829786Y-15733127D02*
X13839310Y-15704555D01*
X13839310Y-15704555D02*
X13848834Y-15685508D01*
X13848834Y-15685508D02*
X13867882Y-15656936D01*
X13867882Y-15656936D02*
X13877405Y-15647412D01*
X14058358Y-15875984D02*
X13944072Y-15875984D01*
X14001215Y-15875984D02*
X14001215Y-15675984D01*
X14001215Y-15675984D02*
X13982167Y-15704555D01*
X13982167Y-15704555D02*
X13963120Y-15723603D01*
X13963120Y-15723603D02*
X13944072Y-15733127D01*
X14229786Y-15742650D02*
X14229786Y-15875984D01*
X14182167Y-15666460D02*
X14134548Y-15809317D01*
X14134548Y-15809317D02*
X14258358Y-15809317D01*
X14486929Y-15875984D02*
X14486929Y-15675984D01*
X14572644Y-15875984D02*
X14572644Y-15771222D01*
X14572644Y-15771222D02*
X14563120Y-15752174D01*
X14563120Y-15752174D02*
X14544072Y-15742650D01*
X14544072Y-15742650D02*
X14515501Y-15742650D01*
X14515501Y-15742650D02*
X14496453Y-15752174D01*
X14496453Y-15752174D02*
X14486929Y-15761698D01*
X14696453Y-15875984D02*
X14677405Y-15866460D01*
X14677405Y-15866460D02*
X14667882Y-15856936D01*
X14667882Y-15856936D02*
X14658358Y-15837888D01*
X14658358Y-15837888D02*
X14658358Y-15780746D01*
X14658358Y-15780746D02*
X14667882Y-15761698D01*
X14667882Y-15761698D02*
X14677405Y-15752174D01*
X14677405Y-15752174D02*
X14696453Y-15742650D01*
X14696453Y-15742650D02*
X14725025Y-15742650D01*
X14725025Y-15742650D02*
X14744072Y-15752174D01*
X14744072Y-15752174D02*
X14753596Y-15761698D01*
X14753596Y-15761698D02*
X14763120Y-15780746D01*
X14763120Y-15780746D02*
X14763120Y-15837888D01*
X14763120Y-15837888D02*
X14753596Y-15856936D01*
X14753596Y-15856936D02*
X14744072Y-15866460D01*
X14744072Y-15866460D02*
X14725025Y-15875984D01*
X14725025Y-15875984D02*
X14696453Y-15875984D01*
X14877405Y-15875984D02*
X14858358Y-15866460D01*
X14858358Y-15866460D02*
X14848834Y-15847412D01*
X14848834Y-15847412D02*
X14848834Y-15675984D01*
X15029786Y-15866460D02*
X15010739Y-15875984D01*
X15010739Y-15875984D02*
X14972644Y-15875984D01*
X14972644Y-15875984D02*
X14953596Y-15866460D01*
X14953596Y-15866460D02*
X14944072Y-15847412D01*
X14944072Y-15847412D02*
X14944072Y-15771222D01*
X14944072Y-15771222D02*
X14953596Y-15752174D01*
X14953596Y-15752174D02*
X14972644Y-15742650D01*
X14972644Y-15742650D02*
X15010739Y-15742650D01*
X15010739Y-15742650D02*
X15029786Y-15752174D01*
X15029786Y-15752174D02*
X15039310Y-15771222D01*
X15039310Y-15771222D02*
X15039310Y-15790269D01*
X15039310Y-15790269D02*
X14944072Y-15809317D01*
X15115501Y-15866460D02*
X15134548Y-15875984D01*
X15134548Y-15875984D02*
X15172644Y-15875984D01*
X15172644Y-15875984D02*
X15191691Y-15866460D01*
X15191691Y-15866460D02*
X15201215Y-15847412D01*
X15201215Y-15847412D02*
X15201215Y-15837888D01*
X15201215Y-15837888D02*
X15191691Y-15818841D01*
X15191691Y-15818841D02*
X15172644Y-15809317D01*
X15172644Y-15809317D02*
X15144072Y-15809317D01*
X15144072Y-15809317D02*
X15125025Y-15799793D01*
X15125025Y-15799793D02*
X15115501Y-15780746D01*
X15115501Y-15780746D02*
X15115501Y-15771222D01*
X15115501Y-15771222D02*
X15125025Y-15752174D01*
X15125025Y-15752174D02*
X15144072Y-15742650D01*
X15144072Y-15742650D02*
X15172644Y-15742650D01*
X15172644Y-15742650D02*
X15191691Y-15752174D01*
X15267882Y-15952174D02*
X15277406Y-15942650D01*
X15277406Y-15942650D02*
X15296453Y-15914079D01*
X15296453Y-15914079D02*
X15305977Y-15895031D01*
X15305977Y-15895031D02*
X15315501Y-15866460D01*
X15315501Y-15866460D02*
X15325025Y-15818841D01*
X15325025Y-15818841D02*
X15325025Y-15780746D01*
X15325025Y-15780746D02*
X15315501Y-15733127D01*
X15315501Y-15733127D02*
X15305977Y-15704555D01*
X15305977Y-15704555D02*
X15296453Y-15685508D01*
X15296453Y-15685508D02*
X15277406Y-15656936D01*
X15277406Y-15656936D02*
X15267882Y-15647412D01*
D12*
X10269843Y-16081000D02*
X10302343Y-16048500D01*
X10269843Y-16016000D01*
X10237343Y-16048500D01*
X10269843Y-16081000D01*
D11*
X10601215Y-15939984D02*
X10620262Y-15939984D01*
X10620262Y-15939984D02*
X10639310Y-15949508D01*
X10639310Y-15949508D02*
X10648834Y-15959031D01*
X10648834Y-15959031D02*
X10658358Y-15978079D01*
X10658358Y-15978079D02*
X10667881Y-16016174D01*
X10667881Y-16016174D02*
X10667881Y-16063793D01*
X10667881Y-16063793D02*
X10658358Y-16101888D01*
X10658358Y-16101888D02*
X10648834Y-16120936D01*
X10648834Y-16120936D02*
X10639310Y-16130460D01*
X10639310Y-16130460D02*
X10620262Y-16139984D01*
X10620262Y-16139984D02*
X10601215Y-16139984D01*
X10601215Y-16139984D02*
X10582167Y-16130460D01*
X10582167Y-16130460D02*
X10572643Y-16120936D01*
X10572643Y-16120936D02*
X10563119Y-16101888D01*
X10563119Y-16101888D02*
X10553596Y-16063793D01*
X10553596Y-16063793D02*
X10553596Y-16016174D01*
X10553596Y-16016174D02*
X10563119Y-15978079D01*
X10563119Y-15978079D02*
X10572643Y-15959031D01*
X10572643Y-15959031D02*
X10582167Y-15949508D01*
X10582167Y-15949508D02*
X10601215Y-15939984D01*
X10753596Y-16120936D02*
X10763119Y-16130460D01*
X10763119Y-16130460D02*
X10753596Y-16139984D01*
X10753596Y-16139984D02*
X10744072Y-16130460D01*
X10744072Y-16130460D02*
X10753596Y-16120936D01*
X10753596Y-16120936D02*
X10753596Y-16139984D01*
X10934548Y-15939984D02*
X10896453Y-15939984D01*
X10896453Y-15939984D02*
X10877405Y-15949508D01*
X10877405Y-15949508D02*
X10867881Y-15959031D01*
X10867881Y-15959031D02*
X10848834Y-15987603D01*
X10848834Y-15987603D02*
X10839310Y-16025698D01*
X10839310Y-16025698D02*
X10839310Y-16101888D01*
X10839310Y-16101888D02*
X10848834Y-16120936D01*
X10848834Y-16120936D02*
X10858358Y-16130460D01*
X10858358Y-16130460D02*
X10877405Y-16139984D01*
X10877405Y-16139984D02*
X10915500Y-16139984D01*
X10915500Y-16139984D02*
X10934548Y-16130460D01*
X10934548Y-16130460D02*
X10944072Y-16120936D01*
X10944072Y-16120936D02*
X10953596Y-16101888D01*
X10953596Y-16101888D02*
X10953596Y-16054269D01*
X10953596Y-16054269D02*
X10944072Y-16035222D01*
X10944072Y-16035222D02*
X10934548Y-16025698D01*
X10934548Y-16025698D02*
X10915500Y-16016174D01*
X10915500Y-16016174D02*
X10877405Y-16016174D01*
X10877405Y-16016174D02*
X10858358Y-16025698D01*
X10858358Y-16025698D02*
X10848834Y-16035222D01*
X10848834Y-16035222D02*
X10839310Y-16054269D01*
X11134548Y-15939984D02*
X11039310Y-15939984D01*
X11039310Y-15939984D02*
X11029786Y-16035222D01*
X11029786Y-16035222D02*
X11039310Y-16025698D01*
X11039310Y-16025698D02*
X11058358Y-16016174D01*
X11058358Y-16016174D02*
X11105977Y-16016174D01*
X11105977Y-16016174D02*
X11125024Y-16025698D01*
X11125024Y-16025698D02*
X11134548Y-16035222D01*
X11134548Y-16035222D02*
X11144072Y-16054269D01*
X11144072Y-16054269D02*
X11144072Y-16101888D01*
X11144072Y-16101888D02*
X11134548Y-16120936D01*
X11134548Y-16120936D02*
X11125024Y-16130460D01*
X11125024Y-16130460D02*
X11105977Y-16139984D01*
X11105977Y-16139984D02*
X11058358Y-16139984D01*
X11058358Y-16139984D02*
X11039310Y-16130460D01*
X11039310Y-16130460D02*
X11029786Y-16120936D01*
X11267881Y-15939984D02*
X11286929Y-15939984D01*
X11286929Y-15939984D02*
X11305977Y-15949508D01*
X11305977Y-15949508D02*
X11315500Y-15959031D01*
X11315500Y-15959031D02*
X11325024Y-15978079D01*
X11325024Y-15978079D02*
X11334548Y-16016174D01*
X11334548Y-16016174D02*
X11334548Y-16063793D01*
X11334548Y-16063793D02*
X11325024Y-16101888D01*
X11325024Y-16101888D02*
X11315500Y-16120936D01*
X11315500Y-16120936D02*
X11305977Y-16130460D01*
X11305977Y-16130460D02*
X11286929Y-16139984D01*
X11286929Y-16139984D02*
X11267881Y-16139984D01*
X11267881Y-16139984D02*
X11248834Y-16130460D01*
X11248834Y-16130460D02*
X11239310Y-16120936D01*
X11239310Y-16120936D02*
X11229786Y-16101888D01*
X11229786Y-16101888D02*
X11220262Y-16063793D01*
X11220262Y-16063793D02*
X11220262Y-16016174D01*
X11220262Y-16016174D02*
X11229786Y-15978079D01*
X11229786Y-15978079D02*
X11239310Y-15959031D01*
X11239310Y-15959031D02*
X11248834Y-15949508D01*
X11248834Y-15949508D02*
X11267881Y-15939984D01*
X11420262Y-16139984D02*
X11420262Y-16006650D01*
X11420262Y-16025698D02*
X11429786Y-16016174D01*
X11429786Y-16016174D02*
X11448834Y-16006650D01*
X11448834Y-16006650D02*
X11477405Y-16006650D01*
X11477405Y-16006650D02*
X11496453Y-16016174D01*
X11496453Y-16016174D02*
X11505977Y-16035222D01*
X11505977Y-16035222D02*
X11505977Y-16139984D01*
X11505977Y-16035222D02*
X11515500Y-16016174D01*
X11515500Y-16016174D02*
X11534548Y-16006650D01*
X11534548Y-16006650D02*
X11563119Y-16006650D01*
X11563119Y-16006650D02*
X11582167Y-16016174D01*
X11582167Y-16016174D02*
X11591691Y-16035222D01*
X11591691Y-16035222D02*
X11591691Y-16139984D01*
X11686929Y-16139984D02*
X11686929Y-16006650D01*
X11686929Y-16025698D02*
X11696453Y-16016174D01*
X11696453Y-16016174D02*
X11715500Y-16006650D01*
X11715500Y-16006650D02*
X11744072Y-16006650D01*
X11744072Y-16006650D02*
X11763119Y-16016174D01*
X11763119Y-16016174D02*
X11772643Y-16035222D01*
X11772643Y-16035222D02*
X11772643Y-16139984D01*
X11772643Y-16035222D02*
X11782167Y-16016174D01*
X11782167Y-16016174D02*
X11801215Y-16006650D01*
X11801215Y-16006650D02*
X11829786Y-16006650D01*
X11829786Y-16006650D02*
X11848834Y-16016174D01*
X11848834Y-16016174D02*
X11858358Y-16035222D01*
X11858358Y-16035222D02*
X11858358Y-16139984D01*
X12248834Y-15930460D02*
X12077405Y-16187603D01*
X12505977Y-15939984D02*
X12525024Y-15939984D01*
X12525024Y-15939984D02*
X12544072Y-15949508D01*
X12544072Y-15949508D02*
X12553596Y-15959031D01*
X12553596Y-15959031D02*
X12563120Y-15978079D01*
X12563120Y-15978079D02*
X12572643Y-16016174D01*
X12572643Y-16016174D02*
X12572643Y-16063793D01*
X12572643Y-16063793D02*
X12563120Y-16101888D01*
X12563120Y-16101888D02*
X12553596Y-16120936D01*
X12553596Y-16120936D02*
X12544072Y-16130460D01*
X12544072Y-16130460D02*
X12525024Y-16139984D01*
X12525024Y-16139984D02*
X12505977Y-16139984D01*
X12505977Y-16139984D02*
X12486929Y-16130460D01*
X12486929Y-16130460D02*
X12477405Y-16120936D01*
X12477405Y-16120936D02*
X12467881Y-16101888D01*
X12467881Y-16101888D02*
X12458358Y-16063793D01*
X12458358Y-16063793D02*
X12458358Y-16016174D01*
X12458358Y-16016174D02*
X12467881Y-15978079D01*
X12467881Y-15978079D02*
X12477405Y-15959031D01*
X12477405Y-15959031D02*
X12486929Y-15949508D01*
X12486929Y-15949508D02*
X12505977Y-15939984D01*
X12658358Y-16120936D02*
X12667881Y-16130460D01*
X12667881Y-16130460D02*
X12658358Y-16139984D01*
X12658358Y-16139984D02*
X12648834Y-16130460D01*
X12648834Y-16130460D02*
X12658358Y-16120936D01*
X12658358Y-16120936D02*
X12658358Y-16139984D01*
X12791691Y-15939984D02*
X12810739Y-15939984D01*
X12810739Y-15939984D02*
X12829786Y-15949508D01*
X12829786Y-15949508D02*
X12839310Y-15959031D01*
X12839310Y-15959031D02*
X12848834Y-15978079D01*
X12848834Y-15978079D02*
X12858358Y-16016174D01*
X12858358Y-16016174D02*
X12858358Y-16063793D01*
X12858358Y-16063793D02*
X12848834Y-16101888D01*
X12848834Y-16101888D02*
X12839310Y-16120936D01*
X12839310Y-16120936D02*
X12829786Y-16130460D01*
X12829786Y-16130460D02*
X12810739Y-16139984D01*
X12810739Y-16139984D02*
X12791691Y-16139984D01*
X12791691Y-16139984D02*
X12772643Y-16130460D01*
X12772643Y-16130460D02*
X12763120Y-16120936D01*
X12763120Y-16120936D02*
X12753596Y-16101888D01*
X12753596Y-16101888D02*
X12744072Y-16063793D01*
X12744072Y-16063793D02*
X12744072Y-16016174D01*
X12744072Y-16016174D02*
X12753596Y-15978079D01*
X12753596Y-15978079D02*
X12763120Y-15959031D01*
X12763120Y-15959031D02*
X12772643Y-15949508D01*
X12772643Y-15949508D02*
X12791691Y-15939984D01*
X12934548Y-15959031D02*
X12944072Y-15949508D01*
X12944072Y-15949508D02*
X12963120Y-15939984D01*
X12963120Y-15939984D02*
X13010739Y-15939984D01*
X13010739Y-15939984D02*
X13029786Y-15949508D01*
X13029786Y-15949508D02*
X13039310Y-15959031D01*
X13039310Y-15959031D02*
X13048834Y-15978079D01*
X13048834Y-15978079D02*
X13048834Y-15997127D01*
X13048834Y-15997127D02*
X13039310Y-16025698D01*
X13039310Y-16025698D02*
X12925024Y-16139984D01*
X12925024Y-16139984D02*
X13048834Y-16139984D01*
X13229786Y-15939984D02*
X13134548Y-15939984D01*
X13134548Y-15939984D02*
X13125024Y-16035222D01*
X13125024Y-16035222D02*
X13134548Y-16025698D01*
X13134548Y-16025698D02*
X13153596Y-16016174D01*
X13153596Y-16016174D02*
X13201215Y-16016174D01*
X13201215Y-16016174D02*
X13220262Y-16025698D01*
X13220262Y-16025698D02*
X13229786Y-16035222D01*
X13229786Y-16035222D02*
X13239310Y-16054269D01*
X13239310Y-16054269D02*
X13239310Y-16101888D01*
X13239310Y-16101888D02*
X13229786Y-16120936D01*
X13229786Y-16120936D02*
X13220262Y-16130460D01*
X13220262Y-16130460D02*
X13201215Y-16139984D01*
X13201215Y-16139984D02*
X13153596Y-16139984D01*
X13153596Y-16139984D02*
X13134548Y-16130460D01*
X13134548Y-16130460D02*
X13125024Y-16120936D01*
X13410739Y-15939984D02*
X13372643Y-15939984D01*
X13372643Y-15939984D02*
X13353596Y-15949508D01*
X13353596Y-15949508D02*
X13344072Y-15959031D01*
X13344072Y-15959031D02*
X13325024Y-15987603D01*
X13325024Y-15987603D02*
X13315501Y-16025698D01*
X13315501Y-16025698D02*
X13315501Y-16101888D01*
X13315501Y-16101888D02*
X13325024Y-16120936D01*
X13325024Y-16120936D02*
X13334548Y-16130460D01*
X13334548Y-16130460D02*
X13353596Y-16139984D01*
X13353596Y-16139984D02*
X13391691Y-16139984D01*
X13391691Y-16139984D02*
X13410739Y-16130460D01*
X13410739Y-16130460D02*
X13420262Y-16120936D01*
X13420262Y-16120936D02*
X13429786Y-16101888D01*
X13429786Y-16101888D02*
X13429786Y-16054269D01*
X13429786Y-16054269D02*
X13420262Y-16035222D01*
X13420262Y-16035222D02*
X13410739Y-16025698D01*
X13410739Y-16025698D02*
X13391691Y-16016174D01*
X13391691Y-16016174D02*
X13353596Y-16016174D01*
X13353596Y-16016174D02*
X13334548Y-16025698D01*
X13334548Y-16025698D02*
X13325024Y-16035222D01*
X13325024Y-16035222D02*
X13315501Y-16054269D01*
X13505977Y-15939984D02*
X13505977Y-15978079D01*
X13582167Y-15939984D02*
X13582167Y-15978079D01*
X13877405Y-16216174D02*
X13867882Y-16206650D01*
X13867882Y-16206650D02*
X13848834Y-16178079D01*
X13848834Y-16178079D02*
X13839310Y-16159031D01*
X13839310Y-16159031D02*
X13829786Y-16130460D01*
X13829786Y-16130460D02*
X13820263Y-16082841D01*
X13820263Y-16082841D02*
X13820263Y-16044746D01*
X13820263Y-16044746D02*
X13829786Y-15997127D01*
X13829786Y-15997127D02*
X13839310Y-15968555D01*
X13839310Y-15968555D02*
X13848834Y-15949508D01*
X13848834Y-15949508D02*
X13867882Y-15920936D01*
X13867882Y-15920936D02*
X13877405Y-15911412D01*
X13991691Y-15939984D02*
X14010739Y-15939984D01*
X14010739Y-15939984D02*
X14029786Y-15949508D01*
X14029786Y-15949508D02*
X14039310Y-15959031D01*
X14039310Y-15959031D02*
X14048834Y-15978079D01*
X14048834Y-15978079D02*
X14058358Y-16016174D01*
X14058358Y-16016174D02*
X14058358Y-16063793D01*
X14058358Y-16063793D02*
X14048834Y-16101888D01*
X14048834Y-16101888D02*
X14039310Y-16120936D01*
X14039310Y-16120936D02*
X14029786Y-16130460D01*
X14029786Y-16130460D02*
X14010739Y-16139984D01*
X14010739Y-16139984D02*
X13991691Y-16139984D01*
X13991691Y-16139984D02*
X13972643Y-16130460D01*
X13972643Y-16130460D02*
X13963120Y-16120936D01*
X13963120Y-16120936D02*
X13953596Y-16101888D01*
X13953596Y-16101888D02*
X13944072Y-16063793D01*
X13944072Y-16063793D02*
X13944072Y-16016174D01*
X13944072Y-16016174D02*
X13953596Y-15978079D01*
X13953596Y-15978079D02*
X13963120Y-15959031D01*
X13963120Y-15959031D02*
X13972643Y-15949508D01*
X13972643Y-15949508D02*
X13991691Y-15939984D01*
X14296453Y-16139984D02*
X14296453Y-15939984D01*
X14382167Y-16139984D02*
X14382167Y-16035222D01*
X14382167Y-16035222D02*
X14372644Y-16016174D01*
X14372644Y-16016174D02*
X14353596Y-16006650D01*
X14353596Y-16006650D02*
X14325024Y-16006650D01*
X14325024Y-16006650D02*
X14305977Y-16016174D01*
X14305977Y-16016174D02*
X14296453Y-16025698D01*
X14505977Y-16139984D02*
X14486929Y-16130460D01*
X14486929Y-16130460D02*
X14477405Y-16120936D01*
X14477405Y-16120936D02*
X14467882Y-16101888D01*
X14467882Y-16101888D02*
X14467882Y-16044746D01*
X14467882Y-16044746D02*
X14477405Y-16025698D01*
X14477405Y-16025698D02*
X14486929Y-16016174D01*
X14486929Y-16016174D02*
X14505977Y-16006650D01*
X14505977Y-16006650D02*
X14534548Y-16006650D01*
X14534548Y-16006650D02*
X14553596Y-16016174D01*
X14553596Y-16016174D02*
X14563120Y-16025698D01*
X14563120Y-16025698D02*
X14572644Y-16044746D01*
X14572644Y-16044746D02*
X14572644Y-16101888D01*
X14572644Y-16101888D02*
X14563120Y-16120936D01*
X14563120Y-16120936D02*
X14553596Y-16130460D01*
X14553596Y-16130460D02*
X14534548Y-16139984D01*
X14534548Y-16139984D02*
X14505977Y-16139984D01*
X14686929Y-16139984D02*
X14667882Y-16130460D01*
X14667882Y-16130460D02*
X14658358Y-16111412D01*
X14658358Y-16111412D02*
X14658358Y-15939984D01*
X14839310Y-16130460D02*
X14820263Y-16139984D01*
X14820263Y-16139984D02*
X14782167Y-16139984D01*
X14782167Y-16139984D02*
X14763120Y-16130460D01*
X14763120Y-16130460D02*
X14753596Y-16111412D01*
X14753596Y-16111412D02*
X14753596Y-16035222D01*
X14753596Y-16035222D02*
X14763120Y-16016174D01*
X14763120Y-16016174D02*
X14782167Y-16006650D01*
X14782167Y-16006650D02*
X14820263Y-16006650D01*
X14820263Y-16006650D02*
X14839310Y-16016174D01*
X14839310Y-16016174D02*
X14848834Y-16035222D01*
X14848834Y-16035222D02*
X14848834Y-16054269D01*
X14848834Y-16054269D02*
X14753596Y-16073317D01*
X14925025Y-16130460D02*
X14944072Y-16139984D01*
X14944072Y-16139984D02*
X14982167Y-16139984D01*
X14982167Y-16139984D02*
X15001215Y-16130460D01*
X15001215Y-16130460D02*
X15010739Y-16111412D01*
X15010739Y-16111412D02*
X15010739Y-16101888D01*
X15010739Y-16101888D02*
X15001215Y-16082841D01*
X15001215Y-16082841D02*
X14982167Y-16073317D01*
X14982167Y-16073317D02*
X14953596Y-16073317D01*
X14953596Y-16073317D02*
X14934548Y-16063793D01*
X14934548Y-16063793D02*
X14925025Y-16044746D01*
X14925025Y-16044746D02*
X14925025Y-16035222D01*
X14925025Y-16035222D02*
X14934548Y-16016174D01*
X14934548Y-16016174D02*
X14953596Y-16006650D01*
X14953596Y-16006650D02*
X14982167Y-16006650D01*
X14982167Y-16006650D02*
X15001215Y-16016174D01*
X15248834Y-16063793D02*
X15401215Y-16063793D01*
X15325025Y-16139984D02*
X15325025Y-15987603D01*
X15734548Y-16006650D02*
X15734548Y-16139984D01*
X15686929Y-15930460D02*
X15639310Y-16073317D01*
X15639310Y-16073317D02*
X15763120Y-16073317D01*
X15982168Y-16130460D02*
X16001215Y-16139984D01*
X16001215Y-16139984D02*
X16039310Y-16139984D01*
X16039310Y-16139984D02*
X16058358Y-16130460D01*
X16058358Y-16130460D02*
X16067882Y-16111412D01*
X16067882Y-16111412D02*
X16067882Y-16101888D01*
X16067882Y-16101888D02*
X16058358Y-16082841D01*
X16058358Y-16082841D02*
X16039310Y-16073317D01*
X16039310Y-16073317D02*
X16010739Y-16073317D01*
X16010739Y-16073317D02*
X15991691Y-16063793D01*
X15991691Y-16063793D02*
X15982168Y-16044746D01*
X15982168Y-16044746D02*
X15982168Y-16035222D01*
X15982168Y-16035222D02*
X15991691Y-16016174D01*
X15991691Y-16016174D02*
X16010739Y-16006650D01*
X16010739Y-16006650D02*
X16039310Y-16006650D01*
X16039310Y-16006650D02*
X16058358Y-16016174D01*
X16182168Y-16139984D02*
X16163120Y-16130460D01*
X16163120Y-16130460D02*
X16153596Y-16111412D01*
X16153596Y-16111412D02*
X16153596Y-15939984D01*
X16286929Y-16139984D02*
X16267882Y-16130460D01*
X16267882Y-16130460D02*
X16258358Y-16120936D01*
X16258358Y-16120936D02*
X16248834Y-16101888D01*
X16248834Y-16101888D02*
X16248834Y-16044746D01*
X16248834Y-16044746D02*
X16258358Y-16025698D01*
X16258358Y-16025698D02*
X16267882Y-16016174D01*
X16267882Y-16016174D02*
X16286929Y-16006650D01*
X16286929Y-16006650D02*
X16315501Y-16006650D01*
X16315501Y-16006650D02*
X16334549Y-16016174D01*
X16334549Y-16016174D02*
X16344072Y-16025698D01*
X16344072Y-16025698D02*
X16353596Y-16044746D01*
X16353596Y-16044746D02*
X16353596Y-16101888D01*
X16353596Y-16101888D02*
X16344072Y-16120936D01*
X16344072Y-16120936D02*
X16334549Y-16130460D01*
X16334549Y-16130460D02*
X16315501Y-16139984D01*
X16315501Y-16139984D02*
X16286929Y-16139984D01*
X16410739Y-16006650D02*
X16486929Y-16006650D01*
X16439310Y-15939984D02*
X16439310Y-16111412D01*
X16439310Y-16111412D02*
X16448834Y-16130460D01*
X16448834Y-16130460D02*
X16467882Y-16139984D01*
X16467882Y-16139984D02*
X16486929Y-16139984D01*
X16544072Y-16130460D02*
X16563120Y-16139984D01*
X16563120Y-16139984D02*
X16601215Y-16139984D01*
X16601215Y-16139984D02*
X16620263Y-16130460D01*
X16620263Y-16130460D02*
X16629787Y-16111412D01*
X16629787Y-16111412D02*
X16629787Y-16101888D01*
X16629787Y-16101888D02*
X16620263Y-16082841D01*
X16620263Y-16082841D02*
X16601215Y-16073317D01*
X16601215Y-16073317D02*
X16572644Y-16073317D01*
X16572644Y-16073317D02*
X16553596Y-16063793D01*
X16553596Y-16063793D02*
X16544072Y-16044746D01*
X16544072Y-16044746D02*
X16544072Y-16035222D01*
X16544072Y-16035222D02*
X16553596Y-16016174D01*
X16553596Y-16016174D02*
X16572644Y-16006650D01*
X16572644Y-16006650D02*
X16601215Y-16006650D01*
X16601215Y-16006650D02*
X16620263Y-16016174D01*
X16696453Y-16216174D02*
X16705977Y-16206650D01*
X16705977Y-16206650D02*
X16725025Y-16178079D01*
X16725025Y-16178079D02*
X16734549Y-16159031D01*
X16734549Y-16159031D02*
X16744072Y-16130460D01*
X16744072Y-16130460D02*
X16753596Y-16082841D01*
X16753596Y-16082841D02*
X16753596Y-16044746D01*
X16753596Y-16044746D02*
X16744072Y-15997127D01*
X16744072Y-15997127D02*
X16734549Y-15968555D01*
X16734549Y-15968555D02*
X16725025Y-15949508D01*
X16725025Y-15949508D02*
X16705977Y-15920936D01*
X16705977Y-15920936D02*
X16696453Y-15911412D01*
D12*
X10213443Y-16268050D02*
X10302343Y-16356950D01*
X10302343Y-16268050D02*
X10213443Y-16356950D01*
X10302343Y-16312500D02*
G75*
G02*
X10213443Y-16312500I-44450J0D01*
G01*
X10213443Y-16312500D02*
G75*
G02*
X10302343Y-16312500I44450J0D01*
G01*
D11*
X10601215Y-16203984D02*
X10620262Y-16203984D01*
X10620262Y-16203984D02*
X10639310Y-16213508D01*
X10639310Y-16213508D02*
X10648834Y-16223031D01*
X10648834Y-16223031D02*
X10658358Y-16242079D01*
X10658358Y-16242079D02*
X10667881Y-16280174D01*
X10667881Y-16280174D02*
X10667881Y-16327793D01*
X10667881Y-16327793D02*
X10658358Y-16365888D01*
X10658358Y-16365888D02*
X10648834Y-16384936D01*
X10648834Y-16384936D02*
X10639310Y-16394460D01*
X10639310Y-16394460D02*
X10620262Y-16403984D01*
X10620262Y-16403984D02*
X10601215Y-16403984D01*
X10601215Y-16403984D02*
X10582167Y-16394460D01*
X10582167Y-16394460D02*
X10572643Y-16384936D01*
X10572643Y-16384936D02*
X10563119Y-16365888D01*
X10563119Y-16365888D02*
X10553596Y-16327793D01*
X10553596Y-16327793D02*
X10553596Y-16280174D01*
X10553596Y-16280174D02*
X10563119Y-16242079D01*
X10563119Y-16242079D02*
X10572643Y-16223031D01*
X10572643Y-16223031D02*
X10582167Y-16213508D01*
X10582167Y-16213508D02*
X10601215Y-16203984D01*
X10753596Y-16384936D02*
X10763119Y-16394460D01*
X10763119Y-16394460D02*
X10753596Y-16403984D01*
X10753596Y-16403984D02*
X10744072Y-16394460D01*
X10744072Y-16394460D02*
X10753596Y-16384936D01*
X10753596Y-16384936D02*
X10753596Y-16403984D01*
X10877405Y-16289698D02*
X10858358Y-16280174D01*
X10858358Y-16280174D02*
X10848834Y-16270650D01*
X10848834Y-16270650D02*
X10839310Y-16251603D01*
X10839310Y-16251603D02*
X10839310Y-16242079D01*
X10839310Y-16242079D02*
X10848834Y-16223031D01*
X10848834Y-16223031D02*
X10858358Y-16213508D01*
X10858358Y-16213508D02*
X10877405Y-16203984D01*
X10877405Y-16203984D02*
X10915500Y-16203984D01*
X10915500Y-16203984D02*
X10934548Y-16213508D01*
X10934548Y-16213508D02*
X10944072Y-16223031D01*
X10944072Y-16223031D02*
X10953596Y-16242079D01*
X10953596Y-16242079D02*
X10953596Y-16251603D01*
X10953596Y-16251603D02*
X10944072Y-16270650D01*
X10944072Y-16270650D02*
X10934548Y-16280174D01*
X10934548Y-16280174D02*
X10915500Y-16289698D01*
X10915500Y-16289698D02*
X10877405Y-16289698D01*
X10877405Y-16289698D02*
X10858358Y-16299222D01*
X10858358Y-16299222D02*
X10848834Y-16308746D01*
X10848834Y-16308746D02*
X10839310Y-16327793D01*
X10839310Y-16327793D02*
X10839310Y-16365888D01*
X10839310Y-16365888D02*
X10848834Y-16384936D01*
X10848834Y-16384936D02*
X10858358Y-16394460D01*
X10858358Y-16394460D02*
X10877405Y-16403984D01*
X10877405Y-16403984D02*
X10915500Y-16403984D01*
X10915500Y-16403984D02*
X10934548Y-16394460D01*
X10934548Y-16394460D02*
X10944072Y-16384936D01*
X10944072Y-16384936D02*
X10953596Y-16365888D01*
X10953596Y-16365888D02*
X10953596Y-16327793D01*
X10953596Y-16327793D02*
X10944072Y-16308746D01*
X10944072Y-16308746D02*
X10934548Y-16299222D01*
X10934548Y-16299222D02*
X10915500Y-16289698D01*
X11067881Y-16289698D02*
X11048834Y-16280174D01*
X11048834Y-16280174D02*
X11039310Y-16270650D01*
X11039310Y-16270650D02*
X11029786Y-16251603D01*
X11029786Y-16251603D02*
X11029786Y-16242079D01*
X11029786Y-16242079D02*
X11039310Y-16223031D01*
X11039310Y-16223031D02*
X11048834Y-16213508D01*
X11048834Y-16213508D02*
X11067881Y-16203984D01*
X11067881Y-16203984D02*
X11105977Y-16203984D01*
X11105977Y-16203984D02*
X11125024Y-16213508D01*
X11125024Y-16213508D02*
X11134548Y-16223031D01*
X11134548Y-16223031D02*
X11144072Y-16242079D01*
X11144072Y-16242079D02*
X11144072Y-16251603D01*
X11144072Y-16251603D02*
X11134548Y-16270650D01*
X11134548Y-16270650D02*
X11125024Y-16280174D01*
X11125024Y-16280174D02*
X11105977Y-16289698D01*
X11105977Y-16289698D02*
X11067881Y-16289698D01*
X11067881Y-16289698D02*
X11048834Y-16299222D01*
X11048834Y-16299222D02*
X11039310Y-16308746D01*
X11039310Y-16308746D02*
X11029786Y-16327793D01*
X11029786Y-16327793D02*
X11029786Y-16365888D01*
X11029786Y-16365888D02*
X11039310Y-16384936D01*
X11039310Y-16384936D02*
X11048834Y-16394460D01*
X11048834Y-16394460D02*
X11067881Y-16403984D01*
X11067881Y-16403984D02*
X11105977Y-16403984D01*
X11105977Y-16403984D02*
X11125024Y-16394460D01*
X11125024Y-16394460D02*
X11134548Y-16384936D01*
X11134548Y-16384936D02*
X11144072Y-16365888D01*
X11144072Y-16365888D02*
X11144072Y-16327793D01*
X11144072Y-16327793D02*
X11134548Y-16308746D01*
X11134548Y-16308746D02*
X11125024Y-16299222D01*
X11125024Y-16299222D02*
X11105977Y-16289698D01*
X11239310Y-16403984D02*
X11277405Y-16403984D01*
X11277405Y-16403984D02*
X11296453Y-16394460D01*
X11296453Y-16394460D02*
X11305977Y-16384936D01*
X11305977Y-16384936D02*
X11325024Y-16356365D01*
X11325024Y-16356365D02*
X11334548Y-16318269D01*
X11334548Y-16318269D02*
X11334548Y-16242079D01*
X11334548Y-16242079D02*
X11325024Y-16223031D01*
X11325024Y-16223031D02*
X11315500Y-16213508D01*
X11315500Y-16213508D02*
X11296453Y-16203984D01*
X11296453Y-16203984D02*
X11258357Y-16203984D01*
X11258357Y-16203984D02*
X11239310Y-16213508D01*
X11239310Y-16213508D02*
X11229786Y-16223031D01*
X11229786Y-16223031D02*
X11220262Y-16242079D01*
X11220262Y-16242079D02*
X11220262Y-16289698D01*
X11220262Y-16289698D02*
X11229786Y-16308746D01*
X11229786Y-16308746D02*
X11239310Y-16318269D01*
X11239310Y-16318269D02*
X11258357Y-16327793D01*
X11258357Y-16327793D02*
X11296453Y-16327793D01*
X11296453Y-16327793D02*
X11315500Y-16318269D01*
X11315500Y-16318269D02*
X11325024Y-16308746D01*
X11325024Y-16308746D02*
X11334548Y-16289698D01*
X11420262Y-16403984D02*
X11420262Y-16270650D01*
X11420262Y-16289698D02*
X11429786Y-16280174D01*
X11429786Y-16280174D02*
X11448834Y-16270650D01*
X11448834Y-16270650D02*
X11477405Y-16270650D01*
X11477405Y-16270650D02*
X11496453Y-16280174D01*
X11496453Y-16280174D02*
X11505977Y-16299222D01*
X11505977Y-16299222D02*
X11505977Y-16403984D01*
X11505977Y-16299222D02*
X11515500Y-16280174D01*
X11515500Y-16280174D02*
X11534548Y-16270650D01*
X11534548Y-16270650D02*
X11563119Y-16270650D01*
X11563119Y-16270650D02*
X11582167Y-16280174D01*
X11582167Y-16280174D02*
X11591691Y-16299222D01*
X11591691Y-16299222D02*
X11591691Y-16403984D01*
X11686929Y-16403984D02*
X11686929Y-16270650D01*
X11686929Y-16289698D02*
X11696453Y-16280174D01*
X11696453Y-16280174D02*
X11715500Y-16270650D01*
X11715500Y-16270650D02*
X11744072Y-16270650D01*
X11744072Y-16270650D02*
X11763119Y-16280174D01*
X11763119Y-16280174D02*
X11772643Y-16299222D01*
X11772643Y-16299222D02*
X11772643Y-16403984D01*
X11772643Y-16299222D02*
X11782167Y-16280174D01*
X11782167Y-16280174D02*
X11801215Y-16270650D01*
X11801215Y-16270650D02*
X11829786Y-16270650D01*
X11829786Y-16270650D02*
X11848834Y-16280174D01*
X11848834Y-16280174D02*
X11858358Y-16299222D01*
X11858358Y-16299222D02*
X11858358Y-16403984D01*
X12248834Y-16194460D02*
X12077405Y-16451603D01*
X12505977Y-16203984D02*
X12525024Y-16203984D01*
X12525024Y-16203984D02*
X12544072Y-16213508D01*
X12544072Y-16213508D02*
X12553596Y-16223031D01*
X12553596Y-16223031D02*
X12563120Y-16242079D01*
X12563120Y-16242079D02*
X12572643Y-16280174D01*
X12572643Y-16280174D02*
X12572643Y-16327793D01*
X12572643Y-16327793D02*
X12563120Y-16365888D01*
X12563120Y-16365888D02*
X12553596Y-16384936D01*
X12553596Y-16384936D02*
X12544072Y-16394460D01*
X12544072Y-16394460D02*
X12525024Y-16403984D01*
X12525024Y-16403984D02*
X12505977Y-16403984D01*
X12505977Y-16403984D02*
X12486929Y-16394460D01*
X12486929Y-16394460D02*
X12477405Y-16384936D01*
X12477405Y-16384936D02*
X12467881Y-16365888D01*
X12467881Y-16365888D02*
X12458358Y-16327793D01*
X12458358Y-16327793D02*
X12458358Y-16280174D01*
X12458358Y-16280174D02*
X12467881Y-16242079D01*
X12467881Y-16242079D02*
X12477405Y-16223031D01*
X12477405Y-16223031D02*
X12486929Y-16213508D01*
X12486929Y-16213508D02*
X12505977Y-16203984D01*
X12658358Y-16384936D02*
X12667881Y-16394460D01*
X12667881Y-16394460D02*
X12658358Y-16403984D01*
X12658358Y-16403984D02*
X12648834Y-16394460D01*
X12648834Y-16394460D02*
X12658358Y-16384936D01*
X12658358Y-16384936D02*
X12658358Y-16403984D01*
X12791691Y-16203984D02*
X12810739Y-16203984D01*
X12810739Y-16203984D02*
X12829786Y-16213508D01*
X12829786Y-16213508D02*
X12839310Y-16223031D01*
X12839310Y-16223031D02*
X12848834Y-16242079D01*
X12848834Y-16242079D02*
X12858358Y-16280174D01*
X12858358Y-16280174D02*
X12858358Y-16327793D01*
X12858358Y-16327793D02*
X12848834Y-16365888D01*
X12848834Y-16365888D02*
X12839310Y-16384936D01*
X12839310Y-16384936D02*
X12829786Y-16394460D01*
X12829786Y-16394460D02*
X12810739Y-16403984D01*
X12810739Y-16403984D02*
X12791691Y-16403984D01*
X12791691Y-16403984D02*
X12772643Y-16394460D01*
X12772643Y-16394460D02*
X12763120Y-16384936D01*
X12763120Y-16384936D02*
X12753596Y-16365888D01*
X12753596Y-16365888D02*
X12744072Y-16327793D01*
X12744072Y-16327793D02*
X12744072Y-16280174D01*
X12744072Y-16280174D02*
X12753596Y-16242079D01*
X12753596Y-16242079D02*
X12763120Y-16223031D01*
X12763120Y-16223031D02*
X12772643Y-16213508D01*
X12772643Y-16213508D02*
X12791691Y-16203984D01*
X12925024Y-16203984D02*
X13048834Y-16203984D01*
X13048834Y-16203984D02*
X12982167Y-16280174D01*
X12982167Y-16280174D02*
X13010739Y-16280174D01*
X13010739Y-16280174D02*
X13029786Y-16289698D01*
X13029786Y-16289698D02*
X13039310Y-16299222D01*
X13039310Y-16299222D02*
X13048834Y-16318269D01*
X13048834Y-16318269D02*
X13048834Y-16365888D01*
X13048834Y-16365888D02*
X13039310Y-16384936D01*
X13039310Y-16384936D02*
X13029786Y-16394460D01*
X13029786Y-16394460D02*
X13010739Y-16403984D01*
X13010739Y-16403984D02*
X12953596Y-16403984D01*
X12953596Y-16403984D02*
X12934548Y-16394460D01*
X12934548Y-16394460D02*
X12925024Y-16384936D01*
X13229786Y-16203984D02*
X13134548Y-16203984D01*
X13134548Y-16203984D02*
X13125024Y-16299222D01*
X13125024Y-16299222D02*
X13134548Y-16289698D01*
X13134548Y-16289698D02*
X13153596Y-16280174D01*
X13153596Y-16280174D02*
X13201215Y-16280174D01*
X13201215Y-16280174D02*
X13220262Y-16289698D01*
X13220262Y-16289698D02*
X13229786Y-16299222D01*
X13229786Y-16299222D02*
X13239310Y-16318269D01*
X13239310Y-16318269D02*
X13239310Y-16365888D01*
X13239310Y-16365888D02*
X13229786Y-16384936D01*
X13229786Y-16384936D02*
X13220262Y-16394460D01*
X13220262Y-16394460D02*
X13201215Y-16403984D01*
X13201215Y-16403984D02*
X13153596Y-16403984D01*
X13153596Y-16403984D02*
X13134548Y-16394460D01*
X13134548Y-16394460D02*
X13125024Y-16384936D01*
X13363120Y-16203984D02*
X13382167Y-16203984D01*
X13382167Y-16203984D02*
X13401215Y-16213508D01*
X13401215Y-16213508D02*
X13410739Y-16223031D01*
X13410739Y-16223031D02*
X13420262Y-16242079D01*
X13420262Y-16242079D02*
X13429786Y-16280174D01*
X13429786Y-16280174D02*
X13429786Y-16327793D01*
X13429786Y-16327793D02*
X13420262Y-16365888D01*
X13420262Y-16365888D02*
X13410739Y-16384936D01*
X13410739Y-16384936D02*
X13401215Y-16394460D01*
X13401215Y-16394460D02*
X13382167Y-16403984D01*
X13382167Y-16403984D02*
X13363120Y-16403984D01*
X13363120Y-16403984D02*
X13344072Y-16394460D01*
X13344072Y-16394460D02*
X13334548Y-16384936D01*
X13334548Y-16384936D02*
X13325024Y-16365888D01*
X13325024Y-16365888D02*
X13315501Y-16327793D01*
X13315501Y-16327793D02*
X13315501Y-16280174D01*
X13315501Y-16280174D02*
X13325024Y-16242079D01*
X13325024Y-16242079D02*
X13334548Y-16223031D01*
X13334548Y-16223031D02*
X13344072Y-16213508D01*
X13344072Y-16213508D02*
X13363120Y-16203984D01*
X13505977Y-16203984D02*
X13505977Y-16242079D01*
X13582167Y-16203984D02*
X13582167Y-16242079D01*
X13877405Y-16480174D02*
X13867882Y-16470650D01*
X13867882Y-16470650D02*
X13848834Y-16442079D01*
X13848834Y-16442079D02*
X13839310Y-16423031D01*
X13839310Y-16423031D02*
X13829786Y-16394460D01*
X13829786Y-16394460D02*
X13820263Y-16346841D01*
X13820263Y-16346841D02*
X13820263Y-16308746D01*
X13820263Y-16308746D02*
X13829786Y-16261127D01*
X13829786Y-16261127D02*
X13839310Y-16232555D01*
X13839310Y-16232555D02*
X13848834Y-16213508D01*
X13848834Y-16213508D02*
X13867882Y-16184936D01*
X13867882Y-16184936D02*
X13877405Y-16175412D01*
X14058358Y-16403984D02*
X13944072Y-16403984D01*
X14001215Y-16403984D02*
X14001215Y-16203984D01*
X14001215Y-16203984D02*
X13982167Y-16232555D01*
X13982167Y-16232555D02*
X13963120Y-16251603D01*
X13963120Y-16251603D02*
X13944072Y-16261127D01*
X14134548Y-16223031D02*
X14144072Y-16213508D01*
X14144072Y-16213508D02*
X14163120Y-16203984D01*
X14163120Y-16203984D02*
X14210739Y-16203984D01*
X14210739Y-16203984D02*
X14229786Y-16213508D01*
X14229786Y-16213508D02*
X14239310Y-16223031D01*
X14239310Y-16223031D02*
X14248834Y-16242079D01*
X14248834Y-16242079D02*
X14248834Y-16261127D01*
X14248834Y-16261127D02*
X14239310Y-16289698D01*
X14239310Y-16289698D02*
X14125024Y-16403984D01*
X14125024Y-16403984D02*
X14248834Y-16403984D01*
X14486929Y-16403984D02*
X14486929Y-16203984D01*
X14572644Y-16403984D02*
X14572644Y-16299222D01*
X14572644Y-16299222D02*
X14563120Y-16280174D01*
X14563120Y-16280174D02*
X14544072Y-16270650D01*
X14544072Y-16270650D02*
X14515501Y-16270650D01*
X14515501Y-16270650D02*
X14496453Y-16280174D01*
X14496453Y-16280174D02*
X14486929Y-16289698D01*
X14696453Y-16403984D02*
X14677405Y-16394460D01*
X14677405Y-16394460D02*
X14667882Y-16384936D01*
X14667882Y-16384936D02*
X14658358Y-16365888D01*
X14658358Y-16365888D02*
X14658358Y-16308746D01*
X14658358Y-16308746D02*
X14667882Y-16289698D01*
X14667882Y-16289698D02*
X14677405Y-16280174D01*
X14677405Y-16280174D02*
X14696453Y-16270650D01*
X14696453Y-16270650D02*
X14725025Y-16270650D01*
X14725025Y-16270650D02*
X14744072Y-16280174D01*
X14744072Y-16280174D02*
X14753596Y-16289698D01*
X14753596Y-16289698D02*
X14763120Y-16308746D01*
X14763120Y-16308746D02*
X14763120Y-16365888D01*
X14763120Y-16365888D02*
X14753596Y-16384936D01*
X14753596Y-16384936D02*
X14744072Y-16394460D01*
X14744072Y-16394460D02*
X14725025Y-16403984D01*
X14725025Y-16403984D02*
X14696453Y-16403984D01*
X14877405Y-16403984D02*
X14858358Y-16394460D01*
X14858358Y-16394460D02*
X14848834Y-16375412D01*
X14848834Y-16375412D02*
X14848834Y-16203984D01*
X15029786Y-16394460D02*
X15010739Y-16403984D01*
X15010739Y-16403984D02*
X14972644Y-16403984D01*
X14972644Y-16403984D02*
X14953596Y-16394460D01*
X14953596Y-16394460D02*
X14944072Y-16375412D01*
X14944072Y-16375412D02*
X14944072Y-16299222D01*
X14944072Y-16299222D02*
X14953596Y-16280174D01*
X14953596Y-16280174D02*
X14972644Y-16270650D01*
X14972644Y-16270650D02*
X15010739Y-16270650D01*
X15010739Y-16270650D02*
X15029786Y-16280174D01*
X15029786Y-16280174D02*
X15039310Y-16299222D01*
X15039310Y-16299222D02*
X15039310Y-16318269D01*
X15039310Y-16318269D02*
X14944072Y-16337317D01*
X15115501Y-16394460D02*
X15134548Y-16403984D01*
X15134548Y-16403984D02*
X15172644Y-16403984D01*
X15172644Y-16403984D02*
X15191691Y-16394460D01*
X15191691Y-16394460D02*
X15201215Y-16375412D01*
X15201215Y-16375412D02*
X15201215Y-16365888D01*
X15201215Y-16365888D02*
X15191691Y-16346841D01*
X15191691Y-16346841D02*
X15172644Y-16337317D01*
X15172644Y-16337317D02*
X15144072Y-16337317D01*
X15144072Y-16337317D02*
X15125025Y-16327793D01*
X15125025Y-16327793D02*
X15115501Y-16308746D01*
X15115501Y-16308746D02*
X15115501Y-16299222D01*
X15115501Y-16299222D02*
X15125025Y-16280174D01*
X15125025Y-16280174D02*
X15144072Y-16270650D01*
X15144072Y-16270650D02*
X15172644Y-16270650D01*
X15172644Y-16270650D02*
X15191691Y-16280174D01*
X15267882Y-16480174D02*
X15277406Y-16470650D01*
X15277406Y-16470650D02*
X15296453Y-16442079D01*
X15296453Y-16442079D02*
X15305977Y-16423031D01*
X15305977Y-16423031D02*
X15315501Y-16394460D01*
X15315501Y-16394460D02*
X15325025Y-16346841D01*
X15325025Y-16346841D02*
X15325025Y-16308746D01*
X15325025Y-16308746D02*
X15315501Y-16261127D01*
X15315501Y-16261127D02*
X15305977Y-16232555D01*
X15305977Y-16232555D02*
X15296453Y-16213508D01*
X15296453Y-16213508D02*
X15277406Y-16184936D01*
X15277406Y-16184936D02*
X15267882Y-16175412D01*
D12*
X10212343Y-16531500D02*
X10302343Y-16621500D01*
X10302343Y-16531500D02*
X10212343Y-16621500D01*
X10257343Y-16531500D02*
X10257343Y-16621500D01*
X10212343Y-16576500D02*
X10302343Y-16576500D01*
D11*
X10601215Y-16467984D02*
X10620262Y-16467984D01*
X10620262Y-16467984D02*
X10639310Y-16477508D01*
X10639310Y-16477508D02*
X10648834Y-16487031D01*
X10648834Y-16487031D02*
X10658358Y-16506079D01*
X10658358Y-16506079D02*
X10667881Y-16544174D01*
X10667881Y-16544174D02*
X10667881Y-16591793D01*
X10667881Y-16591793D02*
X10658358Y-16629888D01*
X10658358Y-16629888D02*
X10648834Y-16648936D01*
X10648834Y-16648936D02*
X10639310Y-16658460D01*
X10639310Y-16658460D02*
X10620262Y-16667984D01*
X10620262Y-16667984D02*
X10601215Y-16667984D01*
X10601215Y-16667984D02*
X10582167Y-16658460D01*
X10582167Y-16658460D02*
X10572643Y-16648936D01*
X10572643Y-16648936D02*
X10563119Y-16629888D01*
X10563119Y-16629888D02*
X10553596Y-16591793D01*
X10553596Y-16591793D02*
X10553596Y-16544174D01*
X10553596Y-16544174D02*
X10563119Y-16506079D01*
X10563119Y-16506079D02*
X10572643Y-16487031D01*
X10572643Y-16487031D02*
X10582167Y-16477508D01*
X10582167Y-16477508D02*
X10601215Y-16467984D01*
X10753596Y-16648936D02*
X10763119Y-16658460D01*
X10763119Y-16658460D02*
X10753596Y-16667984D01*
X10753596Y-16667984D02*
X10744072Y-16658460D01*
X10744072Y-16658460D02*
X10753596Y-16648936D01*
X10753596Y-16648936D02*
X10753596Y-16667984D01*
X10858358Y-16667984D02*
X10896453Y-16667984D01*
X10896453Y-16667984D02*
X10915500Y-16658460D01*
X10915500Y-16658460D02*
X10925024Y-16648936D01*
X10925024Y-16648936D02*
X10944072Y-16620365D01*
X10944072Y-16620365D02*
X10953596Y-16582269D01*
X10953596Y-16582269D02*
X10953596Y-16506079D01*
X10953596Y-16506079D02*
X10944072Y-16487031D01*
X10944072Y-16487031D02*
X10934548Y-16477508D01*
X10934548Y-16477508D02*
X10915500Y-16467984D01*
X10915500Y-16467984D02*
X10877405Y-16467984D01*
X10877405Y-16467984D02*
X10858358Y-16477508D01*
X10858358Y-16477508D02*
X10848834Y-16487031D01*
X10848834Y-16487031D02*
X10839310Y-16506079D01*
X10839310Y-16506079D02*
X10839310Y-16553698D01*
X10839310Y-16553698D02*
X10848834Y-16572746D01*
X10848834Y-16572746D02*
X10858358Y-16582269D01*
X10858358Y-16582269D02*
X10877405Y-16591793D01*
X10877405Y-16591793D02*
X10915500Y-16591793D01*
X10915500Y-16591793D02*
X10934548Y-16582269D01*
X10934548Y-16582269D02*
X10944072Y-16572746D01*
X10944072Y-16572746D02*
X10953596Y-16553698D01*
X11077405Y-16467984D02*
X11096453Y-16467984D01*
X11096453Y-16467984D02*
X11115500Y-16477508D01*
X11115500Y-16477508D02*
X11125024Y-16487031D01*
X11125024Y-16487031D02*
X11134548Y-16506079D01*
X11134548Y-16506079D02*
X11144072Y-16544174D01*
X11144072Y-16544174D02*
X11144072Y-16591793D01*
X11144072Y-16591793D02*
X11134548Y-16629888D01*
X11134548Y-16629888D02*
X11125024Y-16648936D01*
X11125024Y-16648936D02*
X11115500Y-16658460D01*
X11115500Y-16658460D02*
X11096453Y-16667984D01*
X11096453Y-16667984D02*
X11077405Y-16667984D01*
X11077405Y-16667984D02*
X11058358Y-16658460D01*
X11058358Y-16658460D02*
X11048834Y-16648936D01*
X11048834Y-16648936D02*
X11039310Y-16629888D01*
X11039310Y-16629888D02*
X11029786Y-16591793D01*
X11029786Y-16591793D02*
X11029786Y-16544174D01*
X11029786Y-16544174D02*
X11039310Y-16506079D01*
X11039310Y-16506079D02*
X11048834Y-16487031D01*
X11048834Y-16487031D02*
X11058358Y-16477508D01*
X11058358Y-16477508D02*
X11077405Y-16467984D01*
X11267881Y-16467984D02*
X11286929Y-16467984D01*
X11286929Y-16467984D02*
X11305977Y-16477508D01*
X11305977Y-16477508D02*
X11315500Y-16487031D01*
X11315500Y-16487031D02*
X11325024Y-16506079D01*
X11325024Y-16506079D02*
X11334548Y-16544174D01*
X11334548Y-16544174D02*
X11334548Y-16591793D01*
X11334548Y-16591793D02*
X11325024Y-16629888D01*
X11325024Y-16629888D02*
X11315500Y-16648936D01*
X11315500Y-16648936D02*
X11305977Y-16658460D01*
X11305977Y-16658460D02*
X11286929Y-16667984D01*
X11286929Y-16667984D02*
X11267881Y-16667984D01*
X11267881Y-16667984D02*
X11248834Y-16658460D01*
X11248834Y-16658460D02*
X11239310Y-16648936D01*
X11239310Y-16648936D02*
X11229786Y-16629888D01*
X11229786Y-16629888D02*
X11220262Y-16591793D01*
X11220262Y-16591793D02*
X11220262Y-16544174D01*
X11220262Y-16544174D02*
X11229786Y-16506079D01*
X11229786Y-16506079D02*
X11239310Y-16487031D01*
X11239310Y-16487031D02*
X11248834Y-16477508D01*
X11248834Y-16477508D02*
X11267881Y-16467984D01*
X11420262Y-16667984D02*
X11420262Y-16534650D01*
X11420262Y-16553698D02*
X11429786Y-16544174D01*
X11429786Y-16544174D02*
X11448834Y-16534650D01*
X11448834Y-16534650D02*
X11477405Y-16534650D01*
X11477405Y-16534650D02*
X11496453Y-16544174D01*
X11496453Y-16544174D02*
X11505977Y-16563222D01*
X11505977Y-16563222D02*
X11505977Y-16667984D01*
X11505977Y-16563222D02*
X11515500Y-16544174D01*
X11515500Y-16544174D02*
X11534548Y-16534650D01*
X11534548Y-16534650D02*
X11563119Y-16534650D01*
X11563119Y-16534650D02*
X11582167Y-16544174D01*
X11582167Y-16544174D02*
X11591691Y-16563222D01*
X11591691Y-16563222D02*
X11591691Y-16667984D01*
X11686929Y-16667984D02*
X11686929Y-16534650D01*
X11686929Y-16553698D02*
X11696453Y-16544174D01*
X11696453Y-16544174D02*
X11715500Y-16534650D01*
X11715500Y-16534650D02*
X11744072Y-16534650D01*
X11744072Y-16534650D02*
X11763119Y-16544174D01*
X11763119Y-16544174D02*
X11772643Y-16563222D01*
X11772643Y-16563222D02*
X11772643Y-16667984D01*
X11772643Y-16563222D02*
X11782167Y-16544174D01*
X11782167Y-16544174D02*
X11801215Y-16534650D01*
X11801215Y-16534650D02*
X11829786Y-16534650D01*
X11829786Y-16534650D02*
X11848834Y-16544174D01*
X11848834Y-16544174D02*
X11858358Y-16563222D01*
X11858358Y-16563222D02*
X11858358Y-16667984D01*
X12248834Y-16458460D02*
X12077405Y-16715603D01*
X12505977Y-16467984D02*
X12525024Y-16467984D01*
X12525024Y-16467984D02*
X12544072Y-16477508D01*
X12544072Y-16477508D02*
X12553596Y-16487031D01*
X12553596Y-16487031D02*
X12563120Y-16506079D01*
X12563120Y-16506079D02*
X12572643Y-16544174D01*
X12572643Y-16544174D02*
X12572643Y-16591793D01*
X12572643Y-16591793D02*
X12563120Y-16629888D01*
X12563120Y-16629888D02*
X12553596Y-16648936D01*
X12553596Y-16648936D02*
X12544072Y-16658460D01*
X12544072Y-16658460D02*
X12525024Y-16667984D01*
X12525024Y-16667984D02*
X12505977Y-16667984D01*
X12505977Y-16667984D02*
X12486929Y-16658460D01*
X12486929Y-16658460D02*
X12477405Y-16648936D01*
X12477405Y-16648936D02*
X12467881Y-16629888D01*
X12467881Y-16629888D02*
X12458358Y-16591793D01*
X12458358Y-16591793D02*
X12458358Y-16544174D01*
X12458358Y-16544174D02*
X12467881Y-16506079D01*
X12467881Y-16506079D02*
X12477405Y-16487031D01*
X12477405Y-16487031D02*
X12486929Y-16477508D01*
X12486929Y-16477508D02*
X12505977Y-16467984D01*
X12658358Y-16648936D02*
X12667881Y-16658460D01*
X12667881Y-16658460D02*
X12658358Y-16667984D01*
X12658358Y-16667984D02*
X12648834Y-16658460D01*
X12648834Y-16658460D02*
X12658358Y-16648936D01*
X12658358Y-16648936D02*
X12658358Y-16667984D01*
X12791691Y-16467984D02*
X12810739Y-16467984D01*
X12810739Y-16467984D02*
X12829786Y-16477508D01*
X12829786Y-16477508D02*
X12839310Y-16487031D01*
X12839310Y-16487031D02*
X12848834Y-16506079D01*
X12848834Y-16506079D02*
X12858358Y-16544174D01*
X12858358Y-16544174D02*
X12858358Y-16591793D01*
X12858358Y-16591793D02*
X12848834Y-16629888D01*
X12848834Y-16629888D02*
X12839310Y-16648936D01*
X12839310Y-16648936D02*
X12829786Y-16658460D01*
X12829786Y-16658460D02*
X12810739Y-16667984D01*
X12810739Y-16667984D02*
X12791691Y-16667984D01*
X12791691Y-16667984D02*
X12772643Y-16658460D01*
X12772643Y-16658460D02*
X12763120Y-16648936D01*
X12763120Y-16648936D02*
X12753596Y-16629888D01*
X12753596Y-16629888D02*
X12744072Y-16591793D01*
X12744072Y-16591793D02*
X12744072Y-16544174D01*
X12744072Y-16544174D02*
X12753596Y-16506079D01*
X12753596Y-16506079D02*
X12763120Y-16487031D01*
X12763120Y-16487031D02*
X12772643Y-16477508D01*
X12772643Y-16477508D02*
X12791691Y-16467984D01*
X12925024Y-16467984D02*
X13048834Y-16467984D01*
X13048834Y-16467984D02*
X12982167Y-16544174D01*
X12982167Y-16544174D02*
X13010739Y-16544174D01*
X13010739Y-16544174D02*
X13029786Y-16553698D01*
X13029786Y-16553698D02*
X13039310Y-16563222D01*
X13039310Y-16563222D02*
X13048834Y-16582269D01*
X13048834Y-16582269D02*
X13048834Y-16629888D01*
X13048834Y-16629888D02*
X13039310Y-16648936D01*
X13039310Y-16648936D02*
X13029786Y-16658460D01*
X13029786Y-16658460D02*
X13010739Y-16667984D01*
X13010739Y-16667984D02*
X12953596Y-16667984D01*
X12953596Y-16667984D02*
X12934548Y-16658460D01*
X12934548Y-16658460D02*
X12925024Y-16648936D01*
X13229786Y-16467984D02*
X13134548Y-16467984D01*
X13134548Y-16467984D02*
X13125024Y-16563222D01*
X13125024Y-16563222D02*
X13134548Y-16553698D01*
X13134548Y-16553698D02*
X13153596Y-16544174D01*
X13153596Y-16544174D02*
X13201215Y-16544174D01*
X13201215Y-16544174D02*
X13220262Y-16553698D01*
X13220262Y-16553698D02*
X13229786Y-16563222D01*
X13229786Y-16563222D02*
X13239310Y-16582269D01*
X13239310Y-16582269D02*
X13239310Y-16629888D01*
X13239310Y-16629888D02*
X13229786Y-16648936D01*
X13229786Y-16648936D02*
X13220262Y-16658460D01*
X13220262Y-16658460D02*
X13201215Y-16667984D01*
X13201215Y-16667984D02*
X13153596Y-16667984D01*
X13153596Y-16667984D02*
X13134548Y-16658460D01*
X13134548Y-16658460D02*
X13125024Y-16648936D01*
X13410739Y-16534650D02*
X13410739Y-16667984D01*
X13363120Y-16458460D02*
X13315501Y-16601317D01*
X13315501Y-16601317D02*
X13439310Y-16601317D01*
X13505977Y-16467984D02*
X13505977Y-16506079D01*
X13582167Y-16467984D02*
X13582167Y-16506079D01*
X13877405Y-16744174D02*
X13867882Y-16734650D01*
X13867882Y-16734650D02*
X13848834Y-16706079D01*
X13848834Y-16706079D02*
X13839310Y-16687031D01*
X13839310Y-16687031D02*
X13829786Y-16658460D01*
X13829786Y-16658460D02*
X13820263Y-16610841D01*
X13820263Y-16610841D02*
X13820263Y-16572746D01*
X13820263Y-16572746D02*
X13829786Y-16525127D01*
X13829786Y-16525127D02*
X13839310Y-16496555D01*
X13839310Y-16496555D02*
X13848834Y-16477508D01*
X13848834Y-16477508D02*
X13867882Y-16448936D01*
X13867882Y-16448936D02*
X13877405Y-16439412D01*
X13982167Y-16553698D02*
X13963120Y-16544174D01*
X13963120Y-16544174D02*
X13953596Y-16534650D01*
X13953596Y-16534650D02*
X13944072Y-16515603D01*
X13944072Y-16515603D02*
X13944072Y-16506079D01*
X13944072Y-16506079D02*
X13953596Y-16487031D01*
X13953596Y-16487031D02*
X13963120Y-16477508D01*
X13963120Y-16477508D02*
X13982167Y-16467984D01*
X13982167Y-16467984D02*
X14020263Y-16467984D01*
X14020263Y-16467984D02*
X14039310Y-16477508D01*
X14039310Y-16477508D02*
X14048834Y-16487031D01*
X14048834Y-16487031D02*
X14058358Y-16506079D01*
X14058358Y-16506079D02*
X14058358Y-16515603D01*
X14058358Y-16515603D02*
X14048834Y-16534650D01*
X14048834Y-16534650D02*
X14039310Y-16544174D01*
X14039310Y-16544174D02*
X14020263Y-16553698D01*
X14020263Y-16553698D02*
X13982167Y-16553698D01*
X13982167Y-16553698D02*
X13963120Y-16563222D01*
X13963120Y-16563222D02*
X13953596Y-16572746D01*
X13953596Y-16572746D02*
X13944072Y-16591793D01*
X13944072Y-16591793D02*
X13944072Y-16629888D01*
X13944072Y-16629888D02*
X13953596Y-16648936D01*
X13953596Y-16648936D02*
X13963120Y-16658460D01*
X13963120Y-16658460D02*
X13982167Y-16667984D01*
X13982167Y-16667984D02*
X14020263Y-16667984D01*
X14020263Y-16667984D02*
X14039310Y-16658460D01*
X14039310Y-16658460D02*
X14048834Y-16648936D01*
X14048834Y-16648936D02*
X14058358Y-16629888D01*
X14058358Y-16629888D02*
X14058358Y-16591793D01*
X14058358Y-16591793D02*
X14048834Y-16572746D01*
X14048834Y-16572746D02*
X14039310Y-16563222D01*
X14039310Y-16563222D02*
X14020263Y-16553698D01*
X14296453Y-16667984D02*
X14296453Y-16467984D01*
X14382167Y-16667984D02*
X14382167Y-16563222D01*
X14382167Y-16563222D02*
X14372644Y-16544174D01*
X14372644Y-16544174D02*
X14353596Y-16534650D01*
X14353596Y-16534650D02*
X14325024Y-16534650D01*
X14325024Y-16534650D02*
X14305977Y-16544174D01*
X14305977Y-16544174D02*
X14296453Y-16553698D01*
X14505977Y-16667984D02*
X14486929Y-16658460D01*
X14486929Y-16658460D02*
X14477405Y-16648936D01*
X14477405Y-16648936D02*
X14467882Y-16629888D01*
X14467882Y-16629888D02*
X14467882Y-16572746D01*
X14467882Y-16572746D02*
X14477405Y-16553698D01*
X14477405Y-16553698D02*
X14486929Y-16544174D01*
X14486929Y-16544174D02*
X14505977Y-16534650D01*
X14505977Y-16534650D02*
X14534548Y-16534650D01*
X14534548Y-16534650D02*
X14553596Y-16544174D01*
X14553596Y-16544174D02*
X14563120Y-16553698D01*
X14563120Y-16553698D02*
X14572644Y-16572746D01*
X14572644Y-16572746D02*
X14572644Y-16629888D01*
X14572644Y-16629888D02*
X14563120Y-16648936D01*
X14563120Y-16648936D02*
X14553596Y-16658460D01*
X14553596Y-16658460D02*
X14534548Y-16667984D01*
X14534548Y-16667984D02*
X14505977Y-16667984D01*
X14686929Y-16667984D02*
X14667882Y-16658460D01*
X14667882Y-16658460D02*
X14658358Y-16639412D01*
X14658358Y-16639412D02*
X14658358Y-16467984D01*
X14839310Y-16658460D02*
X14820263Y-16667984D01*
X14820263Y-16667984D02*
X14782167Y-16667984D01*
X14782167Y-16667984D02*
X14763120Y-16658460D01*
X14763120Y-16658460D02*
X14753596Y-16639412D01*
X14753596Y-16639412D02*
X14753596Y-16563222D01*
X14753596Y-16563222D02*
X14763120Y-16544174D01*
X14763120Y-16544174D02*
X14782167Y-16534650D01*
X14782167Y-16534650D02*
X14820263Y-16534650D01*
X14820263Y-16534650D02*
X14839310Y-16544174D01*
X14839310Y-16544174D02*
X14848834Y-16563222D01*
X14848834Y-16563222D02*
X14848834Y-16582269D01*
X14848834Y-16582269D02*
X14753596Y-16601317D01*
X14925025Y-16658460D02*
X14944072Y-16667984D01*
X14944072Y-16667984D02*
X14982167Y-16667984D01*
X14982167Y-16667984D02*
X15001215Y-16658460D01*
X15001215Y-16658460D02*
X15010739Y-16639412D01*
X15010739Y-16639412D02*
X15010739Y-16629888D01*
X15010739Y-16629888D02*
X15001215Y-16610841D01*
X15001215Y-16610841D02*
X14982167Y-16601317D01*
X14982167Y-16601317D02*
X14953596Y-16601317D01*
X14953596Y-16601317D02*
X14934548Y-16591793D01*
X14934548Y-16591793D02*
X14925025Y-16572746D01*
X14925025Y-16572746D02*
X14925025Y-16563222D01*
X14925025Y-16563222D02*
X14934548Y-16544174D01*
X14934548Y-16544174D02*
X14953596Y-16534650D01*
X14953596Y-16534650D02*
X14982167Y-16534650D01*
X14982167Y-16534650D02*
X15001215Y-16544174D01*
X15077406Y-16744174D02*
X15086929Y-16734650D01*
X15086929Y-16734650D02*
X15105977Y-16706079D01*
X15105977Y-16706079D02*
X15115501Y-16687031D01*
X15115501Y-16687031D02*
X15125025Y-16658460D01*
X15125025Y-16658460D02*
X15134548Y-16610841D01*
X15134548Y-16610841D02*
X15134548Y-16572746D01*
X15134548Y-16572746D02*
X15125025Y-16525127D01*
X15125025Y-16525127D02*
X15115501Y-16496555D01*
X15115501Y-16496555D02*
X15105977Y-16477508D01*
X15105977Y-16477508D02*
X15086929Y-16448936D01*
X15086929Y-16448936D02*
X15077406Y-16439412D01*
D13*
X10162643Y-16770650D02*
X10302343Y-16910350D01*
X10302343Y-16770650D02*
X10162643Y-16910350D01*
X10281885Y-16889892D02*
X10281885Y-16791108D01*
X10183101Y-16791108D01*
X10183101Y-16889892D01*
X10281885Y-16889892D01*
D11*
X10667881Y-16931984D02*
X10553596Y-16931984D01*
X10610738Y-16931984D02*
X10610738Y-16731984D01*
X10610738Y-16731984D02*
X10591691Y-16760555D01*
X10591691Y-16760555D02*
X10572643Y-16779603D01*
X10572643Y-16779603D02*
X10553596Y-16789127D01*
X10753596Y-16912936D02*
X10763119Y-16922460D01*
X10763119Y-16922460D02*
X10753596Y-16931984D01*
X10753596Y-16931984D02*
X10744072Y-16922460D01*
X10744072Y-16922460D02*
X10753596Y-16912936D01*
X10753596Y-16912936D02*
X10753596Y-16931984D01*
X10829786Y-16731984D02*
X10953596Y-16731984D01*
X10953596Y-16731984D02*
X10886929Y-16808174D01*
X10886929Y-16808174D02*
X10915500Y-16808174D01*
X10915500Y-16808174D02*
X10934548Y-16817698D01*
X10934548Y-16817698D02*
X10944072Y-16827222D01*
X10944072Y-16827222D02*
X10953596Y-16846270D01*
X10953596Y-16846270D02*
X10953596Y-16893889D01*
X10953596Y-16893889D02*
X10944072Y-16912936D01*
X10944072Y-16912936D02*
X10934548Y-16922460D01*
X10934548Y-16922460D02*
X10915500Y-16931984D01*
X10915500Y-16931984D02*
X10858358Y-16931984D01*
X10858358Y-16931984D02*
X10839310Y-16922460D01*
X10839310Y-16922460D02*
X10829786Y-16912936D01*
X11048834Y-16931984D02*
X11086929Y-16931984D01*
X11086929Y-16931984D02*
X11105977Y-16922460D01*
X11105977Y-16922460D02*
X11115500Y-16912936D01*
X11115500Y-16912936D02*
X11134548Y-16884365D01*
X11134548Y-16884365D02*
X11144072Y-16846270D01*
X11144072Y-16846270D02*
X11144072Y-16770079D01*
X11144072Y-16770079D02*
X11134548Y-16751031D01*
X11134548Y-16751031D02*
X11125024Y-16741508D01*
X11125024Y-16741508D02*
X11105977Y-16731984D01*
X11105977Y-16731984D02*
X11067881Y-16731984D01*
X11067881Y-16731984D02*
X11048834Y-16741508D01*
X11048834Y-16741508D02*
X11039310Y-16751031D01*
X11039310Y-16751031D02*
X11029786Y-16770079D01*
X11029786Y-16770079D02*
X11029786Y-16817698D01*
X11029786Y-16817698D02*
X11039310Y-16836746D01*
X11039310Y-16836746D02*
X11048834Y-16846270D01*
X11048834Y-16846270D02*
X11067881Y-16855793D01*
X11067881Y-16855793D02*
X11105977Y-16855793D01*
X11105977Y-16855793D02*
X11125024Y-16846270D01*
X11125024Y-16846270D02*
X11134548Y-16836746D01*
X11134548Y-16836746D02*
X11144072Y-16817698D01*
X11210738Y-16731984D02*
X11344072Y-16731984D01*
X11344072Y-16731984D02*
X11258357Y-16931984D01*
X11420262Y-16931984D02*
X11420262Y-16798650D01*
X11420262Y-16817698D02*
X11429786Y-16808174D01*
X11429786Y-16808174D02*
X11448834Y-16798650D01*
X11448834Y-16798650D02*
X11477405Y-16798650D01*
X11477405Y-16798650D02*
X11496453Y-16808174D01*
X11496453Y-16808174D02*
X11505977Y-16827222D01*
X11505977Y-16827222D02*
X11505977Y-16931984D01*
X11505977Y-16827222D02*
X11515500Y-16808174D01*
X11515500Y-16808174D02*
X11534548Y-16798650D01*
X11534548Y-16798650D02*
X11563119Y-16798650D01*
X11563119Y-16798650D02*
X11582167Y-16808174D01*
X11582167Y-16808174D02*
X11591691Y-16827222D01*
X11591691Y-16827222D02*
X11591691Y-16931984D01*
X11686929Y-16931984D02*
X11686929Y-16798650D01*
X11686929Y-16817698D02*
X11696453Y-16808174D01*
X11696453Y-16808174D02*
X11715500Y-16798650D01*
X11715500Y-16798650D02*
X11744072Y-16798650D01*
X11744072Y-16798650D02*
X11763119Y-16808174D01*
X11763119Y-16808174D02*
X11772643Y-16827222D01*
X11772643Y-16827222D02*
X11772643Y-16931984D01*
X11772643Y-16827222D02*
X11782167Y-16808174D01*
X11782167Y-16808174D02*
X11801215Y-16798650D01*
X11801215Y-16798650D02*
X11829786Y-16798650D01*
X11829786Y-16798650D02*
X11848834Y-16808174D01*
X11848834Y-16808174D02*
X11858358Y-16827222D01*
X11858358Y-16827222D02*
X11858358Y-16931984D01*
X12248834Y-16722460D02*
X12077405Y-16979603D01*
X12505977Y-16731984D02*
X12525024Y-16731984D01*
X12525024Y-16731984D02*
X12544072Y-16741508D01*
X12544072Y-16741508D02*
X12553596Y-16751031D01*
X12553596Y-16751031D02*
X12563120Y-16770079D01*
X12563120Y-16770079D02*
X12572643Y-16808174D01*
X12572643Y-16808174D02*
X12572643Y-16855793D01*
X12572643Y-16855793D02*
X12563120Y-16893889D01*
X12563120Y-16893889D02*
X12553596Y-16912936D01*
X12553596Y-16912936D02*
X12544072Y-16922460D01*
X12544072Y-16922460D02*
X12525024Y-16931984D01*
X12525024Y-16931984D02*
X12505977Y-16931984D01*
X12505977Y-16931984D02*
X12486929Y-16922460D01*
X12486929Y-16922460D02*
X12477405Y-16912936D01*
X12477405Y-16912936D02*
X12467881Y-16893889D01*
X12467881Y-16893889D02*
X12458358Y-16855793D01*
X12458358Y-16855793D02*
X12458358Y-16808174D01*
X12458358Y-16808174D02*
X12467881Y-16770079D01*
X12467881Y-16770079D02*
X12477405Y-16751031D01*
X12477405Y-16751031D02*
X12486929Y-16741508D01*
X12486929Y-16741508D02*
X12505977Y-16731984D01*
X12658358Y-16912936D02*
X12667881Y-16922460D01*
X12667881Y-16922460D02*
X12658358Y-16931984D01*
X12658358Y-16931984D02*
X12648834Y-16922460D01*
X12648834Y-16922460D02*
X12658358Y-16912936D01*
X12658358Y-16912936D02*
X12658358Y-16931984D01*
X12791691Y-16731984D02*
X12810739Y-16731984D01*
X12810739Y-16731984D02*
X12829786Y-16741508D01*
X12829786Y-16741508D02*
X12839310Y-16751031D01*
X12839310Y-16751031D02*
X12848834Y-16770079D01*
X12848834Y-16770079D02*
X12858358Y-16808174D01*
X12858358Y-16808174D02*
X12858358Y-16855793D01*
X12858358Y-16855793D02*
X12848834Y-16893889D01*
X12848834Y-16893889D02*
X12839310Y-16912936D01*
X12839310Y-16912936D02*
X12829786Y-16922460D01*
X12829786Y-16922460D02*
X12810739Y-16931984D01*
X12810739Y-16931984D02*
X12791691Y-16931984D01*
X12791691Y-16931984D02*
X12772643Y-16922460D01*
X12772643Y-16922460D02*
X12763120Y-16912936D01*
X12763120Y-16912936D02*
X12753596Y-16893889D01*
X12753596Y-16893889D02*
X12744072Y-16855793D01*
X12744072Y-16855793D02*
X12744072Y-16808174D01*
X12744072Y-16808174D02*
X12753596Y-16770079D01*
X12753596Y-16770079D02*
X12763120Y-16751031D01*
X12763120Y-16751031D02*
X12772643Y-16741508D01*
X12772643Y-16741508D02*
X12791691Y-16731984D01*
X13039310Y-16731984D02*
X12944072Y-16731984D01*
X12944072Y-16731984D02*
X12934548Y-16827222D01*
X12934548Y-16827222D02*
X12944072Y-16817698D01*
X12944072Y-16817698D02*
X12963120Y-16808174D01*
X12963120Y-16808174D02*
X13010739Y-16808174D01*
X13010739Y-16808174D02*
X13029786Y-16817698D01*
X13029786Y-16817698D02*
X13039310Y-16827222D01*
X13039310Y-16827222D02*
X13048834Y-16846270D01*
X13048834Y-16846270D02*
X13048834Y-16893889D01*
X13048834Y-16893889D02*
X13039310Y-16912936D01*
X13039310Y-16912936D02*
X13029786Y-16922460D01*
X13029786Y-16922460D02*
X13010739Y-16931984D01*
X13010739Y-16931984D02*
X12963120Y-16931984D01*
X12963120Y-16931984D02*
X12944072Y-16922460D01*
X12944072Y-16922460D02*
X12934548Y-16912936D01*
X13229786Y-16731984D02*
X13134548Y-16731984D01*
X13134548Y-16731984D02*
X13125024Y-16827222D01*
X13125024Y-16827222D02*
X13134548Y-16817698D01*
X13134548Y-16817698D02*
X13153596Y-16808174D01*
X13153596Y-16808174D02*
X13201215Y-16808174D01*
X13201215Y-16808174D02*
X13220262Y-16817698D01*
X13220262Y-16817698D02*
X13229786Y-16827222D01*
X13229786Y-16827222D02*
X13239310Y-16846270D01*
X13239310Y-16846270D02*
X13239310Y-16893889D01*
X13239310Y-16893889D02*
X13229786Y-16912936D01*
X13229786Y-16912936D02*
X13220262Y-16922460D01*
X13220262Y-16922460D02*
X13201215Y-16931984D01*
X13201215Y-16931984D02*
X13153596Y-16931984D01*
X13153596Y-16931984D02*
X13134548Y-16922460D01*
X13134548Y-16922460D02*
X13125024Y-16912936D01*
X13363120Y-16731984D02*
X13382167Y-16731984D01*
X13382167Y-16731984D02*
X13401215Y-16741508D01*
X13401215Y-16741508D02*
X13410739Y-16751031D01*
X13410739Y-16751031D02*
X13420262Y-16770079D01*
X13420262Y-16770079D02*
X13429786Y-16808174D01*
X13429786Y-16808174D02*
X13429786Y-16855793D01*
X13429786Y-16855793D02*
X13420262Y-16893889D01*
X13420262Y-16893889D02*
X13410739Y-16912936D01*
X13410739Y-16912936D02*
X13401215Y-16922460D01*
X13401215Y-16922460D02*
X13382167Y-16931984D01*
X13382167Y-16931984D02*
X13363120Y-16931984D01*
X13363120Y-16931984D02*
X13344072Y-16922460D01*
X13344072Y-16922460D02*
X13334548Y-16912936D01*
X13334548Y-16912936D02*
X13325024Y-16893889D01*
X13325024Y-16893889D02*
X13315501Y-16855793D01*
X13315501Y-16855793D02*
X13315501Y-16808174D01*
X13315501Y-16808174D02*
X13325024Y-16770079D01*
X13325024Y-16770079D02*
X13334548Y-16751031D01*
X13334548Y-16751031D02*
X13344072Y-16741508D01*
X13344072Y-16741508D02*
X13363120Y-16731984D01*
X13505977Y-16731984D02*
X13505977Y-16770079D01*
X13582167Y-16731984D02*
X13582167Y-16770079D01*
X13877405Y-17008174D02*
X13867882Y-16998650D01*
X13867882Y-16998650D02*
X13848834Y-16970079D01*
X13848834Y-16970079D02*
X13839310Y-16951031D01*
X13839310Y-16951031D02*
X13829786Y-16922460D01*
X13829786Y-16922460D02*
X13820263Y-16874841D01*
X13820263Y-16874841D02*
X13820263Y-16836746D01*
X13820263Y-16836746D02*
X13829786Y-16789127D01*
X13829786Y-16789127D02*
X13839310Y-16760555D01*
X13839310Y-16760555D02*
X13848834Y-16741508D01*
X13848834Y-16741508D02*
X13867882Y-16712936D01*
X13867882Y-16712936D02*
X13877405Y-16703412D01*
X13982167Y-16817698D02*
X13963120Y-16808174D01*
X13963120Y-16808174D02*
X13953596Y-16798650D01*
X13953596Y-16798650D02*
X13944072Y-16779603D01*
X13944072Y-16779603D02*
X13944072Y-16770079D01*
X13944072Y-16770079D02*
X13953596Y-16751031D01*
X13953596Y-16751031D02*
X13963120Y-16741508D01*
X13963120Y-16741508D02*
X13982167Y-16731984D01*
X13982167Y-16731984D02*
X14020263Y-16731984D01*
X14020263Y-16731984D02*
X14039310Y-16741508D01*
X14039310Y-16741508D02*
X14048834Y-16751031D01*
X14048834Y-16751031D02*
X14058358Y-16770079D01*
X14058358Y-16770079D02*
X14058358Y-16779603D01*
X14058358Y-16779603D02*
X14048834Y-16798650D01*
X14048834Y-16798650D02*
X14039310Y-16808174D01*
X14039310Y-16808174D02*
X14020263Y-16817698D01*
X14020263Y-16817698D02*
X13982167Y-16817698D01*
X13982167Y-16817698D02*
X13963120Y-16827222D01*
X13963120Y-16827222D02*
X13953596Y-16836746D01*
X13953596Y-16836746D02*
X13944072Y-16855793D01*
X13944072Y-16855793D02*
X13944072Y-16893889D01*
X13944072Y-16893889D02*
X13953596Y-16912936D01*
X13953596Y-16912936D02*
X13963120Y-16922460D01*
X13963120Y-16922460D02*
X13982167Y-16931984D01*
X13982167Y-16931984D02*
X14020263Y-16931984D01*
X14020263Y-16931984D02*
X14039310Y-16922460D01*
X14039310Y-16922460D02*
X14048834Y-16912936D01*
X14048834Y-16912936D02*
X14058358Y-16893889D01*
X14058358Y-16893889D02*
X14058358Y-16855793D01*
X14058358Y-16855793D02*
X14048834Y-16836746D01*
X14048834Y-16836746D02*
X14039310Y-16827222D01*
X14039310Y-16827222D02*
X14020263Y-16817698D01*
X14296453Y-16931984D02*
X14296453Y-16731984D01*
X14382167Y-16931984D02*
X14382167Y-16827222D01*
X14382167Y-16827222D02*
X14372644Y-16808174D01*
X14372644Y-16808174D02*
X14353596Y-16798650D01*
X14353596Y-16798650D02*
X14325024Y-16798650D01*
X14325024Y-16798650D02*
X14305977Y-16808174D01*
X14305977Y-16808174D02*
X14296453Y-16817698D01*
X14505977Y-16931984D02*
X14486929Y-16922460D01*
X14486929Y-16922460D02*
X14477405Y-16912936D01*
X14477405Y-16912936D02*
X14467882Y-16893889D01*
X14467882Y-16893889D02*
X14467882Y-16836746D01*
X14467882Y-16836746D02*
X14477405Y-16817698D01*
X14477405Y-16817698D02*
X14486929Y-16808174D01*
X14486929Y-16808174D02*
X14505977Y-16798650D01*
X14505977Y-16798650D02*
X14534548Y-16798650D01*
X14534548Y-16798650D02*
X14553596Y-16808174D01*
X14553596Y-16808174D02*
X14563120Y-16817698D01*
X14563120Y-16817698D02*
X14572644Y-16836746D01*
X14572644Y-16836746D02*
X14572644Y-16893889D01*
X14572644Y-16893889D02*
X14563120Y-16912936D01*
X14563120Y-16912936D02*
X14553596Y-16922460D01*
X14553596Y-16922460D02*
X14534548Y-16931984D01*
X14534548Y-16931984D02*
X14505977Y-16931984D01*
X14686929Y-16931984D02*
X14667882Y-16922460D01*
X14667882Y-16922460D02*
X14658358Y-16903412D01*
X14658358Y-16903412D02*
X14658358Y-16731984D01*
X14839310Y-16922460D02*
X14820263Y-16931984D01*
X14820263Y-16931984D02*
X14782167Y-16931984D01*
X14782167Y-16931984D02*
X14763120Y-16922460D01*
X14763120Y-16922460D02*
X14753596Y-16903412D01*
X14753596Y-16903412D02*
X14753596Y-16827222D01*
X14753596Y-16827222D02*
X14763120Y-16808174D01*
X14763120Y-16808174D02*
X14782167Y-16798650D01*
X14782167Y-16798650D02*
X14820263Y-16798650D01*
X14820263Y-16798650D02*
X14839310Y-16808174D01*
X14839310Y-16808174D02*
X14848834Y-16827222D01*
X14848834Y-16827222D02*
X14848834Y-16846270D01*
X14848834Y-16846270D02*
X14753596Y-16865317D01*
X14925025Y-16922460D02*
X14944072Y-16931984D01*
X14944072Y-16931984D02*
X14982167Y-16931984D01*
X14982167Y-16931984D02*
X15001215Y-16922460D01*
X15001215Y-16922460D02*
X15010739Y-16903412D01*
X15010739Y-16903412D02*
X15010739Y-16893889D01*
X15010739Y-16893889D02*
X15001215Y-16874841D01*
X15001215Y-16874841D02*
X14982167Y-16865317D01*
X14982167Y-16865317D02*
X14953596Y-16865317D01*
X14953596Y-16865317D02*
X14934548Y-16855793D01*
X14934548Y-16855793D02*
X14925025Y-16836746D01*
X14925025Y-16836746D02*
X14925025Y-16827222D01*
X14925025Y-16827222D02*
X14934548Y-16808174D01*
X14934548Y-16808174D02*
X14953596Y-16798650D01*
X14953596Y-16798650D02*
X14982167Y-16798650D01*
X14982167Y-16798650D02*
X15001215Y-16808174D01*
X15077406Y-17008174D02*
X15086929Y-16998650D01*
X15086929Y-16998650D02*
X15105977Y-16970079D01*
X15105977Y-16970079D02*
X15115501Y-16951031D01*
X15115501Y-16951031D02*
X15125025Y-16922460D01*
X15125025Y-16922460D02*
X15134548Y-16874841D01*
X15134548Y-16874841D02*
X15134548Y-16836746D01*
X15134548Y-16836746D02*
X15125025Y-16789127D01*
X15125025Y-16789127D02*
X15115501Y-16760555D01*
X15115501Y-16760555D02*
X15105977Y-16741508D01*
X15105977Y-16741508D02*
X15086929Y-16712936D01*
X15086929Y-16712936D02*
X15077406Y-16703412D01*
M02*
