%TF.GenerationSoftware,KiCad,Pcbnew,8.0.8*%
%TF.CreationDate,2025-09-18T11:39:57+02:00*%
%TF.ProjectId,padv1,70616476-312e-46b6-9963-61645f706362,rev?*%
%TF.SameCoordinates,Original*%
%TF.FileFunction,Plated,1,4,PTH,Mixed*%
%TF.FilePolarity,Positive*%
%FSLAX46Y46*%
G04 Gerber Fmt 4.6, Leading zero omitted, Abs format (unit mm)*
G04 Created by KiCad (PCBNEW 8.0.8) date 2025-09-18 11:39:57*
%MOMM*%
%LPD*%
G01*
G04 APERTURE LIST*
%TA.AperFunction,ViaDrill*%
%ADD10C,0.300000*%
%TD*%
%TA.AperFunction,ComponentDrill*%
%ADD11C,0.300000*%
%TD*%
%TA.AperFunction,ViaDrill*%
%ADD12C,0.400000*%
%TD*%
%TA.AperFunction,ComponentDrill*%
%ADD13C,0.450000*%
%TD*%
G04 aperture for slot hole*
%TA.AperFunction,ComponentDrill*%
%ADD14C,0.650000*%
%TD*%
%TA.AperFunction,ComponentDrill*%
%ADD15C,0.889000*%
%TD*%
%TA.AperFunction,ComponentDrill*%
%ADD16C,0.900000*%
%TD*%
%TA.AperFunction,ComponentDrill*%
%ADD17C,1.397000*%
%TD*%
G04 APERTURE END LIST*
D10*
X110050000Y-96100000D03*
X126050000Y-97100000D03*
X133800000Y-92400000D03*
X137700000Y-91150000D03*
X171550000Y-141000000D03*
X171550000Y-141750000D03*
X171550000Y-142500000D03*
X178450000Y-129050000D03*
X178450000Y-130050000D03*
X178450000Y-131050000D03*
X185050000Y-129050000D03*
X185050000Y-130050000D03*
X185050000Y-131050000D03*
X189000000Y-130000000D03*
D11*
%TO.C,U1*%
X179860000Y-86750000D03*
X179860000Y-87850000D03*
X180410000Y-86200000D03*
X180410000Y-87300000D03*
X180410000Y-88400000D03*
X180960000Y-86750000D03*
X180960000Y-87850000D03*
X181510000Y-86200000D03*
X181510000Y-87300000D03*
X181510000Y-88400000D03*
X182060000Y-86750000D03*
X182060000Y-87850000D03*
%TD*%
D12*
X104800000Y-87850000D03*
X108700000Y-89900000D03*
X113850000Y-128200000D03*
X113940000Y-121960000D03*
X116700000Y-85450000D03*
X116800000Y-94900000D03*
X121200000Y-93150000D03*
X121350000Y-83200000D03*
X124700000Y-89850000D03*
X125950000Y-138550000D03*
X129800000Y-87700000D03*
X131050000Y-138550000D03*
X139750000Y-104900000D03*
X143550000Y-118800000D03*
X143800000Y-121350000D03*
X144600000Y-139400000D03*
X146650000Y-114850000D03*
X148800000Y-106300000D03*
X149800000Y-106300000D03*
X149800000Y-117250000D03*
X149800000Y-118750000D03*
X149850000Y-121250000D03*
X150900000Y-106300000D03*
X152000000Y-106300000D03*
X153050000Y-116700000D03*
X153100000Y-118200000D03*
X153100000Y-119550000D03*
X153100000Y-120750000D03*
X153100000Y-121950000D03*
X153100000Y-123250000D03*
X158250000Y-103550000D03*
X158500000Y-115500000D03*
X158700000Y-123050000D03*
X158800000Y-119550000D03*
X160500000Y-81250000D03*
X160700000Y-87650000D03*
X160700000Y-90800000D03*
X160700000Y-94000000D03*
X160700000Y-97150000D03*
X160850000Y-99950000D03*
X163900000Y-85200000D03*
X164650000Y-133750000D03*
X166150000Y-103450000D03*
X167050000Y-133750000D03*
X167600000Y-85150000D03*
X168150000Y-112600000D03*
X168850000Y-101700000D03*
X169400000Y-83800000D03*
X169550000Y-126500000D03*
X169600000Y-133750000D03*
X169800000Y-103250000D03*
X171050000Y-117800000D03*
X171350000Y-95400000D03*
X171400000Y-106800000D03*
X172600000Y-132800000D03*
X172750000Y-112550000D03*
X173200000Y-121200000D03*
X173950000Y-122250000D03*
X174250000Y-107750000D03*
X174550000Y-114000000D03*
X174800000Y-96550000D03*
X175000000Y-117750000D03*
X175150000Y-124000000D03*
X175150000Y-124850000D03*
X179550000Y-121250000D03*
X180250000Y-97600000D03*
X181000000Y-124550000D03*
X181550000Y-108300000D03*
X182600000Y-116750000D03*
X182600000Y-120950000D03*
X186850000Y-106550000D03*
X189000000Y-124650000D03*
X189600000Y-99900000D03*
X190800000Y-90700000D03*
X190800000Y-111200000D03*
X191450000Y-124650000D03*
X191650000Y-114250000D03*
X191725000Y-92075000D03*
X191850000Y-83000000D03*
X192000000Y-132400000D03*
X192300000Y-116750000D03*
X193050000Y-81550000D03*
X193475000Y-129775000D03*
X193500000Y-127150000D03*
X193700000Y-106600000D03*
X193900000Y-120700000D03*
X195750000Y-122350000D03*
X195750000Y-128900000D03*
X196000000Y-113650000D03*
X196050000Y-110150000D03*
X197800000Y-129750000D03*
X198100000Y-127100000D03*
X199050000Y-86450000D03*
X199050000Y-90000000D03*
X199100000Y-93200000D03*
X199450000Y-132450000D03*
X199800000Y-123750000D03*
X199950000Y-129750000D03*
X202800000Y-123650000D03*
X204850000Y-118500000D03*
X205000000Y-87100000D03*
X205850000Y-115750000D03*
X206100000Y-112350000D03*
X206350000Y-130000000D03*
X207600000Y-87300000D03*
X209500000Y-123500000D03*
X209500000Y-127200000D03*
X209600000Y-121050000D03*
X213050000Y-95650000D03*
X221960000Y-138190000D03*
X223650000Y-87350000D03*
X225100000Y-84200000D03*
X227040000Y-138490000D03*
X227650000Y-89800000D03*
X231450000Y-82500000D03*
X231725000Y-92175000D03*
X235300000Y-140200000D03*
X235750000Y-85300000D03*
X235750000Y-94750000D03*
X243700000Y-89700000D03*
X247600000Y-87200000D03*
D13*
%TO.C,J1*%
X192950000Y-132820000D03*
X193350000Y-133530000D03*
X193750000Y-132820000D03*
X194150000Y-133530000D03*
X194550000Y-132820000D03*
X194950000Y-133530000D03*
X195350000Y-132820000D03*
X196150000Y-132820000D03*
X196550000Y-133530000D03*
X196950000Y-132820000D03*
X197350000Y-133530000D03*
X197750000Y-132820000D03*
X198150000Y-133530000D03*
X198550000Y-132820000D03*
D14*
X191480000Y-134270000D02*
X191480000Y-133670000D01*
X191480000Y-139000000D02*
X191480000Y-138400000D01*
X200020000Y-134270000D02*
X200020000Y-133670000D01*
X200020000Y-139000000D02*
X200020000Y-138400000D01*
D15*
%TO.C,U3*%
X118340000Y-121960000D03*
X118340000Y-124500000D03*
X118340000Y-127040000D03*
X125960000Y-134660000D03*
X128500000Y-134660000D03*
X131040000Y-134660000D03*
%TO.C,U4*%
X214340000Y-120960000D03*
X214340000Y-123500000D03*
X214340000Y-126040000D03*
X221960000Y-133660000D03*
X224500000Y-133660000D03*
X227040000Y-133660000D03*
D16*
%TO.C,U3*%
X125325000Y-111800000D03*
X125325000Y-116880000D03*
X131675000Y-111800000D03*
X131675000Y-116880000D03*
%TO.C,U4*%
X221325000Y-110800000D03*
X221325000Y-115880000D03*
X227675000Y-110800000D03*
X227675000Y-115880000D03*
D17*
%TO.C,U3*%
X120880000Y-117832500D03*
X120880000Y-131167500D03*
X136120000Y-117832500D03*
X136120000Y-131167500D03*
%TO.C,U4*%
X216880000Y-116832500D03*
X216880000Y-130167500D03*
X232120000Y-116832500D03*
X232120000Y-130167500D03*
M02*
